<svg xmlns="http://www.w3.org/2000/svg" xmlns:xlink="http://www.w3.org/1999/xlink" viewBox="0 0 175.38 171.45"><defs><style>.cls-1{fill:none;}.cls-2{isolation:isolate;}.cls-3{fill:url(#linear-gradient);}.cls-13,.cls-19,.cls-33,.cls-37,.cls-4,.cls-40,.cls-42{opacity:0.36;}.cls-13,.cls-19,.cls-33,.cls-34,.cls-35,.cls-36,.cls-37,.cls-4,.cls-40,.cls-44,.cls-46,.cls-48,.cls-50,.cls-52,.cls-54,.cls-56,.cls-58,.cls-60,.cls-62{mix-blend-mode:screen;}.cls-4{fill:url(#linear-gradient-2);}.cls-21,.cls-24,.cls-26,.cls-28,.cls-30,.cls-32,.cls-39,.cls-5,.cls-6,.cls-7{opacity:0.39;}.cls-14,.cls-21,.cls-24,.cls-26,.cls-28,.cls-30,.cls-32,.cls-38,.cls-39,.cls-42,.cls-5,.cls-6,.cls-7,.cls-8,.cls-9{mix-blend-mode:multiply;}.cls-5{fill:url(#linear-gradient-3);}.cls-6{fill:url(#linear-gradient-4);}.cls-7{fill:url(#linear-gradient-5);}.cls-8,.cls-9{opacity:0.24;}.cls-8{fill:url(#linear-gradient-6);}.cls-9{fill:url(#linear-gradient-7);}.cls-10{clip-path:url(#clip-path);}.cls-11{fill:url(#linear-gradient-8);}.cls-12{fill:url(#linear-gradient-9);}.cls-13{fill:url(#linear-gradient-10);}.cls-14{fill:#8486ea;opacity:0.63;}.cls-15{fill:#fff;}.cls-16{clip-path:url(#clip-path-2);}.cls-17{fill:url(#linear-gradient-11);}.cls-18{fill:url(#linear-gradient-12);}.cls-19{fill:url(#linear-gradient-13);}.cls-20{fill:#401f15;}.cls-21{fill:url(#linear-gradient-14);}.cls-22{opacity:0.71;}.cls-23{clip-path:url(#clip-path-3);}.cls-24{fill:url(#radial-gradient);}.cls-25{clip-path:url(#clip-path-4);}.cls-26{fill:url(#radial-gradient-2);}.cls-27{clip-path:url(#clip-path-5);}.cls-28{fill:url(#radial-gradient-3);}.cls-29{clip-path:url(#clip-path-6);}.cls-30{fill:url(#radial-gradient-4);}.cls-31{clip-path:url(#clip-path-7);}.cls-32{fill:url(#radial-gradient-5);}.cls-33{fill:url(#linear-gradient-15);}.cls-34,.cls-35,.cls-36{opacity:0.14;}.cls-34{fill:url(#linear-gradient-16);}.cls-35{fill:url(#linear-gradient-17);}.cls-36{fill:url(#linear-gradient-18);}.cls-37{fill:url(#linear-gradient-19);}.cls-38,.cls-42{fill:#900040;}.cls-38{opacity:0.18;}.cls-39{fill:url(#linear-gradient-20);}.cls-40{fill:#ffffb1;}.cls-41{fill:url(#linear-gradient-21);}.cls-43{fill:url(#linear-gradient-22);}.cls-44,.cls-46,.cls-48,.cls-50,.cls-52,.cls-54,.cls-56,.cls-58,.cls-60,.cls-62{opacity:0.17;}.cls-44{fill:url(#linear-gradient-23);}.cls-45{fill:url(#linear-gradient-24);}.cls-46{fill:url(#linear-gradient-25);}.cls-47{fill:url(#linear-gradient-26);}.cls-48{fill:url(#linear-gradient-27);}.cls-49{fill:url(#linear-gradient-28);}.cls-50{fill:url(#linear-gradient-29);}.cls-51{fill:url(#linear-gradient-30);}.cls-52{fill:url(#linear-gradient-31);}.cls-53{fill:url(#linear-gradient-32);}.cls-54{fill:url(#linear-gradient-33);}.cls-55{fill:url(#linear-gradient-34);}.cls-56{fill:url(#linear-gradient-35);}.cls-57{fill:url(#linear-gradient-36);}.cls-58{fill:url(#linear-gradient-37);}.cls-59{fill:url(#linear-gradient-38);}.cls-60{fill:url(#linear-gradient-39);}.cls-61{fill:url(#linear-gradient-40);}.cls-62{fill:url(#linear-gradient-41);}</style><linearGradient id="linear-gradient" x1="53.52" y1="20.16" x2="135.46" y2="145.53" gradientUnits="userSpaceOnUse"><stop offset="0" stop-color="#d17e60"/><stop offset="0.39" stop-color="#b15a4b"/><stop offset="0.78" stop-color="#953c39"/><stop offset="1" stop-color="#8b3032"/></linearGradient><linearGradient id="linear-gradient-2" x1="58.61" y1="5.34" x2="94.36" y2="60.05" gradientUnits="userSpaceOnUse"><stop offset="0" stop-color="#ffffb1"/><stop offset="0.08" stop-color="#dbdb98"/><stop offset="0.22" stop-color="#a2a270"/><stop offset="0.36" stop-color="#70704e"/><stop offset="0.5" stop-color="#484832"/><stop offset="0.64" stop-color="#29291c"/><stop offset="0.77" stop-color="#12120d"/><stop offset="0.89" stop-color="#050503"/><stop offset="1"/></linearGradient><linearGradient id="linear-gradient-3" x1="95.66" y1="78.58" x2="95.66" y2="53.73" gradientUnits="userSpaceOnUse"><stop offset="0.13" stop-color="#fff"/><stop offset="0.25" stop-color="#f4e5ec"/><stop offset="0.48" stop-color="#d7a2b9"/><stop offset="0.83" stop-color="#a9386a"/><stop offset="1" stop-color="#900040"/></linearGradient><linearGradient id="linear-gradient-4" x1="119.71" y1="83.36" x2="119.71" y2="26.88" gradientUnits="userSpaceOnUse"><stop offset="0" stop-color="#fff"/><stop offset="0.13" stop-color="#f4e5ec"/><stop offset="0.4" stop-color="#d7a2b9"/><stop offset="0.8" stop-color="#a9386a"/><stop offset="1" stop-color="#900040"/></linearGradient><linearGradient id="linear-gradient-5" x1="76.08" y1="69.38" x2="76.08" y2="24.79" xlink:href="#linear-gradient-4"/><linearGradient id="linear-gradient-6" x1="119.58" y1="125.36" x2="119.58" y2="41.96" xlink:href="#linear-gradient-4"/><linearGradient id="linear-gradient-7" x1="69.51" y1="115.27" x2="69.51" y2="37.52" xlink:href="#linear-gradient-4"/><clipPath id="clip-path" transform="translate(0 4.86)"><path class="cls-1" d="M99.69,81.93c-2-16.86,4-38.31,19.14-37.46s26.93,35,17.29,47.92C126.61,105.11,102,101.25,99.69,81.93Z"/></clipPath><linearGradient id="linear-gradient-8" x1="122.7" y1="102.04" x2="112.51" y2="26.25" gradientUnits="userSpaceOnUse"><stop offset="0" stop-color="#fff"/><stop offset="0.14" stop-color="#f8f8fc"/><stop offset="0.36" stop-color="#e3e5f2"/><stop offset="0.61" stop-color="#c2c6e3"/><stop offset="0.9" stop-color="#949bcd"/><stop offset="1" stop-color="#838bc5"/></linearGradient><linearGradient id="linear-gradient-9" x1="348.15" y1="232.24" x2="348.15" y2="190.85" gradientTransform="matrix(1.06, 0.17, -0.33, 0.89, -186.19, -178.75)" gradientUnits="userSpaceOnUse"><stop offset="0" stop-color="#006cff"/><stop offset="0.05" stop-color="#0063eb"/><stop offset="0.2" stop-color="#0049ae"/><stop offset="0.35" stop-color="#003379"/><stop offset="0.5" stop-color="#00214d"/><stop offset="0.64" stop-color="#00122c"/><stop offset="0.77" stop-color="#000814"/><stop offset="0.9" stop-color="#000205"/><stop offset="1"/></linearGradient><linearGradient id="linear-gradient-10" x1="631.05" y1="388.86" x2="612.11" y2="356.04" gradientTransform="matrix(0.07, 1, -0.76, 0.05, 355.06, -555.82)" gradientUnits="userSpaceOnUse"><stop offset="0"/><stop offset="0.1" stop-color="#222218"/><stop offset="0.36" stop-color="#70704e"/><stop offset="0.58" stop-color="#adad78"/><stop offset="0.77" stop-color="#dada97"/><stop offset="0.91" stop-color="#f5f5aa"/><stop offset="1" stop-color="#ffffb1"/></linearGradient><clipPath id="clip-path-2" transform="translate(0 4.86)"><path class="cls-1" d="M87.07,77.22C97.83,53.74,90.9,38.94,79,39.51S44.54,53.26,47.09,74.1C50,97.53,77.71,97.63,87.07,77.22Z"/></clipPath><linearGradient id="linear-gradient-11" x1="73.68" y1="93.39" x2="64.38" y2="24.25" xlink:href="#linear-gradient-8"/><linearGradient id="linear-gradient-12" x1="313.89" y1="234.16" x2="313.89" y2="192.76" xlink:href="#linear-gradient-9"/><linearGradient id="linear-gradient-13" x1="624.53" y1="436.81" x2="605.47" y2="403.78" xlink:href="#linear-gradient-10"/><linearGradient id="linear-gradient-14" x1="53.52" y1="20.17" x2="147.15" y2="163.43" gradientUnits="userSpaceOnUse"><stop offset="0" stop-color="#900040"/><stop offset="0.09" stop-color="#930645"/><stop offset="0.22" stop-color="#9a1751"/><stop offset="0.36" stop-color="#a63467"/><stop offset="0.52" stop-color="#b85b84"/><stop offset="0.69" stop-color="#ce8eaa"/><stop offset="0.86" stop-color="#e8cbd8"/><stop offset="1" stop-color="#fff"/></linearGradient><clipPath id="clip-path-3" transform="translate(0 4.86)"><path id="SVGID" class="cls-1" d="M85.89,1.46s10,11.35,13.43,17.21-1.51,32.7-1.51,32.7,4.9-26.9,9.25-29.8,23-11,23-11S121.8,9.59,124.45,7c0,0-15.5,9.26-19.47,9.45S94.12,1.46,94.12,1.46,93.83,7,85.89,1.46Z"/></clipPath><radialGradient id="radial-gradient" cx="103.88" cy="18.8" fy="5.955848751751015" r="23.66" gradientTransform="translate(105.92 -86.75) rotate(80.85)" gradientUnits="userSpaceOnUse"><stop offset="0" stop-color="#900040"/><stop offset="0.16" stop-color="#aa3d6d"/><stop offset="0.32" stop-color="#c47799"/><stop offset="0.49" stop-color="#d9a8be"/><stop offset="0.64" stop-color="#e9ceda"/><stop offset="0.78" stop-color="#f5e9ee"/><stop offset="0.91" stop-color="#fcf9fb"/><stop offset="1" stop-color="#fff"/></radialGradient><clipPath id="clip-path-4" transform="translate(0 4.86)"><path id="SVGID-2" data-name="SVGID" class="cls-1" d="M19.54,68.57S27.1,75,28.8,66.68c0,0,11.59,31.52,16.1,35.8S68.69,106,68.69,106s-5.86,5.29-3.6,7.18c0,0-18.47-5.67-20.19-3.78s-5.51,9.26-5.51,9.26a5.68,5.68,0,0,0-6.62,0s8.51-10.44,6.62-16.18S19.54,68.57,19.54,68.57Z"/></clipPath><radialGradient id="radial-gradient-2" cx="37.34" cy="94.13" r="23.66" gradientTransform="translate(120.37 36.17) rotate(76.72)" gradientUnits="userSpaceOnUse"><stop offset="0" stop-color="#900040"/><stop offset="0.15" stop-color="#a42e62"/><stop offset="0.47" stop-color="#cb86a5"/><stop offset="0.72" stop-color="#e7c7d5"/><stop offset="0.9" stop-color="#f8f0f4"/><stop offset="1" stop-color="#fff"/></radialGradient><clipPath id="clip-path-5" transform="translate(0 4.86)"><path id="SVGID-3" data-name="SVGID" class="cls-1" d="M68.69,124.34S84,136.81,89.4,136.81s31.08-9.26,31.08-9.26-2.65,5.86,2.84,6.24c0,0-30.06,8.88-30.91,11.15s-2.47,14.74-2.47,14.74a7,7,0,0,0-6.89,0s6.24-12.47,2.84-16.44S63.2,129.06,63.2,129.06,72.84,131,68.69,124.34Z"/></clipPath><radialGradient id="radial-gradient-3" cx="93.31" cy="137.16" r="23.66" gradientTransform="translate(58.63 -25.07) rotate(22.16)" gradientUnits="userSpaceOnUse"><stop offset="0" stop-color="#900040"/><stop offset="0.13" stop-color="#9b1a53"/><stop offset="0.4" stop-color="#b85c85"/><stop offset="0.79" stop-color="#e6c5d3"/><stop offset="1" stop-color="#fff"/></radialGradient><clipPath id="clip-path-6" transform="translate(0 4.86)"><path id="SVGID-4" data-name="SVGID" class="cls-1" d="M138.82,139.27s2.55-4.78,5.48-3.4c0,0-6.24-23.26-2.74-25.52s11.25-.57,14.27,0,8.13,8.31,8.13,8.31.38-8.5,2.46-8.5c0,0-10-3.59-10.21-6.43s7.56-16.07,7.56-16.07-4-2.36-4-4.3c0,0-5.86,17.3-10.59,19.12s-12.66,1.82-14.17,2.2-6.81-2.2-6.81-2.2,3.4,6.17-13.89,2.2c0,0,21.07,6.67,21.83,8.82S138.82,139.27,138.82,139.27Z"/></clipPath><radialGradient id="radial-gradient-4" cx="143.37" cy="109.2" r="23.66" gradientTransform="translate(119.21 -69.39) rotate(45)" gradientUnits="userSpaceOnUse"><stop offset="0" stop-color="#900040"/><stop offset="0.33" stop-color="#b85d85"/><stop offset="0.66" stop-color="#deb3c6"/><stop offset="0.89" stop-color="#f6eaef"/><stop offset="1" stop-color="#fff"/></radialGradient><clipPath id="clip-path-7" transform="translate(0 4.86)"><path id="SVGID-5" data-name="SVGID" class="cls-1" d="M54.36,17.53s12.25,12.1,29.45,3c0,0-24.87,19.66-29.45,24.57,0,0,15.46-14.38,9.79-18.25s-15.31-5.31-15.31-5.31S56.86,20.18,54.36,17.53Z"/></clipPath><radialGradient id="radial-gradient-5" cx="66.32" cy="23.66" fy="15.865268556040526" r="15.94" gradientTransform="translate(13.18 -22.54) rotate(21.37)" gradientUnits="userSpaceOnUse"><stop offset="0" stop-color="#900040"/><stop offset="0.08" stop-color="#9d1f57"/><stop offset="0.28" stop-color="#bb6289"/><stop offset="0.46" stop-color="#d39ab3"/><stop offset="0.63" stop-color="#e6c6d4"/><stop offset="0.78" stop-color="#f4e5ec"/><stop offset="0.91" stop-color="#fcf8fa"/><stop offset="1" stop-color="#fff"/></radialGradient><linearGradient id="linear-gradient-15" x1="64.29" y1="0.92" x2="85.44" y2="33.27" gradientUnits="userSpaceOnUse"><stop offset="0" stop-color="#ffffb1"/><stop offset="0.11" stop-color="#d4d493"/><stop offset="0.3" stop-color="#959567"/><stop offset="0.47" stop-color="#606042"/><stop offset="0.64" stop-color="#363626"/><stop offset="0.78" stop-color="#181811"/><stop offset="0.91" stop-color="#060604"/><stop offset="1"/></linearGradient><linearGradient id="linear-gradient-16" x1="68.69" y1="130.57" x2="120.48" y2="130.57" xlink:href="#linear-gradient-15"/><linearGradient id="linear-gradient-17" x1="28.8" y1="86.36" x2="68.69" y2="86.36" xlink:href="#linear-gradient-15"/><linearGradient id="linear-gradient-18" x1="128.23" y1="94.04" x2="159.8" y2="94.04" xlink:href="#linear-gradient-15"/><linearGradient id="linear-gradient-19" x1="54.36" y1="20.73" x2="83.81" y2="20.73" xlink:href="#linear-gradient-15"/><linearGradient id="linear-gradient-20" x1="59.75" y1="29.7" x2="141.69" y2="155.06" gradientUnits="userSpaceOnUse"><stop offset="0" stop-color="#fff"/><stop offset="0.15" stop-color="#fefcfc"/><stop offset="0.28" stop-color="#f9f1f5"/><stop offset="0.4" stop-color="#f1dfe7"/><stop offset="0.52" stop-color="#e6c7d5"/><stop offset="0.63" stop-color="#d8a7bd"/><stop offset="0.74" stop-color="#c77f9f"/><stop offset="0.85" stop-color="#b3507c"/><stop offset="0.95" stop-color="#9c1c55"/><stop offset="1" stop-color="#900040"/></linearGradient><linearGradient id="linear-gradient-21" x1="174.93" y1="92.01" x2="168.46" y2="92.01" gradientUnits="userSpaceOnUse"><stop offset="0" stop-color="#401f15"/><stop offset="0.26" stop-color="#432016"/><stop offset="0.48" stop-color="#4e221a"/><stop offset="0.68" stop-color="#5f2621"/><stop offset="0.88" stop-color="#772c2a"/><stop offset="1" stop-color="#8b3032"/></linearGradient><linearGradient id="linear-gradient-22" x1="23.86" y1="42.89" x2="32.49" y2="56.1" gradientUnits="userSpaceOnUse"><stop offset="0" stop-color="#8b3032"/><stop offset="0.01" stop-color="#8a3032"/><stop offset="0.44" stop-color="#622722"/><stop offset="0.79" stop-color="#492119"/><stop offset="1" stop-color="#401f15"/></linearGradient><linearGradient id="linear-gradient-23" x1="23.54" y1="40.93" x2="30.05" y2="47.43" gradientUnits="userSpaceOnUse"><stop offset="0" stop-color="#ffffb1"/><stop offset="0.17" stop-color="#cccc8e"/><stop offset="0.47" stop-color="#767652"/><stop offset="0.72" stop-color="#363626"/><stop offset="0.91" stop-color="#0f0f0a"/><stop offset="1"/></linearGradient><linearGradient id="linear-gradient-24" x1="52.33" y1="18.37" x2="58.49" y2="27.79" xlink:href="#linear-gradient-22"/><linearGradient id="linear-gradient-25" x1="53.15" y1="16.71" x2="58.66" y2="22.21" xlink:href="#linear-gradient-23"/><linearGradient id="linear-gradient-26" x1="132.45" y1="28.87" x2="143.5" y2="45.78" xlink:href="#linear-gradient-22"/><linearGradient id="linear-gradient-27" x1="130.01" y1="29.09" x2="139.01" y2="38.09" xlink:href="#linear-gradient-23"/><linearGradient id="linear-gradient-28" x1="148.27" y1="63.48" x2="157.54" y2="77.65" gradientUnits="userSpaceOnUse"><stop offset="0" stop-color="#8b3032"/><stop offset="0.01" stop-color="#8a3032"/><stop offset="0.28" stop-color="#6a2825"/><stop offset="0.54" stop-color="#53231c"/><stop offset="0.79" stop-color="#452017"/><stop offset="1" stop-color="#401f15"/></linearGradient><linearGradient id="linear-gradient-29" x1="148.76" y1="68.99" x2="153.06" y2="73.29" xlink:href="#linear-gradient-23"/><linearGradient id="linear-gradient-30" x1="84.85" y1="113.33" x2="91.81" y2="123.98" gradientUnits="userSpaceOnUse"><stop offset="0" stop-color="#8b3032"/><stop offset="0.14" stop-color="#7c2d2c"/><stop offset="0.5" stop-color="#5b2520"/><stop offset="0.8" stop-color="#472118"/><stop offset="1" stop-color="#401f15"/></linearGradient><linearGradient id="linear-gradient-31" x1="87.42" y1="115.29" x2="89.34" y2="117.21" xlink:href="#linear-gradient-23"/><linearGradient id="linear-gradient-32" x1="104.26" y1="108.99" x2="115.76" y2="126.58" xlink:href="#linear-gradient-28"/><linearGradient id="linear-gradient-33" x1="105.73" y1="113.36" x2="109.32" y2="116.94" xlink:href="#linear-gradient-23"/><linearGradient id="linear-gradient-34" x1="37.28" y1="117.81" x2="56.05" y2="146.52" xlink:href="#linear-gradient-28"/><linearGradient id="linear-gradient-35" x1="40.77" y1="124.65" x2="46.39" y2="130.27" xlink:href="#linear-gradient-23"/><linearGradient id="linear-gradient-36" x1="6.9" y1="147.62" x2="16.41" y2="162.16" xlink:href="#linear-gradient-22"/><linearGradient id="linear-gradient-37" x1="6.9" y1="146.07" x2="10.36" y2="149.53" xlink:href="#linear-gradient-23"/><linearGradient id="linear-gradient-38" x1="30.62" y1="151.97" x2="36.55" y2="161.05" xlink:href="#linear-gradient-22"/><linearGradient id="linear-gradient-39" x1="30.2" y1="151.56" x2="34.16" y2="155.52" xlink:href="#linear-gradient-23"/><linearGradient id="linear-gradient-40" x1="150.32" y1="154.16" x2="158.63" y2="166.87" xlink:href="#linear-gradient-22"/><linearGradient id="linear-gradient-41" x1="151.21" y1="152.14" x2="157.54" y2="158.46" xlink:href="#linear-gradient-23"/></defs><g class="cls-2"><g id="Слой_2" data-name="Слой 2"><g id="Layer_2" data-name="Layer 2"><path class="cls-3" d="M36,28.87s-4.16-5.48,2.27-11.15,10.59-2.84,10.59-2.84-3-7.18,12.47-7.56c0,0,6.43-8.5,38.76-7.18s61.24,22.68,67.48,45.56,2.27,33.08,4.16,49.9-13.61,42.72-19.47,45.94a9.94,9.94,0,0,1-3.4,6.61c-3.22,2.65-8.32,0-8.32,0s-3.4,6.81-7.94,4.73c0,0-16.64,14-48.77,10.4S21.62,138.7,14.24,103.54,23.13,42.86,36,28.87Z" transform="translate(0 4.86)"/><path class="cls-4" d="M64.53,99.77c49.62,19.84,92.71-1.18,83.43-52.69C143.47,22.18,130.72,9.68,119,3.24a81.39,81.39,0,0,0-19-3.1C67.74-1.18,61.31,7.32,61.31,7.32c-15.5.38-12.47,7.56-12.47,7.56s-4.16-2.83-10.59,2.84S36,28.87,36,28.87c-.87,1-1.77,2-2.67,3C33.28,32,14.94,80,64.53,99.77Z" transform="translate(0 4.86)"/><path class="cls-5" d="M87.21,65.71s12.05-25.18,16.27-2.55C107.83,86.55,88.3,76.38,88.3,76.38Z" transform="translate(0 4.86)"/><path class="cls-6" d="M99.78,68.3s4.07-26.62,6.52-35.65,9.69-6.8,16.07,2.08S140,58.08,139.62,76.79,99.78,68.3,99.78,68.3Z" transform="translate(0 4.86)"/><path class="cls-7" d="M90.13,69.38S92.39,67.57,94,55.81s3.83-24.54,3.83-24.54V25.05S86,23.51,80.22,28,54.36,52.43,54.36,52.43Z" transform="translate(0 4.86)"/><path class="cls-8" d="M114.72,41.21c18.67-2.67,28.42,28.43,24.28,44.48s-16.35,17.9-23,16.34-18-6.52-16.66-25.8S104.79,42.63,114.72,41.21Z" transform="translate(0 4.86)"/><path class="cls-9" d="M85.65,37.24c9.22,2.25,13.19,20.7,0,40.83S56.73,97.21,48.36,86s.13-27.38,7.3-35S73.52,34.27,85.65,37.24Z" transform="translate(0 4.86)"/><g class="cls-10"><path class="cls-11" d="M99.69,81.93c-2-16.86,4-38.31,19.14-37.46s26.93,35,17.29,47.92C126.61,105.11,102,101.25,99.69,81.93Z" transform="translate(0 4.86)"/><path class="cls-12" d="M129.34,71.57C127.6,82.15,119,89,110.08,86.86S95.66,74.41,97.54,64s10.36-17,19.06-15S131.06,61.09,129.34,71.57Z" transform="translate(0 4.86)"/><path class="cls-13" d="M100.59,88.35c-1.33-11.94,11.76-24.57,20.86-19,4.84,3,9.55,10,6.76,20.55C127.24,93.51,102.76,107.77,100.59,88.35Z" transform="translate(0 4.86)"/><path class="cls-14" d="M96.78,83.84s2.36-15.73,15-21.92C130,53,143.69,73.48,138,89.84,131.25,109,166.5,61.3,166.5,61.3s-4.82-17.09-9.74-16.55-55.29-3-55.29-3-25.87,33-24,36.54S96.78,83.84,96.78,83.84Z" transform="translate(0 4.86)"/><path class="cls-15" d="M105.14,56.55c3.15-5.62,9.92,7.88,6.48,9S100.44,65,105.14,56.55Z" transform="translate(0 4.86)"/></g><g class="cls-16"><path class="cls-17" d="M87.07,77.22C97.83,53.74,90.9,38.94,79,39.51S44.54,53.26,47.09,74.1C50,97.53,77.71,97.63,87.07,77.22Z" transform="translate(0 4.86)"/><path class="cls-18" d="M92.5,67.55C90.75,78.13,82,85,73.08,82.84S58.53,70.39,60.42,59.94s10.46-17,19.23-15S94.24,57.07,92.5,67.55Z" transform="translate(0 4.86)"/><path class="cls-19" d="M63.51,84.33c-1.34-11.93,11.85-24.57,21-19,4.89,3,9.63,10,6.82,20.55C90.39,89.5,65.69,103.75,63.51,84.33Z" transform="translate(0 4.86)"/><path class="cls-14" d="M47.9,78.87S50.28,63.14,63,57c18.42-9,31.67,6.32,25.89,22.68-6.78,19.2,29.32-23.31,29.32-23.31s-4.86-17.08-9.83-16.54-55.77-3-55.77-3-26.1,33-24.22,36.54S47.9,78.87,47.9,78.87Z" transform="translate(0 4.86)"/><path class="cls-15" d="M67.24,51.81c3.17-5.62,10,7.88,6.53,9S62.49,60.23,67.24,51.81Z" transform="translate(0 4.86)"/></g><path class="cls-20" d="M106.3,32.65s2.65-20.47,16.07,2.08C122.37,34.73,111.22,20.37,106.3,32.65Z" transform="translate(0 4.86)"/><path class="cls-20" d="M97.61,31.9S104.79,11.55,80.22,28C80.22,28,98.36,20.18,97.61,31.9Z" transform="translate(0 4.86)"/><path class="cls-21" d="M14.24,103.54c7.38,35.16,37.43,56.14,69.57,59.74s48.77-10.4,48.77-10.4c4.54,2.08,7.94-4.73,7.94-4.73s5.1,2.65,8.32,0a9.94,9.94,0,0,0,3.4-6.61c5.86-3.22,21.36-29.11,19.47-45.94s2.08-27-4.16-49.9a45.61,45.61,0,0,0-6.66-13.88C176.39,58.51,172.43,135.6,131.16,146c-45.08,11.34-100.78-9.78-110.87-43.5-9.87-33,5.95-61,6.62-62.15C16.91,55.1,8.57,76.46,14.24,103.54Z" transform="translate(0 4.86)"/><g class="cls-22"><g class="cls-23"><circle class="cls-24" cx="103.88" cy="18.8" r="23.66" transform="translate(68.8 123.23) rotate(-80.85)"/></g></g><g class="cls-22"><g class="cls-25"><circle class="cls-26" cx="37.34" cy="94.13" r="23.66" transform="translate(-62.86 113.71) rotate(-76.72)"/></g></g><g class="cls-22"><g class="cls-27"><circle class="cls-28" cx="93.31" cy="137.16" r="23.66" transform="translate(-44.85 50.2) rotate(-22.16)"/></g></g><g class="cls-22"><g class="cls-29"><circle class="cls-30" cx="143.37" cy="109.2" r="23.66" transform="translate(-35.23 138.22) rotate(-45)"/></g></g><g class="cls-22"><g class="cls-31"><circle class="cls-32" cx="66.32" cy="23.66" r="15.94" transform="translate(-4.06 30.66) rotate(-21.37)"/></g></g><path class="cls-33" d="M54.36,45.13c21.51-8.51-11.3-16.82-11.3-16.82S38.67,15.45,51.6,17.53c0,0-.49-4.91,5.93-6.8s2.08,4.53,2.08,4.53S73.85,2,87.24,3l-.47-.53-.88-1c.4.28.77.51,1.14.74a18.53,18.53,0,0,0,1.91,1,17.33,17.33,0,0,1,2.62.66,2.55,2.55,0,0,0,2.56-2.42S101,16.59,105,16.4,123.47,7.53,124.36,7l.09,0s-16.07,6.61-18.15,6-7.71-9.62-7.71-9.62,15-1.63,27.67,2.29A81.92,81.92,0,0,0,100.07.14C67.74-1.18,61.31,7.32,61.31,7.32c-15.5.38-12.47,7.56-12.47,7.56s-4.16-2.83-10.59,2.84S36,28.87,36,28.87l-1.26,1.41C27.65,39.26,32.85,53.64,54.36,45.13Z" transform="translate(0 4.86)"/><path class="cls-34" d="M89.4,136.81c3.89,0,18.47-4.86,26.19-7.54,2.94-1,4.89-1.72,4.89-1.72s-24.12,7.86-29.11,7-22.68-10.21-22.68-10.21S70,125.41,72,126.92C76.82,130.57,85.6,136.81,89.4,136.81Z" transform="translate(0 4.86)"/><path class="cls-35" d="M31.8,74.57c3.75,9.63,10,25,13.1,27.91,2.17,2.06,7.78,3,13,3.32,5.61.4,10.78.2,10.78.2s-21.31-1-23.79-7S28.8,66.68,28.8,66.68Z" transform="translate(0 4.86)"/><path class="cls-36" d="M135,104.68c1.51-.38,9.45-.38,14.17-2.2,2.75-1.06,5.88-7.35,8-12.43,1.54-3.65,2.57-6.69,2.57-6.69s-11,17.72-18.34,19.12a35,35,0,0,1-13.23,0S133.52,105.05,135,104.68Z" transform="translate(0 4.86)"/><path class="cls-37" d="M82.09,21.4c.57-.26,1.14-.54,1.72-.84-14.19,4-29.45-3-29.45-3A25.21,25.21,0,0,0,82.09,21.4Z" transform="translate(0 4.86)"/><path class="cls-38" d="M44.9,102.48c-3.41-3.24-10.87-22-14.3-31-.19.05,7.85,30.68,12.75,33.25,3,1.58,14.4,1.37,14.56,1.09C52.68,105.43,47.07,104.54,44.9,102.48Z" transform="translate(0 4.86)"/><path class="cls-38" d="M104.11,18.17c5.34.69,19.44-10.5,20.26-11.16-.9.52-15.54,9.2-19.39,9.39S94.12,1.46,94.12,1.46,98.61,17.46,104.11,18.17Z" transform="translate(0 4.86)"/><path class="cls-38" d="M89.4,136.81c-3.8,0-12.58-6.24-17.4-9.89-.1.22,11.19,11.44,18,12.35,7.28,1,25.65-9.71,25.54-10C107.87,132,93.29,136.81,89.4,136.81Z" transform="translate(0 4.86)"/><path class="cls-38" d="M153.09,104.2c1.17-.94,4.37-14,4.14-14.15-2.14,5.08-5.27,11.37-8,12.43-4.72,1.82-12.66,1.82-14.17,2.2s-6.81-2.2-6.81-2.2,5.11,3.71,8.13,4.27S151.1,105.81,153.09,104.2Z" transform="translate(0 4.86)"/><path class="cls-38" d="M68.43,26a28,28,0,0,0,13.7-4.34c0-.1,0-.2,0-.3a25.21,25.21,0,0,1-27.73-3.87,1.93,1.93,0,0,1,.37.56C56.05,20,61,26.23,68.43,26Z" transform="translate(0 4.86)"/><path class="cls-39" d="M14.24,103.54c7.38,35.16,37.43,56.14,69.57,59.74s48.77-10.4,48.77-10.4c4.54,2.08,7.94-4.73,7.94-4.73s5.1,2.65,8.32,0a9.94,9.94,0,0,0,3.4-6.61c5.86-3.22,21.36-29.11,19.47-45.94s2.08-27-4.16-49.9c-5-18.27-24.43-35.55-48.51-42.46C130.72,9.68,142.73,22.32,148,47.08c11.69,55.36-33.81,72.53-83.43,52.69S33.29,32,33.31,31.9C21,46.39,7.37,70.78,14.24,103.54Z" transform="translate(0 4.86)"/><path class="cls-20" d="M85.79,94.23s1.09,1.66,6.15,2.13,2.64,6.19-1.37,6.57-4.49-3.36-3.69-6.67A2.73,2.73,0,0,1,85.79,94.23Z" transform="translate(0 4.86)"/><path class="cls-40" d="M67.07,14.32c-.34-1.55,7.56-8.94,11.29-8.84S67.64,16.92,67.07,14.32Z" transform="translate(0 4.86)"/><path class="cls-40" d="M67.64,16.92c0-1,4.9-2.56,5.38-1.23S67.68,18.38,67.64,16.92Z" transform="translate(0 4.86)"/><path class="cls-40" d="M35.18,34.87c.73-1.18,10.28-3.61,11.84-.49S33.83,37.07,35.18,34.87Z" transform="translate(0 4.86)"/><path class="cls-40" d="M110.69,10.53c.73-1.77,4.75-5,7-3.48S110.16,11.83,110.69,10.53Z" transform="translate(0 4.86)"/><path class="cls-40" d="M107.76,10.41c-1.11-.37,1-3.48,1.7-3.41S109.55,11,107.76,10.41Z" transform="translate(0 4.86)"/><path class="cls-41" d="M171,96.45c-2.9,0-4.53-9.07-.47-8.88s5.58,4.22,4.63,6.36S173.5,96.45,171,96.45Z" transform="translate(0 4.86)"/><path class="cls-42" d="M134.76,28.52c5.63-.81,15.78,10.08,16.26,14.27s-17.41,9.88-21,1.67S128.14,29.46,134.76,28.52Z" transform="translate(0 4.86)"/><path class="cls-42" d="M146.66,75.09c2.29,6.48,7.09,5.39,11.53,2.93s3.88-7,0-8.22S145.19,70.94,146.66,75.09Z" transform="translate(0 4.86)"/><path class="cls-42" d="M102.71,125.6c-1.62-6.64-1.13-7.47,5-10.68s10.17-2.55,12,2.08,4.74,9.26-.65,10S104.6,133.35,102.71,125.6Z" transform="translate(0 4.86)"/><path class="cls-42" d="M84.47,123.11c-.33,5,10.41,1.89,9.65-2.55S85,114.51,84.47,123.11Z" transform="translate(0 4.86)"/><path class="cls-42" d="M49.31,126.23c6,4.59,8.88,7.75,2.84,11.91s-9.36,5.19-12.67,0-1.61-10.87,2.74-11.91S48.16,125.35,49.31,126.23Z" transform="translate(0 4.86)"/><path class="cls-42" d="M25,62.46C20,63,19.11,47.92,22,45.41s10.45-4.21,14.33.52,5.57,6.61,2.26,9.17S27.77,62.17,25,62.46Z" transform="translate(0 4.86)"/><path class="cls-42" d="M59.23,29.91c3.66-1.56,4.07-4.85,2-7.29s-6.71-5.66-8.89-3.2-4.15,6-2.64,8.13S55.93,31.33,59.23,29.91Z" transform="translate(0 4.86)"/><path class="cls-43" d="M25,60.57C20,61.1,18.13,46,21,43.51s11.44-4.2,15.32.53,5.57,6.61,2.26,9.16S27.77,60.28,25,60.57Z" transform="translate(0 4.86)"/><path class="cls-38" d="M25,60.57c2.74-.29,10.21-4.81,13.51-7.37s1.61-4.44-2.26-9.16a8.19,8.19,0,0,0-4.82-2.74c1.71.75,4.7,3,4.14,4.49-.67,1.76-9.07,9.55-11.43,6.92s-3.75-7.91-3.83-8.24C18.5,48.58,20.47,61.05,25,60.57Z" transform="translate(0 4.86)"/><path class="cls-44" d="M20.89,46.26c1.82,4.3,11.85-.77,12.59-2.36a1.39,1.39,0,0,0-.28-1.57,9.82,9.82,0,0,0-1.74-1c-4-.82-8.57.51-10.5,2.21a2.88,2.88,0,0,0-.6.92l.52,1.81Z" transform="translate(0 4.86)"/><path class="cls-45" d="M59.23,28c3.66-1.56,4.07-4.85,2-7.29s-6.71-5.66-8.89-3.2-4.15,6-2.64,8.13S55.93,29.44,59.23,28Z" transform="translate(0 4.86)"/><path class="cls-38" d="M49.69,25.66c1.51,2.17,6.24,3.78,9.54,2.36,3.66-1.56,4.07-4.85,2-7.29a12.68,12.68,0,0,0-5.86-3.95c2.6,1.22,4.6,6.93,3.87,8s-8,.11-8.71-1.59a4.51,4.51,0,0,1,0-3.17C49.28,22,48.64,24.15,49.69,25.66Z" transform="translate(0 4.86)"/><path class="cls-46" d="M57.91,22.67c1.27.12.2-2.62-.59-4a5.45,5.45,0,0,0-2-1.86,6.94,6.94,0,0,1,1.23.43c-1.62-.73-3.22-.85-4.26.32C51.7,19.44,56.61,22.55,57.91,22.67Z" transform="translate(0 4.86)"/><path class="cls-47" d="M134.76,26.62c5.63-.8,15.78,10.09,16.26,14.28s-17.41,9.88-21,1.67S128.14,27.57,134.76,26.62Z" transform="translate(0 4.86)"/><path class="cls-38" d="M130.05,42.57c3.56,8.21,21.44,2.52,21-1.67-.39-3.42-7.21-11.28-12.77-13.64,5,2.67,10.12,12.11,8.79,12.86-1.51.85-10.68,2.55-13,1.8-2.2-.71-5.31-7.22-5.73-8.12A18.82,18.82,0,0,0,130.05,42.57Z" transform="translate(0 4.86)"/><path class="cls-48" d="M139.24,37.8c4.27-3.07-3.89-12.28-7.27-10.27a7.37,7.37,0,0,0-3.7,6.27C129.51,36.25,134.92,40.92,139.24,37.8Z" transform="translate(0 4.86)"/><path class="cls-49" d="M146.66,73.2c2.29,6.48,7.09,5.39,11.53,2.93s3.88-7,0-8.22S145.19,69.05,146.66,73.2Z" transform="translate(0 4.86)"/><path class="cls-38" d="M146.66,73.2c2.29,6.48,7.09,5.39,11.53,2.93s3.88-7,0-8.22a13.15,13.15,0,0,0-7.1.41c4.14-1,7.76.44,7.58,1.57S155,75.09,152,74.71a11.11,11.11,0,0,1-5.41-2.58A2.51,2.51,0,0,0,146.66,73.2Z" transform="translate(0 4.86)"/><path class="cls-50" d="M154.48,71.76c3.22-2.16-2.92-3.59-6.14-2.17a3.89,3.89,0,0,0-1.76,2.13,2.71,2.71,0,0,0,0,.41A7.12,7.12,0,0,0,154.48,71.76Z" transform="translate(0 4.86)"/><path class="cls-51" d="M84.47,121.22c-.33,5,10.41,1.89,9.65-2.56S85,112.61,84.47,121.22Z" transform="translate(0 4.86)"/><path class="cls-38" d="M84.47,121.22c-.33,5,10.41,1.89,9.65-2.56a4.25,4.25,0,0,0-2-2.82c4.26,3.51-4.64,6.23-5.68,4a3.58,3.58,0,0,1,.2-3.74C85.5,117,84.64,118.65,84.47,121.22Z" transform="translate(0 4.86)"/><path class="cls-52" d="M86.65,116.06c-.6.71-.3,2.17,2.66.87,1.51-.66,1.32-1.51.5-1.86A4.41,4.41,0,0,0,86.65,116.06Z" transform="translate(0 4.86)"/><path class="cls-53" d="M102.71,123.71c-1.62-6.65-1.13-7.47,5-10.68s10.17-2.55,12,2.08,4.74,9.26-.65,10S104.6,131.46,102.71,123.71Z" transform="translate(0 4.86)"/><path class="cls-38" d="M102.71,123.71c1.89,7.75,11,2.17,16.35,1.42s2.46-5.39.65-10c-1.38-3.51-4-4.73-7.9-3.72,2.91-.24,4.59,1.82,5,4.91.48,3.69-3.11,4.54-8.22,6.62s-5.67-1.33-6.09-4.26a6.71,6.71,0,0,1,0-1.84C101.6,118.3,101.85,120.18,102.71,123.71Z" transform="translate(0 4.86)"/><path class="cls-54" d="M102.46,116.82a6.71,6.71,0,0,0,0,1.84l.09.62a1.62,1.62,0,0,0,2,.94c2-.35,10.18-7.9,8.5-8.75l-.14,0a1.43,1.43,0,0,0-.23,0c-.09,0-.2,0-.3,0l-.87.07a20.13,20.13,0,0,0-3.84,1.56C104.84,114.54,103.21,115.52,102.46,116.82Z" transform="translate(0 4.86)"/><path class="cls-55" d="M49.31,124.34c6,4.59,8.88,7.75,2.84,11.9s-9.36,5.2-12.67,0-1.61-10.87,2.74-11.9S48.16,123.45,49.31,124.34Z" transform="translate(0 4.86)"/><path class="cls-38" d="M39.48,136.24c3.31,5.2,6.62,4.16,12.67,0s3.17-7.31-2.84-11.91a5,5,0,0,0-.55-.33c4.61,3.15,4.32,6.67-1.06,9.79s-4.91,1.89-7.27-2.1c-2.23-3.79-.86-5.79-.72-6C37.37,127.92,36.92,132.22,39.48,136.24Z" transform="translate(0 4.86)"/><path class="cls-56" d="M39.71,125.7c-.14.2-1.51,2.2.72,6,0,.08.1.16.14.24.88.92,2,1.58,2.83,1.2,1.56-.69,7.68-10.22,2.54-9.47l-.14,0-2.48.41-1.1.24A5.56,5.56,0,0,0,39.71,125.7Z" transform="translate(0 4.86)"/><path class="cls-57" d="M.3,158.1c-2.14-5,7.66-14.62,12.69-14.6,6.57,0,12.83,11.27,11.2,14.6S2.5,163.28.3,158.1Z" transform="translate(0 4.86)"/><path class="cls-38" d="M.3,158.1c2.2,5.18,22.26,3.33,23.89,0S19.56,143.52,13,143.5c3.66.45,7.37,4.35,4.47,6.87s-13.8,6.1-14.56,5,2.37-7.74,2.44-7.88C1.82,150.76-.94,155.18.3,158.1Z" transform="translate(0 4.86)"/><path class="cls-58" d="M6.15,152.88c2.64-1.13,9.68-8.53,7.24-9.31l-.33-.06h-.2a5.78,5.78,0,0,0-.7.08l-.53.12a15.3,15.3,0,0,0-5.48,3.11C4.41,149.67,3.07,154.2,6.15,152.88Z" transform="translate(0 4.86)"/><path class="cls-59" d="M28.8,158.53c-.69-2.71.85-8.23,3.47-8.16s8.93,6.24,8.08,8.72S29.23,160.23,28.8,158.53Z" transform="translate(0 4.86)"/><path class="cls-38" d="M28.8,158.53c.43,1.7,10.7,3,11.55.56.51-1.48-1.54-4.28-3.83-6.3.45,1,.76,2.16,1.22,3.21.92,2.08-3.65.85-6.29-.39A2.62,2.62,0,0,1,30,152,9.87,9.87,0,0,0,28.8,158.53Z" transform="translate(0 4.86)"/><path class="cls-60" d="M30,152a2.67,2.67,0,0,0,.35,2.74l1.14.86c3.21.58,4.15-.73,2.45-3.2a22,22,0,0,0-1.51-2l-.12,0c-1.42,0-2.53,1.58-3.13,3.5A10.89,10.89,0,0,1,30,152Z" transform="translate(0 4.86)"/><path class="cls-61" d="M149.22,165.64c-4.73-1.39-.95-12.29,2.36-13.52s14.27,8.13,13.13,11.25S155.66,167.53,149.22,165.64Z" transform="translate(0 4.86)"/><path class="cls-38" d="M159.8,159.3c-1.37,1.94-7.75,3.79-10.58,2-2.26-1.41-1.26-4.34-.77-5.46-1.75,3.69-2.39,8.84.77,9.77,6.44,1.89,14.36.85,15.49-2.27.9-2.45-5.68-8.74-10.15-10.73C157,154.22,160.84,157.84,159.8,159.3Z" transform="translate(0 4.86)"/><path class="cls-62" d="M156.26,157.11c2.47.82,3,.16,2.42-.88a20.4,20.4,0,0,0-4.12-3.59,4.38,4.38,0,0,0-3-.52,3.51,3.51,0,0,0-1.09.74C148.74,155,151.8,155.62,156.26,157.11Z" transform="translate(0 4.86)"/></g></g></g></svg>