<svg xmlns="http://www.w3.org/2000/svg" xmlns:xlink="http://www.w3.org/1999/xlink" viewBox="0 0 169.34 173.85"><defs><style>.cls-1{fill:none;}.cls-2{isolation:isolate;}.cls-3{fill:#5e3b5e;}.cls-10,.cls-11,.cls-15,.cls-16,.cls-17,.cls-19,.cls-22,.cls-23,.cls-24,.cls-25,.cls-37,.cls-38,.cls-39,.cls-4,.cls-40,.cls-6{opacity:0.39;}.cls-10,.cls-11,.cls-13,.cls-15,.cls-16,.cls-17,.cls-18,.cls-19,.cls-22,.cls-23,.cls-24,.cls-25,.cls-30,.cls-37,.cls-38,.cls-39,.cls-4,.cls-40,.cls-6{mix-blend-mode:multiply;}.cls-4{fill:url(#linear-gradient);}.cls-12,.cls-21,.cls-29,.cls-35,.cls-36,.cls-41,.cls-42,.cls-43,.cls-5,.cls-7,.cls-8,.cls-9{opacity:0.36;mix-blend-mode:screen;}.cls-5{fill:url(#linear-gradient-2);}.cls-13,.cls-18,.cls-6{fill:#900040;}.cls-7{fill:url(#linear-gradient-3);}.cls-8{fill:url(#linear-gradient-4);}.cls-9{fill:url(#linear-gradient-5);}.cls-10{fill:url(#linear-gradient-6);}.cls-11{fill:url(#linear-gradient-7);}.cls-12{fill:url(#linear-gradient-8);}.cls-13{opacity:0.47;}.cls-14{fill:url(#linear-gradient-9);}.cls-15{fill:url(#linear-gradient-10);}.cls-16{fill:url(#linear-gradient-11);}.cls-17{fill:url(#linear-gradient-12);}.cls-18{opacity:0.18;}.cls-19{fill:url(#linear-gradient-13);}.cls-20{fill:#401f15;}.cls-21{fill:url(#linear-gradient-14);}.cls-22{fill:url(#linear-gradient-15);}.cls-23{fill:url(#linear-gradient-16);}.cls-24{fill:url(#linear-gradient-17);}.cls-25{fill:url(#linear-gradient-18);}.cls-26{clip-path:url(#clip-path);}.cls-27{fill:url(#linear-gradient-19);}.cls-28{fill:url(#linear-gradient-20);}.cls-29{fill:url(#linear-gradient-21);}.cls-30{fill:#8486ea;opacity:0.63;}.cls-31{fill:#fff;}.cls-32{clip-path:url(#clip-path-2);}.cls-33{fill:url(#linear-gradient-22);}.cls-34{fill:url(#linear-gradient-23);}.cls-35{fill:url(#linear-gradient-24);}.cls-36{fill:url(#linear-gradient-25);}.cls-37{fill:url(#linear-gradient-26);}.cls-38{fill:url(#linear-gradient-27);}.cls-39{fill:url(#linear-gradient-28);}.cls-40{fill:url(#linear-gradient-29);}.cls-41{fill:url(#linear-gradient-30);}.cls-42{fill:url(#linear-gradient-31);}.cls-43{fill:#ffffb1;}</style><linearGradient id="linear-gradient" x1="83.01" y1="184.43" x2="83.01" y2="128.09" gradientUnits="userSpaceOnUse"><stop offset="0" stop-color="#fff"/><stop offset="0.16" stop-color="#e8cad7"/><stop offset="0.39" stop-color="#c983a2"/><stop offset="0.6" stop-color="#b14b78"/><stop offset="0.78" stop-color="#9f225a"/><stop offset="0.92" stop-color="#940947"/><stop offset="1" stop-color="#900040"/></linearGradient><linearGradient id="linear-gradient-2" x1="58.86" y1="126.45" x2="89.33" y2="156.92" gradientUnits="userSpaceOnUse"><stop offset="0" stop-color="#b568ff"/><stop offset="0.09" stop-color="#ae64f5"/><stop offset="0.23" stop-color="#9a59da"/><stop offset="0.42" stop-color="#7b47ad"/><stop offset="0.64" stop-color="#4f2e70"/><stop offset="0.9" stop-color="#180e22"/><stop offset="1"/></linearGradient><linearGradient id="linear-gradient-3" x1="84.87" y1="135.06" x2="108.62" y2="158.81" xlink:href="#linear-gradient-2"/><linearGradient id="linear-gradient-4" x1="33.49" y1="118.15" x2="70.39" y2="155.04" xlink:href="#linear-gradient-2"/><linearGradient id="linear-gradient-5" x1="106.3" y1="136.7" x2="123.55" y2="153.95" xlink:href="#linear-gradient-2"/><linearGradient id="linear-gradient-6" x1="25.21" y1="134.53" x2="141.42" y2="134.53" gradientUnits="userSpaceOnUse"><stop offset="0" stop-color="#900040"/><stop offset="0.2" stop-color="#a9386a"/><stop offset="0.6" stop-color="#d7a2b9"/><stop offset="0.87" stop-color="#f4e5ec"/><stop offset="1" stop-color="#fff"/></linearGradient><linearGradient id="linear-gradient-7" x1="86.55" y1="184.43" x2="86.55" y2="128.09" gradientUnits="userSpaceOnUse"><stop offset="0" stop-color="#fff"/><stop offset="1" stop-color="#900040"/></linearGradient><linearGradient id="linear-gradient-8" x1="31.48" y1="146.6" x2="79.36" y2="146.6" xlink:href="#linear-gradient-2"/><linearGradient id="linear-gradient-9" x1="42.42" y1="36.29" x2="120.18" y2="140.07" gradientUnits="userSpaceOnUse"><stop offset="0" stop-color="#f28049"/><stop offset="1" stop-color="#a42e3b"/></linearGradient><linearGradient id="linear-gradient-10" x1="63.25" y1="76.46" x2="83.48" y2="103.45" xlink:href="#linear-gradient-6"/><linearGradient id="linear-gradient-11" x1="93.5" y1="96.69" x2="93.5" y2="71.88" gradientUnits="userSpaceOnUse"><stop offset="0.13" stop-color="#fff"/><stop offset="0.25" stop-color="#f4e5ec"/><stop offset="0.48" stop-color="#d7a2b9"/><stop offset="0.83" stop-color="#a9386a"/><stop offset="1" stop-color="#900040"/></linearGradient><linearGradient id="linear-gradient-12" x1="100.78" y1="76.42" x2="121.84" y2="104.53" xlink:href="#linear-gradient-6"/><linearGradient id="linear-gradient-13" x1="80.14" y1="80.43" x2="102.97" y2="143.8" xlink:href="#linear-gradient-6"/><linearGradient id="linear-gradient-14" x1="35.6" y1="18.08" x2="55.14" y2="44.16" gradientUnits="userSpaceOnUse"><stop offset="0" stop-color="#ffffb1"/><stop offset="0.11" stop-color="#d4d493"/><stop offset="0.3" stop-color="#959567"/><stop offset="0.47" stop-color="#606042"/><stop offset="0.64" stop-color="#363626"/><stop offset="0.78" stop-color="#181811"/><stop offset="0.91" stop-color="#060604"/><stop offset="1"/></linearGradient><linearGradient id="linear-gradient-15" x1="48.53" y1="92.53" x2="54.14" y2="100.01" xlink:href="#linear-gradient-6"/><linearGradient id="linear-gradient-16" x1="125.42" y1="94.4" x2="128.37" y2="98.35" xlink:href="#linear-gradient-6"/><linearGradient id="linear-gradient-17" x1="59.64" y1="60.11" x2="80.09" y2="87.4" xlink:href="#linear-gradient-6"/><linearGradient id="linear-gradient-18" x1="89.57" y1="58.03" x2="112.21" y2="88.25" xlink:href="#linear-gradient-6"/><clipPath id="clip-path"><path class="cls-1" d="M72.69,71.79c17.56-.73,22.59,23.48,12.7,30.71S59,107.67,55.12,97A19.2,19.2,0,0,1,72.69,71.79Z"/></clipPath><linearGradient id="linear-gradient-19" x1="74.57" y1="108.1" x2="68.17" y2="60.51" gradientUnits="userSpaceOnUse"><stop offset="0" stop-color="#fff"/><stop offset="0.14" stop-color="#f8f8fc"/><stop offset="0.36" stop-color="#e3e5f2"/><stop offset="0.61" stop-color="#c2c6e3"/><stop offset="0.9" stop-color="#949bcd"/><stop offset="1" stop-color="#838bc5"/></linearGradient><linearGradient id="linear-gradient-20" x1="212.63" y1="172.17" x2="212.63" y2="142.58" gradientTransform="matrix(1.06, 0.17, -0.33, 0.89, -101.5, -89.93)" gradientUnits="userSpaceOnUse"><stop offset="0" stop-color="#006cff"/><stop offset="0.05" stop-color="#0063eb"/><stop offset="0.2" stop-color="#0049ae"/><stop offset="0.35" stop-color="#003379"/><stop offset="0.5" stop-color="#00214d"/><stop offset="0.64" stop-color="#00122c"/><stop offset="0.77" stop-color="#000814"/><stop offset="0.9" stop-color="#000205"/><stop offset="1"/></linearGradient><linearGradient id="linear-gradient-21" x1="75.45" y1="64.73" x2="60.14" y2="38.21" gradientTransform="matrix(0.07, 1, -0.76, 0.05, 108.86, 27.59)" gradientUnits="userSpaceOnUse"><stop offset="0"/><stop offset="0.1" stop-color="#222218"/><stop offset="0.36" stop-color="#70704e"/><stop offset="0.58" stop-color="#adad78"/><stop offset="0.77" stop-color="#dada97"/><stop offset="0.91" stop-color="#f5f5aa"/><stop offset="1" stop-color="#ffffb1"/></linearGradient><clipPath id="clip-path-2"><path class="cls-1" d="M99,78.88c-1.42,6.89-1.33,25,10.78,27.16s19.33-4.46,15.64-16.77S102.07,63.82,99,78.88Z"/></clipPath><linearGradient id="linear-gradient-22" x1="114.61" y1="108.08" x2="108.12" y2="59.79" xlink:href="#linear-gradient-19"/><linearGradient id="linear-gradient-23" x1="243.78" y1="166.32" x2="243.78" y2="136.74" xlink:href="#linear-gradient-20"/><linearGradient id="linear-gradient-24" x1="76.87" y1="15.36" x2="63.91" y2="-7.09" xlink:href="#linear-gradient-21"/><linearGradient id="linear-gradient-25" x1="59.86" y1="40.79" x2="69.01" y2="57.73" gradientUnits="userSpaceOnUse"><stop offset="0" stop-color="#ffffb1"/><stop offset="0.08" stop-color="#dbdb98"/><stop offset="0.22" stop-color="#a2a270"/><stop offset="0.36" stop-color="#70704e"/><stop offset="0.5" stop-color="#484832"/><stop offset="0.64" stop-color="#29291c"/><stop offset="0.77" stop-color="#12120d"/><stop offset="0.89" stop-color="#050503"/><stop offset="1"/></linearGradient><linearGradient id="linear-gradient-26" x1="20.45" y1="36.71" x2="50.44" y2="92.24" gradientUnits="userSpaceOnUse"><stop offset="0" stop-color="#fff"/><stop offset="0.13" stop-color="#f4e5ec"/><stop offset="0.4" stop-color="#d7a2b9"/><stop offset="0.8" stop-color="#a9386a"/><stop offset="1" stop-color="#900040"/></linearGradient><linearGradient id="linear-gradient-27" x1="41.21" y1="25.49" x2="71.2" y2="81.02" xlink:href="#linear-gradient-26"/><linearGradient id="linear-gradient-28" x1="67.24" y1="11.43" x2="97.24" y2="66.96" xlink:href="#linear-gradient-26"/><linearGradient id="linear-gradient-29" x1="133.86" y1="121.2" x2="133.86" y2="78.09" xlink:href="#linear-gradient-26"/><linearGradient id="linear-gradient-30" x1="23.01" y1="36.22" x2="38.84" y2="57.35" xlink:href="#linear-gradient-25"/><linearGradient id="linear-gradient-31" x1="61.62" y1="-4.56" x2="85.23" y2="26.95" xlink:href="#linear-gradient-25"/></defs><g class="cls-2"><g id="Слой_2" data-name="Слой 2"><g id="Layer_2" data-name="Layer 2"><path class="cls-3" d="M25.21,120.41s14.56,20.08,22.43,42.91c0,0,45.23,21.82,77.56,2.63,0,0,1.57-22.31,14.17-40.81s-36.61-29.92-36.61-29.92Z"/><path class="cls-4" d="M62.33,110.38c-12.38.05-21.41.34-21.41.34l.92,10.68s9.75,28.21,17.95,37.68c1.78-9.85-7.62-40.19-7.62-40.19H69s3.91,29.66,8.58,41.89C80.47,150.39,81,128,81,128l5.62,0s-.22.95.4,8.27C87.58,129,88.1,128,88.1,128l5.62,0s.62,24.44,4.33,34.44c4.06-10.12,5.64-35.07,5.64-35.07l5.91,1.18s-2.26-.69-2,8.81c3.15-11.47,3.15-10,3.15-10l5.9,1.18s-2.74,16.08-3.19,26.39c5.24-10.75,11.61-28.9,11.61-36.13C125.1,111.93,89.11,110.49,62.33,110.38Z"/><path class="cls-5" d="M69,118.89H66.42c1.69,8.6,8.83,43.54,14.11,46.83C74.68,162,69,118.89,69,118.89Z"/><path class="cls-6" d="M82.19,165.69c4.69-3.09,7.46-30.81,8.07-37.63l-2.16,0S87.27,162.24,82.19,165.69Z"/><path class="cls-7" d="M93.72,128.08H91.87c.46,5.59,3.22,36.18,9,38.51C94.63,164.05,93.72,128.08,93.72,128.08Z"/><path class="cls-8" d="M41.84,121.4l-.92-10.68-2.45,9.94s16.2,38.4,25,41.31C54.86,159.08,41.84,121.4,41.84,121.4Z"/><path class="cls-9" d="M116.68,128.63l-1.93-.39c-.44,4.32-3.15,31.81-.43,34.93C111.37,159.78,116.68,128.63,116.68,128.63Z"/><path class="cls-6" d="M102.1,166.63c5.83-1.86,10.23-32.59,11.05-38.71l-2.37-.47S108.42,164.57,102.1,166.63Z"/><path class="cls-6" d="M131.27,117.08a2.51,2.51,0,0,1,.91,1.81c0,11.07-14.91,47.68-17.86,44.28,3,3.4,19.64-32,19.64-43.1C134,118.94,133,118,131.27,117.08Z"/><path class="cls-10" d="M139.37,125.14a15.42,15.42,0,0,0,.89-1.53l.18-.36a11.65,11.65,0,0,0,.58-1.46c0-.06,0-.13,0-.19a11.59,11.59,0,0,0,.26-1.25c0-.14,0-.27,0-.41a9.41,9.41,0,0,0,0-1.3c0-.13,0-.26,0-.4,0-.31-.08-.63-.15-.94,0-.16-.07-.33-.11-.5a11.18,11.18,0,0,0-.38-1.11c-.08-.2-.18-.4-.27-.59s-.2-.41-.32-.62a12.44,12.44,0,0,0-.79-1.26c-.07-.09-.13-.19-.2-.29-.19-.26-.39-.51-.61-.76a2.09,2.09,0,0,0-.24-.28c-9.18-10.55-35.54-16.67-35.54-16.67L25.21,120.41s2.64,3.65,6.27,9.57c8.31.05,12.7-2.2,12.7-2.2,1.27,3.27,2.87,7.47,9.57,8.84S64,132.1,64,132.1s15,14.76,41.73,14.17a52.33,52.33,0,0,0,7.89-.74c-.58,5.1-2.61,20.82-5.63,23.89-3.6,3.68-36.41,6.48-62.49-11.92.74,1.91,1.48,3.85,2.16,5.82,0,0,45.23,21.82,77.56,2.63a96.23,96.23,0,0,1,9.49-32.85c.66-1.31,1.38-2.63,2.14-3.93l.08-.13C137.68,127.72,138.49,126.42,139.37,125.14Z"/><path class="cls-11" d="M41.84,121.4s13.87,40.15,22.44,40.74-4.63-42-4.63-42L69,118.89s6,46,12.11,47.06,7-37.91,7-37.91l5.62,0s1,38.34,7.76,38.64,9.3-39.27,9.3-39.27l5.9,1.18s-5.31,31.15-2.36,34.54,17.86-33.21,17.86-44.28-91.26-8.17-91.26-8.17Z"/><path class="cls-12" d="M79.36,164.47C76.59,160.37,74,148.55,72,138a5.16,5.16,0,0,1-.63-.47A43.75,43.75,0,0,1,64,132.1a10.61,10.61,0,0,1-.78,1c3.2,12.74,6.37,29.37,1.08,29-6.4-.44-15.76-22.95-20.09-34.32,0,0-4.4,2.21-12.71,2.16a200.94,200.94,0,0,1,10.07,18.57S54.61,170,79.36,164.47Z"/><path class="cls-13" d="M65.64,161.74c5.14-3.92-2-35.36-3.77-42.85H59.26S71.18,157.37,65.64,161.74Z"/><path class="cls-14" d="M46.07,42.46S38.59,7.43,70.48.74,128.35,34.59,115.75,57c0,0,6.84-5.9,11.81,0,5.63,6.69-2.36,13.39-2.36,13.39s19.68-10,35-1,11.42,44.68-12.79,42.12c0,0,7.48,8.07.79,15.16s-15.75.59-18.11-3.35c0,0,1.18,16.14-25.59,16.73S62.8,125.92,62.8,125.92s-3.54,5.91-10.23,4.53-8-5.51-7.26-8.66c0,0-24.83,7.68-38.21-6.89S1,87,14.58,85.18c0,0-14.57-6.89-10.83-22.44s14.57-7.28,14.57-7.28S12.21,44,22.06,37.94,46.07,42.46,46.07,42.46Z"/><path class="cls-15" d="M54.1,92s.29-20.67,16.82-23.77,20.67,17,20.22,25.1S83,108.85,71.07,108,54,98.07,54.1,92Z"/><path class="cls-16" d="M85.63,83.9s5.42-25.19,13.78-2.65S86.55,95,86.55,95Z"/><path class="cls-17" d="M98.35,92.56s-2.2-16.61,2-20.78C107,65.13,121.55,75.53,125,88s.3,17.76-5.9,20S101.72,108,98.35,92.56Z"/><path class="cls-18" d="M17.33,69.84c-3.07,3,13.29,12.58,16.24,9.33S21.76,65.52,17.33,69.84Z"/><path class="cls-18" d="M37.7,76.22C33.66,76.48,29,69.67,34,70S39.15,76.13,37.7,76.22Z"/><path class="cls-18" d="M77.27,27.51c-4.88,2.13,3,7.08,6,7.38S82,25.44,77.27,27.51Z"/><path class="cls-18" d="M100.89,39.91c-3.35-3.79,9.15-6.5,10-1.78S105.32,44.93,100.89,39.91Z"/><path class="cls-18" d="M77,9.2c.15,9.32,25.1,24.81,32.78,21.86S76.68-9.11,77,9.2Z"/><path class="cls-19" d="M14.58,85.18C1,87-6.29,100.33,7.1,114.9s38.21,6.89,38.21,6.89c-.77,3.15.56,7.28,7.26,8.66s10.23-4.53,10.23-4.53,15,14.76,41.73,14.17,25.59-16.73,25.59-16.73c2.36,3.94,11.41,10.44,18.11,3.35s-.79-15.16-.79-15.16c24.21,2.56,28.15-33.06,12.79-42.12-10.78-6.36-23.68-3.3-30.41-.92,7.79.6,15.77,2.85,21,9.09,4.68,5.64,6.64,13.74,3.29,20.53a15.83,15.83,0,0,1-12,8.56,9.73,9.73,0,0,1-2.52,7.3c-3.2,3.45-8.17,3.67-12.36,2.09a27,27,0,0,1-23.95,14c-8.6-.2-19.61-5.37-22.16-14A18.1,18.1,0,0,1,57.82,109a7.55,7.55,0,0,1-10-3.09,25.39,25.39,0,0,1-8.19,5.42c-5.33,2.12-11.7,2-16.39-1.59-4.33-3.29-6.86-9.13-4.76-14.41a11.36,11.36,0,0,1,6-6.23,11.37,11.37,0,0,1-.39-6.92A24.24,24.24,0,0,1,6,72.86a21.71,21.71,0,0,1-2.87-5.18C3.15,79.75,14.58,85.18,14.58,85.18Z"/><path class="cls-20" d="M92.65,102.06s8.83,24,6.51,2.08c0,0,2.78,10.4.17,11.3S94.11,109.25,92.65,102.06Z"/><path class="cls-21" d="M5.63,64.82C9.37,49.27,20.2,57.53,20.2,57.53S14.1,46.12,23.94,40s24,4.52,24,4.52-7.48-35,24.41-41.73C86,0,98.54,5.74,107.46,15c-9-10.5-22.36-17.37-37-14.3C38.59,7.43,46.07,42.46,46.07,42.46s-14.17-10.62-24-4.52-3.74,17.52-3.74,17.52S7.49,47.19,3.75,62.74a18.53,18.53,0,0,0,5.4,18.51A18.26,18.26,0,0,1,5.63,64.82Z"/><path class="cls-22" d="M47.64,98.37s.62-7.31,9.4,2.36l.52-3.18S46.73,87.44,47.64,98.37Z"/><path class="cls-23" d="M125.1,100.51s5.76-11.08,7.45-3.77c0,0,.15-9.18-6.71-1.52S125.1,100.51,125.1,100.51Z"/><path class="cls-24" d="M55.3,83.9A73.77,73.77,0,0,1,65.75,62.15c8-11.61,13.6-7.28,14.28-3.54S92.2,83.15,91,89.25,55.3,83.9,55.3,83.9Z"/><path class="cls-25" d="M98.7,91s-2.31-26.12-2.15-31.24,5.52-2.37,10.34,2.36,17,18.8,18.21,26.4S98.7,91,98.7,91Z"/><g class="cls-26"><path class="cls-27" d="M72.69,71.79c17.56-.73,22.59,23.48,12.7,30.71S59,107.67,55.12,97A19.2,19.2,0,0,1,72.69,71.79Z"/><path class="cls-28" d="M86,88.17c-.34,8.08-7.41,13.3-15.52,11.29-7.84-2-13.11-9.85-12-17.32,1-7.09,7.46-11.49,14.62-10.11A16.23,16.23,0,0,1,86,88.17Z"/><path class="cls-29" d="M62.31,100.33c-1.79-9.17,8.4-18.13,16.61-14a15.12,15.12,0,0,1,8.23,16.11C86.7,105.43,65.46,116.47,62.31,100.33Z"/><path class="cls-30" d="M54.22,96.92s1.36-11.57,11.43-15.78c14.49-6,26,5.22,22.87,17.72-4,15.82,24.61-17.47,24.61-17.47S106,69.25,101.84,69.61s-45.44-2-45.44-2S36.68,89.71,38.17,92.3,54.22,96.92,54.22,96.92Z"/><path class="cls-31" d="M61.69,78.1c2.25-3.75,8.53,5.57,5.74,6.29S58.24,83.86,61.69,78.1Z"/></g><g class="cls-32"><path class="cls-33" d="M99,78.88c-1.42,6.89-1.33,25,10.78,27.16s19.33-4.46,15.64-16.77S102.07,63.82,99,78.88Z"/><path class="cls-34" d="M118,88.17c-.28,8.08-5.8,13.3-12.15,11.29-6.13-2-10.25-9.85-9.41-17.32.8-7.09,5.84-11.49,11.44-10.11C113.63,73.44,118.23,80.52,118,88.17Z"/><path class="cls-35" d="M101.19,100.61c-1.41-9.17,5.8-16.42,13-14,4,1.34,7.42,7.76,6.43,16.1C120.27,105.7,103.65,116.75,101.19,100.61Z"/><path class="cls-30" d="M101.44,99.88s-4.09-12,2.84-18.49c9.38-8.78,24.66,8.71,21.57,17.62-5.27,15.22,13.32-17.62,13.32-17.62s-5.57-12.14-8.83-11.78-35.55-2-35.55-2S79.37,89.71,80.53,92.3,101.44,99.88,101.44,99.88Z"/><path class="cls-31" d="M100.88,77.61c1.77-3.75,6.68,5.57,4.5,6.29S98.18,83.37,100.88,77.61Z"/></g><path class="cls-20" d="M65.75,62.15S75.21,49.94,80,58.61C80,58.61,77.76,41.28,65.75,62.15Z"/><path class="cls-20" d="M96.55,59.79s.5-6.11,10.34,2.36C106.89,62.15,93.88,46.12,96.55,59.79Z"/><path class="cls-36" d="M42.13,67.93S38.74,45.79,57.56,50.68c0,0-3.17-7.13,4.65-10.06s6.05,6.22,6.05,6.22,4.76-9.3,28.29,1.92a25.13,25.13,0,0,0-27.33,4.43S61.77,44.58,60.59,57C60.59,57,45.82,49.6,42.13,67.93Z"/><path class="cls-37" d="M42.2,60.09c-3.86,1.36-9.88,1.26-19.26-1.88,0,0,9,3.64,7.83,9.72,0,0,7.24-4.18,8.83.94,0-1.19.42-2.37,2.44-1.73A29.18,29.18,0,0,1,42.2,60.09Z"/><path class="cls-38" d="M57.56,50.68a8.23,8.23,0,0,1-.05-6.06,23.29,23.29,0,0,1-9,1.49,17.54,17.54,0,0,1,.32,4.48C51,49.82,53.83,49.71,57.56,50.68Z"/><path class="cls-39" d="M114.91,58.21S106.07,57,90.26,33.85c0,0,4,15.21-19.78,3.55S56,21.31,56,21.31s-13.58,1.47,5,16.53a5.07,5.07,0,0,1,.11,3.26,10.71,10.71,0,0,1,1.07-.48c7.82-2.93,6.05,6.22,6.05,6.22S73,37.7,96,48.51l.55.25s6.9,3.1,14.46,10.93c0,0,7,7.82,7,13.13,0,0,0-4.31,6.13-1C124.14,71.78,108.47,61.94,114.91,58.21Z"/><path class="cls-18" d="M130.12,121.2s1.18,16.15-25.59,16.74S62.8,123.76,62.8,123.76s-3.54,5.91-10.23,4.53c-4.92-1-6.93-3.51-7.36-6-.51,3.08,1,6.86,7.36,8.17,6.69,1.38,10.23-4.53,10.23-4.53s15,14.76,41.73,14.17,25.59-16.73,25.59-16.73c2.36,3.94,11.41,10.44,18.11,3.35a9.31,9.31,0,0,0,2.71-7.66,9.59,9.59,0,0,1-2.71,5.5C141.53,131.64,132.48,125.14,130.12,121.2Z"/><path class="cls-18" d="M45.31,119.63s-24.83,7.68-38.21-6.89c-4.58-5-6.74-9.82-7.06-14.11-.34,4.79,1.69,10.43,7.06,16.27,12.8,13.93,36.05,7.52,38.05,6.93A6.72,6.72,0,0,1,45.31,119.63Z"/><path class="cls-40" d="M126.36,103.53s4,3.9,3.76,17.67c0,0,2.95-16.68,10.23-14.74s0-.81,0-.81-8.47-13.78,1.08-27.56c0,0-3.82,8.37-17.29,1.75,0,0,9.87,5.63,8.41,16.9S126.36,103.53,126.36,103.53Z"/><path class="cls-18" d="M78.6,28.1c-2.69.39,1.87,4.23,3.29,4S82,27.6,78.6,28.1Z"/><path class="cls-18" d="M101.54,39c-1.46-.95,3.13-3.88,6.14-2.71S108,43.15,101.54,39Z"/><path class="cls-18" d="M24.71,73.11c.56-2,7.06.77,7.86,3.12S23.38,78,24.71,73.11Z"/><path class="cls-18" d="M32.57,72.82c-1.12-1.57.89-3.29,3.12-1.81S35.26,76.61,32.57,72.82Z"/><path class="cls-41" d="M36.52,53.68c14.08-4.54,6.71-13,2.16-15.37-4.91-2.12-11.37-3.63-16.62-.37a11,11,0,0,0-5.59,10.28C16.7,48.71,21.64,58.48,36.52,53.68Z"/><path class="cls-42" d="M70.48.74C61.64,2.59,55.84,6.63,52.05,11.49l-.64.86c-.32.45-.63.9-.92,1.36-.82,2.21-.07,5.45,9.06,7.6,0,0-9,1.49-2,5.91s32.7-4.64,17.25-10.84c0,0-10.63-22.85,24.55-8.87C91.22,1.58,81.18-1.51,70.48.74Z"/><path class="cls-43" d="M24.86,41.9c.76-1.24,10.7-3.77,12.33-.52S23.46,44.19,24.86,41.9Z"/><path class="cls-43" d="M45.75,55.48c.76-1.84,5-5.25,7.27-3.62S45.19,56.84,45.75,55.48Z"/><path class="cls-43" d="M59.11,46c-1.16-.39,1-3.62,1.77-3.54S61,46.58,59.11,46Z"/><path class="cls-18" d="M47.59,102.55c-.73-1.06,1.53-3.4,2.47-1.58S48.91,104.47,47.59,102.55Z"/><path class="cls-18" d="M51,99.89c-1-1,1.9-2.71,2.39-1.26A1.37,1.37,0,0,1,51,99.89Z"/><path class="cls-18" d="M52.09,105.5c-1.84-1.23,1.46-4.53,3-3.1S54.53,107.12,52.09,105.5Z"/><path class="cls-18" d="M126.94,101.17c-.7-.11.19-2.73,1.15-2.25S127.65,101.28,126.94,101.17Z"/><path class="cls-18" d="M129.9,97.74c-.87-.22,0-2.94.88-2.52S131.19,98.07,129.9,97.74Z"/><path class="cls-18" d="M129.34,101.39c-.77-.26-.55-2.81.81-2.53S130.3,101.72,129.34,101.39Z"/></g></g></g></svg>