<svg xmlns="http://www.w3.org/2000/svg" xmlns:xlink="http://www.w3.org/1999/xlink" viewBox="0 0 176.1 145.06"><defs><style>.cls-1{fill:none;}.cls-2{isolation:isolate;}.cls-3{fill:url(#linear-gradient);}.cls-22,.cls-24,.cls-25,.cls-26,.cls-35,.cls-4,.cls-5,.cls-6,.cls-7,.cls-8{opacity:0.39;}.cls-13,.cls-22,.cls-23,.cls-24,.cls-25,.cls-26,.cls-27,.cls-28,.cls-29,.cls-34,.cls-35,.cls-4,.cls-5,.cls-6,.cls-7,.cls-8{mix-blend-mode:multiply;}.cls-4{fill:url(#linear-gradient-2);}.cls-5{fill:url(#linear-gradient-3);}.cls-6{fill:url(#linear-gradient-4);}.cls-7{fill:url(#linear-gradient-5);}.cls-8{fill:url(#linear-gradient-6);}.cls-9{clip-path:url(#clip-path);}.cls-10{fill:url(#linear-gradient-7);}.cls-11{fill:url(#linear-gradient-8);}.cls-12,.cls-18,.cls-20,.cls-21,.cls-23,.cls-30,.cls-31,.cls-32,.cls-33{opacity:0.36;}.cls-12,.cls-18,.cls-20,.cls-21,.cls-30,.cls-31,.cls-32,.cls-33{mix-blend-mode:screen;}.cls-12{fill:url(#linear-gradient-9);}.cls-13{fill:#8486ea;opacity:0.63;}.cls-14{fill:#fff;}.cls-15{clip-path:url(#clip-path-2);}.cls-16{fill:url(#linear-gradient-10);}.cls-17{fill:url(#linear-gradient-11);}.cls-18{fill:url(#linear-gradient-12);}.cls-19{fill:#401f15;}.cls-20{fill:url(#linear-gradient-13);}.cls-21{fill:url(#linear-gradient-14);}.cls-22{fill:url(#linear-gradient-15);}.cls-23,.cls-34{fill:#900040;}.cls-24{fill:url(#linear-gradient-16);}.cls-25{fill:url(#linear-gradient-17);}.cls-26{fill:url(#linear-gradient-18);}.cls-27,.cls-28,.cls-29{opacity:0.17;}.cls-27{fill:url(#linear-gradient-19);}.cls-28{fill:url(#linear-gradient-20);}.cls-29{fill:url(#linear-gradient-21);}.cls-30{fill:url(#linear-gradient-22);}.cls-31{fill:url(#linear-gradient-23);}.cls-32{fill:url(#linear-gradient-24);}.cls-33{fill:#ffffb1;}.cls-34{opacity:0.18;}.cls-35{fill:url(#linear-gradient-25);}</style><linearGradient id="linear-gradient" x1="33.44" y1="28.93" x2="140.65" y2="126.42" gradientUnits="userSpaceOnUse"><stop offset="0" stop-color="#f28049"/><stop offset="0.4" stop-color="#cd5942"/><stop offset="0.79" stop-color="#af3a3d"/><stop offset="1" stop-color="#a42e3b"/></linearGradient><linearGradient id="linear-gradient-2" x1="65.66" y1="78.08" x2="65.66" y2="52.82" gradientTransform="translate(47.73 -0.01) rotate(6.51)" gradientUnits="userSpaceOnUse"><stop offset="0.13" stop-color="#fff"/><stop offset="0.25" stop-color="#f4e5ec"/><stop offset="0.48" stop-color="#d7a2b9"/><stop offset="0.83" stop-color="#a9386a"/><stop offset="1" stop-color="#900040"/></linearGradient><linearGradient id="linear-gradient-3" x1="73.52" y1="84.01" x2="73.52" y2="41.18" gradientUnits="userSpaceOnUse"><stop offset="0" stop-color="#fff"/><stop offset="0.12" stop-color="#f1dee6"/><stop offset="0.56" stop-color="#bd688e"/><stop offset="0.86" stop-color="#9d1d56"/><stop offset="1" stop-color="#900040"/></linearGradient><linearGradient id="linear-gradient-4" x1="126.42" y1="84.68" x2="126.42" y2="42.02" xlink:href="#linear-gradient-3"/><linearGradient id="linear-gradient-5" x1="64.59" y1="92.71" x2="64.59" y2="49.73" xlink:href="#linear-gradient-3"/><linearGradient id="linear-gradient-6" x1="130.91" y1="92.71" x2="130.91" y2="48.35" xlink:href="#linear-gradient-3"/><clipPath id="clip-path"><path class="cls-1" d="M40.56,76.08S53,64.66,91.86,92.71c0,0,11.82-22.24-1.81-34.47S51.18,50.83,40.56,76.08Z"/></clipPath><linearGradient id="linear-gradient-7" x1="71.69" y1="97.28" x2="63.73" y2="38.09" gradientUnits="userSpaceOnUse"><stop offset="0" stop-color="#fff"/><stop offset="0.14" stop-color="#f8f8fc"/><stop offset="0.36" stop-color="#e3e5f2"/><stop offset="0.61" stop-color="#c2c6e3"/><stop offset="0.9" stop-color="#949bcd"/><stop offset="1" stop-color="#838bc5"/></linearGradient><linearGradient id="linear-gradient-8" x1="190.72" y1="116.03" x2="190.72" y2="81.09" gradientTransform="matrix(1.06, 0.17, -0.33, 0.89, -95.46, -54.74)" gradientUnits="userSpaceOnUse"><stop offset="0" stop-color="#006cff"/><stop offset="0.05" stop-color="#0063eb"/><stop offset="0.2" stop-color="#0049ae"/><stop offset="0.35" stop-color="#003379"/><stop offset="0.5" stop-color="#00214d"/><stop offset="0.64" stop-color="#00122c"/><stop offset="0.77" stop-color="#000814"/><stop offset="0.9" stop-color="#000205"/><stop offset="1"/></linearGradient><linearGradient id="linear-gradient-9" x1="-124.67" y1="-249.96" x2="-141.73" y2="-279.51" gradientTransform="matrix(0.07, 1, -0.76, 0.05, -118.67, 230.67)" gradientUnits="userSpaceOnUse"><stop offset="0"/><stop offset="0.1" stop-color="#222218"/><stop offset="0.36" stop-color="#70704e"/><stop offset="0.58" stop-color="#adad78"/><stop offset="0.77" stop-color="#dada97"/><stop offset="0.91" stop-color="#f5f5aa"/><stop offset="1" stop-color="#ffffb1"/></linearGradient><clipPath id="clip-path-2"><path class="cls-1" d="M117.11,92.71s13.42-20.84,24.64-21.84c0,0-.8-15.23-10.42-20S105.48,72.27,117.11,92.71Z"/></clipPath><linearGradient id="linear-gradient-10" x1="129.81" y1="92.74" x2="122.36" y2="37.33" xlink:href="#linear-gradient-7"/><linearGradient id="linear-gradient-11" x1="232.76" y1="109.89" x2="232.76" y2="75.03" xlink:href="#linear-gradient-8"/><linearGradient id="linear-gradient-12" x1="-121.12" y1="-311.36" x2="-136.85" y2="-338.6" xlink:href="#linear-gradient-9"/><linearGradient id="linear-gradient-13" x1="137.75" y1="60.76" x2="142.71" y2="85.73" gradientUnits="userSpaceOnUse"><stop offset="0" stop-color="#ffffb1"/><stop offset="1"/></linearGradient><linearGradient id="linear-gradient-14" x1="-450.33" y1="64.95" x2="-445.37" y2="89.92" gradientTransform="matrix(-1, 0, 0, 1, -394.85, 0)" xlink:href="#linear-gradient-13"/><linearGradient id="linear-gradient-15" x1="91.57" y1="55.58" x2="96.38" y2="142.91" gradientUnits="userSpaceOnUse"><stop offset="0" stop-color="#900040"/><stop offset="1" stop-color="#fff"/></linearGradient><linearGradient id="linear-gradient-16" x1="23.19" y1="131.14" x2="23.19" y2="52.57" gradientUnits="userSpaceOnUse"><stop offset="0" stop-color="#900040"/><stop offset="0.05" stop-color="#9e1f58"/><stop offset="0.16" stop-color="#b4537e"/><stop offset="0.26" stop-color="#c881a1"/><stop offset="0.37" stop-color="#d9a8be"/><stop offset="0.48" stop-color="#e7c8d5"/><stop offset="0.59" stop-color="#f2e0e8"/><stop offset="0.72" stop-color="#f9f1f5"/><stop offset="0.84" stop-color="#fefcfd"/><stop offset="1" stop-color="#fff"/></linearGradient><linearGradient id="linear-gradient-17" x1="140.39" y1="145.4" x2="91.94" y2="40.17" gradientUnits="userSpaceOnUse"><stop offset="0" stop-color="#900040"/><stop offset="0.04" stop-color="#9d1e57"/><stop offset="0.1" stop-color="#b24d7a"/><stop offset="0.17" stop-color="#c4789a"/><stop offset="0.24" stop-color="#d49cb5"/><stop offset="0.32" stop-color="#e1bbcc"/><stop offset="0.4" stop-color="#ecd4df"/><stop offset="0.5" stop-color="#f5e7ed"/><stop offset="0.61" stop-color="#fbf5f7"/><stop offset="0.74" stop-color="#fefdfd"/><stop offset="1" stop-color="#fff"/></linearGradient><linearGradient id="linear-gradient-18" x1="161.49" y1="145.95" x2="47.83" y2="45.11" gradientUnits="userSpaceOnUse"><stop offset="0" stop-color="#900040"/><stop offset="0.12" stop-color="#a8376a"/><stop offset="0.24" stop-color="#bf6c91"/><stop offset="0.37" stop-color="#d399b3"/><stop offset="0.5" stop-color="#e3bece"/><stop offset="0.63" stop-color="#efdae4"/><stop offset="0.75" stop-color="#f8eff3"/><stop offset="0.88" stop-color="#fdfbfc"/><stop offset="1" stop-color="#fff"/></linearGradient><linearGradient id="linear-gradient-19" x1="139.3" y1="24.03" x2="-52.56" y2="24.03" xlink:href="#linear-gradient-15"/><linearGradient id="linear-gradient-20" x1="124.59" y1="13.23" x2="-72.81" y2="13.23" xlink:href="#linear-gradient-15"/><linearGradient id="linear-gradient-21" x1="127.76" y1="7.69" x2="-78.33" y2="7.69" xlink:href="#linear-gradient-15"/><linearGradient id="linear-gradient-22" x1="15.23" y1="24.32" x2="64.23" y2="68.87" gradientUnits="userSpaceOnUse"><stop offset="0.07" stop-color="#ffffb1"/><stop offset="0.23" stop-color="#bdbd83"/><stop offset="0.38" stop-color="#84845b"/><stop offset="0.53" stop-color="#54543b"/><stop offset="0.67" stop-color="#303021"/><stop offset="0.8" stop-color="#15150f"/><stop offset="0.91" stop-color="#060604"/><stop offset="1"/></linearGradient><linearGradient id="linear-gradient-23" x1="49.67" y1="-1.75" x2="95.92" y2="40.31" xlink:href="#linear-gradient-13"/><linearGradient id="linear-gradient-24" x1="61.59" y1="-2.02" x2="92.53" y2="26.12" xlink:href="#linear-gradient-13"/><linearGradient id="linear-gradient-25" x1="37.71" y1="131.14" x2="37.71" y2="52.57" xlink:href="#linear-gradient-16"/></defs><g class="cls-2"><g id="Слой_2" data-name="Слой 2"><g id="Layer_2" data-name="Layer 2"><path class="cls-3" d="M43,132.59s20.74,19.24,73.65,9.92,38.17-15,49.59-48.7S185.2,32,153.34,30.27c0,0,.3-6.19-8.72-15.21s-15.93-2.41-15.93-2.41.3-7.21-8.42-8.71-17.43,6.61-17.43,6.61,2.7-9.92-9-10.52S74.58,8.47,65.56,8.76,42.42,8.14,43,16.56c0,0-15.93-7.81-22.24,16.83,0,0-10.82-3.3-18.34,10.22S7,88.1,9.35,104.94,4.54,137.1,43,132.59Z"/><path class="cls-4" d="M95.52,70.94s9.84-24.69,18-.67-18,12-18,12Z"/><path class="cls-5" d="M48.07,63.82S56.79,51,81.64,45.52c0,0,17.71-10.75,17.33,1.6s-.09,26.08-3.34,35.07S48.07,63.82,48.07,63.82Z"/><path class="cls-6" d="M141.16,66.6s1.32-15.92-16.94-22.38c0,0-8.54-6.52-11.15,2.9s-1.14,32.12.72,36.89S141.16,66.6,141.16,66.6Z"/><path class="cls-7" d="M40.56,76.08s-1.61-5.51-9.42-2c0,0,8.51-7.21,9.42-.2,0,0,13.22-28.3,40.88-23.62s13,40.36,10.42,42.46l-16.64-26s-17.93,2.5-19,3.11S43.06,70,40.56,76.08Z"/><path class="cls-8" d="M117.11,92.71s-8-10.62-3-30,25.55-21.24,28.06,6.92c0,0,2.3-6.4,7.21,2.86,0,0-4.11-5.47-7.62-1.66C141.75,70.87,117.81,60.85,117.11,92.71Z"/><g class="cls-9"><path class="cls-10" d="M40.56,76.08S53,64.66,91.86,92.71c0,0,11.82-22.24-1.81-34.47S51.18,50.83,40.56,76.08Z"/><path class="cls-11" d="M89,68c-1.6,8.91-9.55,14.72-17.7,12.89s-13.26-10.5-11.54-19.3S69.31,47.25,77.31,49,90.61,59.18,89,68Z"/><path class="cls-12" d="M61,86.53c-1.22-10.06,10.81-20.71,19.18-16,4.45,2.49,8.58,8.37,6.21,17.32C84.32,95.72,63,102.9,61,86.53Z"/><path class="cls-13" d="M38.25,78.48S47.57,62.55,66.54,59c23.88-4.47,30.58,19.92,25.32,33.71-6.18,16.19,15.23-26.55,15.23-26.55s-7.48-20.26-12-19.81-50.84-2.5-50.84-2.5S20.45,71.67,22.16,74.64,38.25,78.48,38.25,78.48Z"/><path class="cls-14" d="M65.52,64.13C61.88,62.27,70,54,70.85,56.88S71,66.93,65.52,64.13Z"/></g><g class="cls-15"><path class="cls-16" d="M117.11,92.71s13.42-20.84,24.64-21.84c0,0-.8-15.23-10.42-20S105.48,72.27,117.11,92.71Z"/><path class="cls-17" d="M134.11,69.62c-1.43,8.91-8.56,14.72-15.88,12.89S106.33,72,107.88,63.2s8.55-14.35,15.72-12.64S135.53,60.78,134.11,69.62Z"/><path class="cls-18" d="M108.83,88.13c-1.1-10.06,9.69-20.71,17.21-16,4,2.49,7.87,8.42,5.57,17.32C130.81,92.48,110.61,104.5,108.83,88.13Z"/><path class="cls-13" d="M111.14,81.64s-6-14.18,9.6-21.9c11.3-5.6,24.45,5.56,19.73,19.35-5.55,16.18,25.42-19.88,25.42-19.88s-4-14.4-8-13.94-45.61-2.51-45.61-2.51S90.9,70.59,92.44,73.56,111.14,81.64,111.14,81.64Z"/><path class="cls-14" d="M122.6,56.38c4-3.58,2.14,6.53-.16,6.92S116.61,61.75,122.6,56.38Z"/></g><path class="cls-19" d="M81.64,45.52S97.07,38.1,99,47.12C99,47.12,102.38,31.39,81.64,45.52Z"/><path class="cls-19" d="M113.07,47.12s1.93-6.21,11.15-2.9C124.22,44.22,112.85,34.9,113.07,47.12Z"/><path class="cls-19" d="M111,95s-3.44,18.65-11.45-2.65C99.5,92.31,107.18,106.58,111,95Z"/><path class="cls-20" d="M127.24,84.07c1.34-4.27,16-16.55,27.44-9.3S123.84,94.89,127.24,84.07Z"/><path class="cls-21" d="M66,88.26C64.65,84,50,71.72,38.55,79S69.38,99.08,66,88.26Z"/><path class="cls-22" d="M43,132.59s20.74,19.24,73.65,9.92,38.17-15,49.59-48.7c6.68-19.66,12-37.45,8.93-49.19C177.77,69.37,152.27,107,152.27,107c28.34-36.07-2.5,21.34-11.09,22.24s-17-7.51-17-7.51-.6,8.72-5.58,10.41-5.57-3.5-5.57-3.5-7.11,10.83-7.84,5.06c-.55-4.33,6.43-13.91,6.43-13.91s-16.3,14.26-38.14,12.35-28.06-18.61-28.06-18.61c-4.5,13.45-11.12,6.6-11.12,6.6-6.61,9.81-10.82-3.51-10.82-3.51-6.41,4.22-10.85-1-13.73-7.44C10.85,124.25,7.85,136.71,43,132.59Z"/><path class="cls-23" d="M49.22,50.25s17-9.79,45.39-13.55,58.69,3.22,58.73-6.43c0,0-4.17,5.08-23.11,2.37s-41.18-1.8-58,1.21-53.94,6.75-51.44-.46c0,0-17.1,11,17.62,6.24s59.4-8.19,68.33-5.33C106.73,34.3,78.83,33.14,49.22,50.25Z"/><path class="cls-23" d="M43,16.56s-1.46,4.21,16.72,5.71,66.8-.75,68.95-9.62c0,0,13.12,8.72-38.28,11.13S38.47,21.37,43,16.56Z"/><path class="cls-23" d="M102.84,10.55S99.12,19.27,69.36,16s29.47-14.13,21-6c0,0-3.16-3-15.19.45S91.83,19.27,102.84,10.55Z"/><path class="cls-24" d="M43,132.59s.45.41,1.36,1.08a43.78,43.78,0,0,1-10-13.5c-8.41-18.44,11.73-19.49,11.73-19.49-6-3.35-9.5-15.39-9.5-15.39-4.09-1.3-6.66-7.76-6.66-7.76s8.64,30.71-7.66,21.39C8.06,90.81,1.71,67.14.31,61.16c1.4,14.55,7.42,32.39,9,43.78C11.76,121.77,4.54,137.1,43,132.59Z"/><path class="cls-25" d="M143.76,66.34s20.74-2,12.9,18.23-38,25.17-38,25.17c-23.9,40.74-61.24,30.35-62.4,30,11.49,4.27,31,7.94,60.43,2.75,52.9-9.32,38.17-15,49.59-48.7,9.37-27.6,16.09-51.52.64-60.17C189,52.17,143.76,66.34,143.76,66.34Z"/><path class="cls-26" d="M118.64,109.74s-8.44,11.63-23.22-.8c0,0-48.21,6.21-58.85-23.65,0,0-32.85,7.85-36.2-34.93-2.19,15.31,6.92,40.13,9,54.58C11.76,121.77,4.54,137.1,43,132.59c0,0,20.74,19.24,73.65,9.92s38.17-15,49.59-48.7c6.68-19.66,12-37.45,8.93-49.19C175.19,44.62,173.89,96.72,118.64,109.74Z"/><path class="cls-27" d="M20.78,33.39c-2.5,7.21,34.6,3.46,51.44.46s39.07-3.91,58-1.21,23.11-2.37,23.11-2.37.3-6.19-8.72-15.21A15.21,15.21,0,0,0,137,10.51c7.2,2,9,8.66,0,12.66S55,37.37,35.55,32.19s-4-15.46-4-15.48C27.52,18.7,23.35,23.35,20.78,33.39Z"/><path class="cls-28" d="M43,16.56s-1.46,4.21,16.72,5.71,66.8-.75,68.95-9.62c0,0,.3-7.21-8.42-8.71a12.74,12.74,0,0,0-1.62-.18s7.27,1.19,5.57,8.09S53,24.18,48.07,16c-1.52-2.55-1.16-4.37,0-5.69C44.92,11.33,42.78,13.19,43,16.56Z"/><path class="cls-29" d="M94.66.12c3.6.83,6,3.78,4.52,6.87-2,4.2-15.94,7.17-20,5.66-2.72-1-1.2-2.44.06-3.26-1.22.25-2.58.58-4.07,1-12,3.46,16.61,8.87,27.62.15,0,0,.09-.75.25-1.84C103.23,5.92,102.37.87,94.66.12Z"/><path class="cls-30" d="M15.31,76.72c-.2-19.2,27.94-24.91,27.94-24.91S11.1,56,41.24,44s65.49-9.67,65.49-9.67c-8.93-2.86-33.61.6-68.33,5.33s-17.62-6.24-17.62-6.24S10,30.09,2.44,43.61c-5.52,9.93-.51,29.24,3.5,45.48L22.75,99.16C21.13,98.09,15.48,93.17,15.31,76.72Z"/><path class="cls-31" d="M31.28,16.86l.28-.15a20,20,0,0,0-2.34,1.9C27.76,21,30,23.75,42.16,26.18,71.22,32,120,20.63,120,20.63c-6,1.32-15.29,2.48-29.58,3.15-3.2.14-6.19.27-9,.36-2.16.09-4.2.14-6.12.17C39,25.12,39,20.84,43,16.56A13.93,13.93,0,0,0,31.28,16.86Z"/><path class="cls-32" d="M69.36,16c-8.59-1-9.76-2.54-7.28-4.11,2.09-2.51,15.55-5.71,27.09-6.71S90.41,10,90.41,10a27.24,27.24,0,0,0-3.1-1.07,24.24,24.24,0,0,0-8,.51c-1.26.82-2.78,2.24-.06,3.26a14,14,0,0,0,5.74.23C107.9,7,94.66.12,94.66.12c-.29,0-.54-.08-.84-.09C82.1-.57,74.58,8.47,65.56,8.76c-5.4.17-12.63-.07-17.44,1.51a3.75,3.75,0,0,0-1,2.76c.9,1.32,4,2.56,9.85,3.68,43.24,8.16,45.91-6.16,45.91-6.16S99.12,19.27,69.36,16Z"/><path class="cls-33" d="M3.48,50.32c-.79-1.49,5.18-11.27,9-12.24S4.8,52.81,3.48,50.32Z"/><path class="cls-33" d="M4.8,52.81c-.31-1,4.28-4,5.14-2.78S5.26,54.3,4.8,52.81Z"/><path class="cls-34" d="M128.69,129.38c-3.71-1.38,13.47-21.24,20.68-17.23S135.67,132,128.69,129.38Z"/><path class="cls-34" d="M131.73,133.67c-2.79-1.8,14-7.69,16.64-5.29S137.15,137.15,131.73,133.67Z"/><path class="cls-34" d="M62.8,136c-10.58,1.69,4-8.76,9.53-8.19S74.07,134.19,62.8,136Z"/><path class="cls-34" d="M71.22,138.2c-4.18-2.14,2.6-2.63,4.8-2S76.68,141,71.22,138.2Z"/><path class="cls-34" d="M85.72,133.67c-5.21-.56-.26-5.09,2.34-4.69S90.2,134.15,85.72,133.67Z"/><path class="cls-34" d="M16.57,125.58c-2.4-.12-3.35-15.23,0-15.43S25.05,126,16.57,125.58Z"/><path class="cls-34" d="M21.19,129.67c-2.92-.68-.47-5.68,5.34-4.09S25.88,130.76,21.19,129.67Z"/><path class="cls-34" d="M168.25,53.21c4.2-1.85-11.42-17.74-19.56-15.17S161.48,56.19,168.25,53.21Z"/><path class="cls-34" d="M162.8,59.76c-6.94-.34-5.82-4.12,0-3.92S169.21,60.08,162.8,59.76Z"/><path class="cls-35" d="M34.34,120.17c-8.41-18.44,11.73-19.49,11.73-19.49s-12.33-4.16-16.16,7.46S43,132.59,43,132.59l0-.27A42.29,42.29,0,0,1,34.34,120.17Z"/></g></g></g></svg>