<svg xmlns="http://www.w3.org/2000/svg" xmlns:xlink="http://www.w3.org/1999/xlink" viewBox="0 0 194.69 166.24"><defs><style>.cls-1{fill:none;}.cls-2{isolation:isolate;}.cls-3{fill:#79b3e5;}.cls-4{fill:url(#linear-gradient);}.cls-31,.cls-5{fill:#900040;}.cls-5{opacity:0.18;}.cls-10,.cls-11,.cls-16,.cls-22,.cls-23,.cls-28,.cls-29,.cls-31,.cls-32,.cls-33,.cls-34,.cls-35,.cls-36,.cls-37,.cls-5,.cls-61,.cls-7,.cls-8,.cls-9{mix-blend-mode:multiply;}.cls-6{fill:url(#linear-gradient-2);}.cls-10,.cls-11,.cls-22,.cls-23,.cls-28,.cls-29,.cls-32,.cls-33,.cls-34,.cls-35,.cls-36,.cls-37,.cls-61,.cls-7,.cls-8,.cls-9{opacity:0.39;}.cls-7{fill:url(#linear-gradient-3);}.cls-8{fill:url(#linear-gradient-4);}.cls-9{fill:url(#linear-gradient-5);}.cls-10{fill:url(#linear-gradient-6);}.cls-11{fill:url(#linear-gradient-7);}.cls-12{clip-path:url(#clip-path);}.cls-13{fill:url(#linear-gradient-8);}.cls-14{fill:url(#linear-gradient-9);}.cls-15,.cls-21,.cls-24,.cls-25,.cls-26,.cls-27,.cls-31,.cls-60{opacity:0.36;}.cls-15,.cls-21,.cls-24,.cls-25,.cls-26,.cls-27,.cls-47,.cls-48,.cls-50,.cls-51,.cls-53,.cls-54,.cls-55,.cls-57,.cls-58,.cls-59,.cls-60{mix-blend-mode:screen;}.cls-15{fill:url(#linear-gradient-10);}.cls-16{fill:#8486ea;}.cls-16,.cls-47,.cls-48,.cls-50,.cls-51,.cls-53,.cls-54,.cls-55,.cls-57,.cls-58{opacity:0.63;}.cls-17{fill:#fff;}.cls-18{clip-path:url(#clip-path-2);}.cls-19{fill:url(#linear-gradient-11);}.cls-20{fill:url(#linear-gradient-12);}.cls-21{fill:url(#linear-gradient-13);}.cls-22{fill:url(#linear-gradient-14);}.cls-23{fill:url(#linear-gradient-15);}.cls-24{fill:url(#linear-gradient-16);}.cls-25{fill:url(#linear-gradient-17);}.cls-26{fill:url(#linear-gradient-18);}.cls-27{fill:url(#linear-gradient-19);}.cls-28{fill:url(#linear-gradient-20);}.cls-29{fill:url(#linear-gradient-21);}.cls-30{fill:#401f15;}.cls-32{fill:url(#linear-gradient-22);}.cls-33{fill:url(#linear-gradient-23);}.cls-35{fill:url(#linear-gradient-24);}.cls-36{fill:url(#linear-gradient-25);}.cls-37{fill:url(#linear-gradient-26);}.cls-38{fill:url(#linear-gradient-27);}.cls-39{fill:url(#linear-gradient-28);}.cls-40{fill:url(#linear-gradient-29);}.cls-41{fill:url(#linear-gradient-30);}.cls-42{fill:url(#linear-gradient-31);}.cls-43{fill:url(#linear-gradient-32);}.cls-44{fill:url(#linear-gradient-33);}.cls-45{fill:url(#linear-gradient-34);}.cls-46{fill:url(#linear-gradient-35);}.cls-47{fill:url(#linear-gradient-36);}.cls-48{fill:url(#linear-gradient-37);}.cls-49{fill:url(#linear-gradient-38);}.cls-50{fill:url(#linear-gradient-39);}.cls-51{fill:url(#linear-gradient-40);}.cls-52{fill:url(#linear-gradient-41);}.cls-53{fill:url(#linear-gradient-42);}.cls-54{fill:url(#linear-gradient-43);}.cls-55{fill:url(#linear-gradient-44);}.cls-56{fill:url(#linear-gradient-45);}.cls-57{fill:url(#linear-gradient-46);}.cls-58{fill:url(#linear-gradient-47);}.cls-59{opacity:0.17;fill:url(#linear-gradient-48);}.cls-60{fill:#ffffb1;}.cls-61{fill:url(#linear-gradient-49);}</style><linearGradient id="linear-gradient" x1="-156.8" y1="248.44" x2="-152.66" y2="258.47" gradientTransform="translate(51.57 -213.76) rotate(-22.56)" gradientUnits="userSpaceOnUse"><stop offset="0" stop-color="#d8e7f9"/><stop offset="0.17" stop-color="#c3dcf5"/><stop offset="0.53" stop-color="#9bc6ec"/><stop offset="0.82" stop-color="#82b8e7"/><stop offset="1" stop-color="#79b3e5"/></linearGradient><linearGradient id="linear-gradient-2" x1="42.83" y1="27.23" x2="160.38" y2="134.12" gradientUnits="userSpaceOnUse"><stop offset="0" stop-color="#d17e60"/><stop offset="1" stop-color="#8b3032"/></linearGradient><linearGradient id="linear-gradient-3" x1="99.8" y1="76.82" x2="99.8" y2="50.93" gradientUnits="userSpaceOnUse"><stop offset="0.13" stop-color="#fff"/><stop offset="0.25" stop-color="#f4e5ec"/><stop offset="0.48" stop-color="#d7a2b9"/><stop offset="0.83" stop-color="#a9386a"/><stop offset="1" stop-color="#900040"/></linearGradient><linearGradient id="linear-gradient-4" x1="117.23" y1="67.84" x2="117.23" y2="43.97" gradientUnits="userSpaceOnUse"><stop offset="0" stop-color="#fff"/><stop offset="0.09" stop-color="#fcf7f9"/><stop offset="0.22" stop-color="#f2e1e9"/><stop offset="0.38" stop-color="#e3bece"/><stop offset="0.57" stop-color="#cd8ca9"/><stop offset="0.78" stop-color="#b14d79"/><stop offset="1" stop-color="#900040"/></linearGradient><linearGradient id="linear-gradient-5" x1="81.04" y1="67.98" x2="81.04" y2="40.15" xlink:href="#linear-gradient-4"/><linearGradient id="linear-gradient-6" x1="117.84" y1="83.05" x2="117.84" y2="23.75" gradientUnits="userSpaceOnUse"><stop offset="0" stop-color="#fff"/><stop offset="0.03" stop-color="#f3e2ea"/><stop offset="0.1" stop-color="#deb3c6"/><stop offset="0.17" stop-color="#cb89a6"/><stop offset="0.24" stop-color="#bb648b"/><stop offset="0.32" stop-color="#ae4573"/><stop offset="0.41" stop-color="#a32b61"/><stop offset="0.5" stop-color="#9a1852"/><stop offset="0.61" stop-color="#940a48"/><stop offset="0.75" stop-color="#910242"/><stop offset="1" stop-color="#900040"/></linearGradient><linearGradient id="linear-gradient-7" x1="80.41" y1="82.69" x2="80.41" y2="23.26" xlink:href="#linear-gradient-6"/><clipPath id="clip-path"><path class="cls-1" d="M110.7,79.52c-7.5-4.28-11-17.82-4.57-27.52,5.6-8.41,22.23-8.43,26.13,7S122.2,86.09,110.7,79.52Z"/></clipPath><linearGradient id="linear-gradient-8" x1="117.84" y1="79.2" x2="117.84" y2="40.8" gradientUnits="userSpaceOnUse"><stop offset="0" stop-color="#fff"/><stop offset="0.14" stop-color="#f8f8fc"/><stop offset="0.36" stop-color="#e3e5f2"/><stop offset="0.61" stop-color="#c2c6e3"/><stop offset="0.9" stop-color="#949bcd"/><stop offset="1" stop-color="#838bc5"/></linearGradient><linearGradient id="linear-gradient-9" x1="338.96" y1="67.02" x2="338.96" y2="37.32" gradientTransform="matrix(1.06, 0.17, -0.33, 0.89, -227.89, -41.13)" gradientUnits="userSpaceOnUse"><stop offset="0" stop-color="#006cff"/><stop offset="0.05" stop-color="#0063eb"/><stop offset="0.2" stop-color="#0049ae"/><stop offset="0.35" stop-color="#003379"/><stop offset="0.5" stop-color="#00214d"/><stop offset="0.64" stop-color="#00122c"/><stop offset="0.77" stop-color="#000814"/><stop offset="0.9" stop-color="#000205"/><stop offset="1"/></linearGradient><linearGradient id="linear-gradient-10" x1="-23.45" y1="-1247.53" x2="-37.92" y2="-1272.61" gradientTransform="matrix(0.07, 1, -0.76, 0.05, -843.74, 171.8)" gradientUnits="userSpaceOnUse"><stop offset="0"/><stop offset="0.1" stop-color="#222218"/><stop offset="0.36" stop-color="#70704e"/><stop offset="0.58" stop-color="#adad78"/><stop offset="0.77" stop-color="#dada97"/><stop offset="0.91" stop-color="#f5f5aa"/><stop offset="1" stop-color="#ffffb1"/></linearGradient><clipPath id="clip-path-2"><path class="cls-1" d="M95.5,58.57C93.62,42,76.39,45.22,69.82,52.2s-6.57,19.31,0,25.88S98,80.34,95.5,58.57Z"/></clipPath><linearGradient id="linear-gradient-11" x1="80.29" y1="78.75" x2="80.29" y2="41.2" xlink:href="#linear-gradient-8"/><linearGradient id="linear-gradient-12" x1="311.15" y1="72.24" x2="311.15" y2="42.54" xlink:href="#linear-gradient-9"/><linearGradient id="linear-gradient-13" x1="-25.85" y1="-1205.61" x2="-40.33" y2="-1230.68" xlink:href="#linear-gradient-10"/><linearGradient id="linear-gradient-14" x1="33.59" y1="100.8" x2="33.59" y2="18.57" gradientUnits="userSpaceOnUse"><stop offset="0" stop-color="#900040"/><stop offset="0.12" stop-color="#9b1953"/><stop offset="0.39" stop-color="#b75983"/><stop offset="0.77" stop-color="#e3becf"/><stop offset="1" stop-color="#fff"/></linearGradient><linearGradient id="linear-gradient-15" x1="166.05" y1="91.85" x2="166.05" y2="19.51" xlink:href="#linear-gradient-14"/><linearGradient id="linear-gradient-16" x1="37.6" y1="10.18" x2="61.53" y2="31.94" gradientUnits="userSpaceOnUse"><stop offset="0" stop-color="#ffffb1"/><stop offset="0.11" stop-color="#d4d493"/><stop offset="0.3" stop-color="#959567"/><stop offset="0.47" stop-color="#606042"/><stop offset="0.64" stop-color="#363626"/><stop offset="0.78" stop-color="#181811"/><stop offset="0.91" stop-color="#060604"/><stop offset="1"/></linearGradient><linearGradient id="linear-gradient-17" x1="82.5" y1="-16.4" x2="166.27" y2="59.79" xlink:href="#linear-gradient-16"/><linearGradient id="linear-gradient-18" x1="11.71" y1="61.44" x2="129.27" y2="168.34" gradientUnits="userSpaceOnUse"><stop offset="0.14" stop-color="#ffffb1"/><stop offset="0.18" stop-color="#d4d493"/><stop offset="0.24" stop-color="#959567"/><stop offset="0.3" stop-color="#606042"/><stop offset="0.35" stop-color="#363626"/><stop offset="0.4" stop-color="#181811"/><stop offset="0.44" stop-color="#060604"/><stop offset="0.47"/></linearGradient><linearGradient id="linear-gradient-19" x1="57.26" y1="11.35" x2="174.82" y2="118.25" gradientUnits="userSpaceOnUse"><stop offset="0.62" stop-color="#ffffb1"/><stop offset="0.66" stop-color="#d4d493"/><stop offset="0.71" stop-color="#959567"/><stop offset="0.76" stop-color="#606042"/><stop offset="0.81" stop-color="#363626"/><stop offset="0.86" stop-color="#181811"/><stop offset="0.89" stop-color="#060604"/><stop offset="0.92"/></linearGradient><linearGradient id="linear-gradient-20" x1="99.64" y1="169.73" x2="99.64" y2="41.28" gradientUnits="userSpaceOnUse"><stop offset="0" stop-color="#900040"/><stop offset="0.37" stop-color="#910241"/><stop offset="0.51" stop-color="#940946"/><stop offset="0.6" stop-color="#99144f"/><stop offset="0.68" stop-color="#a0255c"/><stop offset="0.75" stop-color="#aa3b6d"/><stop offset="0.8" stop-color="#b65781"/><stop offset="0.86" stop-color="#c47799"/><stop offset="0.91" stop-color="#d49db5"/><stop offset="0.95" stop-color="#e7c8d6"/><stop offset="0.99" stop-color="#fbf6f8"/><stop offset="1" stop-color="#fff"/></linearGradient><linearGradient id="linear-gradient-21" x1="65.33" y1="105.72" x2="65.33" y2="-171.11" gradientUnits="userSpaceOnUse"><stop offset="0" stop-color="#900040"/><stop offset="0.12" stop-color="#920443"/><stop offset="0.24" stop-color="#97114d"/><stop offset="0.37" stop-color="#a0265c"/><stop offset="0.5" stop-color="#ad4372"/><stop offset="0.63" stop-color="#be698f"/><stop offset="0.76" stop-color="#d297b1"/><stop offset="0.89" stop-color="#e9cdda"/><stop offset="1" stop-color="#fff"/></linearGradient><linearGradient id="linear-gradient-22" x1="95.09" y1="166.28" x2="95.09" y2="134.6" xlink:href="#linear-gradient-14"/><linearGradient id="linear-gradient-23" x1="132.54" y1="259.8" x2="132.54" y2="-91.94" gradientUnits="userSpaceOnUse"><stop offset="0" stop-color="#fff"/><stop offset="0.11" stop-color="#e9cdda"/><stop offset="0.24" stop-color="#d297b1"/><stop offset="0.37" stop-color="#be698f"/><stop offset="0.5" stop-color="#ad4372"/><stop offset="0.63" stop-color="#a0265c"/><stop offset="0.76" stop-color="#97114d"/><stop offset="0.88" stop-color="#920443"/><stop offset="1" stop-color="#900040"/></linearGradient><linearGradient id="linear-gradient-24" x1="24.29" y1="136.61" x2="24.29" y2="136.21" xlink:href="#linear-gradient-23"/><linearGradient id="linear-gradient-25" x1="25.54" y1="139.38" x2="25.54" y2="135.63" xlink:href="#linear-gradient-23"/><linearGradient id="linear-gradient-26" x1="131.25" y1="110.32" x2="67.98" y2="110.32" gradientUnits="userSpaceOnUse"><stop offset="0" stop-color="#900040"/><stop offset="0.12" stop-color="#920443"/><stop offset="0.25" stop-color="#97104c"/><stop offset="0.37" stop-color="#a0255c"/><stop offset="0.5" stop-color="#ad4271"/><stop offset="0.63" stop-color="#bd678d"/><stop offset="0.76" stop-color="#d094af"/><stop offset="0.89" stop-color="#e7c9d6"/><stop offset="1" stop-color="#fff"/></linearGradient><linearGradient id="linear-gradient-27" x1="170.53" y1="17.82" x2="177.67" y2="24.96" gradientTransform="matrix(1, 0, 0, 1, 0, 0)" xlink:href="#linear-gradient"/><linearGradient id="linear-gradient-28" x1="93.62" y1="100.56" x2="100.77" y2="107.7" gradientTransform="matrix(1, 0, 0, 1, 0, 0)" xlink:href="#linear-gradient"/><linearGradient id="linear-gradient-29" x1="4.96" y1="45.52" x2="18" y2="58.56" gradientTransform="matrix(1, 0, 0, 1, 0, 0)" xlink:href="#linear-gradient"/><linearGradient id="linear-gradient-30" x1="61.87" y1="3.32" x2="69.58" y2="11.04" gradientTransform="matrix(1, 0, 0, 1, 0, 0)" xlink:href="#linear-gradient"/><linearGradient id="linear-gradient-31" x1="131.16" y1="3.93" x2="138.52" y2="11.29" gradientTransform="matrix(1, 0, 0, 1, 0, 0)" xlink:href="#linear-gradient"/><linearGradient id="linear-gradient-32" x1="148.5" y1="31.82" x2="158.22" y2="41.54" gradientTransform="matrix(1, 0, 0, 1, 0, 0)" xlink:href="#linear-gradient"/><linearGradient id="linear-gradient-33" x1="148.12" y1="89.27" x2="156.54" y2="97.69" gradientTransform="matrix(1, 0, 0, 1, 0, 0)" xlink:href="#linear-gradient"/><linearGradient id="linear-gradient-34" x1="46.64" y1="26.39" x2="57.05" y2="36.8" gradientTransform="matrix(1, 0, 0, 1, 0, 0)" xlink:href="#linear-gradient"/><linearGradient id="linear-gradient-35" x1="27.71" y1="91.17" x2="32.41" y2="95.87" gradientTransform="matrix(1, 0, 0, 1, 0, 0)" xlink:href="#linear-gradient"/><linearGradient id="linear-gradient-36" x1="7.07" y1="43.4" x2="20.12" y2="56.45" gradientUnits="userSpaceOnUse"><stop offset="0" stop-color="#ffffb1"/><stop offset="0.01" stop-color="#f8f8ac"/><stop offset="0.13" stop-color="#bebe84"/><stop offset="0.25" stop-color="#8c8c61"/><stop offset="0.37" stop-color="#616143"/><stop offset="0.49" stop-color="#3e3e2b"/><stop offset="0.62" stop-color="#232318"/><stop offset="0.74" stop-color="#0f0f0b"/><stop offset="0.87" stop-color="#040403"/><stop offset="1"/></linearGradient><linearGradient id="linear-gradient-37" x1="62.32" y1="2.88" x2="70.03" y2="10.59" xlink:href="#linear-gradient-36"/><linearGradient id="linear-gradient-38" x1="240.88" y1="-152.42" x2="250.22" y2="-147.72" gradientTransform="translate(-99.28 122.44) rotate(18.3)" xlink:href="#linear-gradient"/><linearGradient id="linear-gradient-39" x1="241.68" y1="-154.07" x2="249.4" y2="-146.35" gradientTransform="translate(-99.28 122.44) rotate(18.3)" xlink:href="#linear-gradient-36"/><linearGradient id="linear-gradient-40" x1="133.13" y1="1.96" x2="140.49" y2="9.32" xlink:href="#linear-gradient-36"/><linearGradient id="linear-gradient-41" x1="51.21" y1="108.74" x2="58.57" y2="116.1" gradientTransform="matrix(1, 0, 0, 1, 0, 0)" xlink:href="#linear-gradient"/><linearGradient id="linear-gradient-42" x1="53.19" y1="106.76" x2="60.55" y2="114.12" xlink:href="#linear-gradient-36"/><linearGradient id="linear-gradient-43" x1="146.69" y1="34.41" x2="158.53" y2="41.37" xlink:href="#linear-gradient-36"/><linearGradient id="linear-gradient-44" x1="149.79" y1="87.59" x2="158.22" y2="96.02" xlink:href="#linear-gradient-36"/><linearGradient id="linear-gradient-45" x1="-47.64" y1="118.79" x2="-40.95" y2="128.96" gradientTransform="matrix(0.98, -0.2, 0.2, 0.98, 42.29, -107.19)" xlink:href="#linear-gradient"/><linearGradient id="linear-gradient-46" x1="-46.99" y1="118.74" x2="-38.57" y2="127.17" gradientTransform="matrix(0.98, -0.2, 0.2, 0.98, 42.29, -107.19)" xlink:href="#linear-gradient-36"/><linearGradient id="linear-gradient-47" x1="48.83" y1="24.21" x2="59.23" y2="34.62" xlink:href="#linear-gradient-36"/><linearGradient id="linear-gradient-48" x1="27.39" y1="91.48" x2="32.1" y2="96.19" xlink:href="#linear-gradient-36"/><linearGradient id="linear-gradient-49" x1="99.8" y1="93.32" x2="99.8" y2="78.57" xlink:href="#linear-gradient-4"/></defs><g class="cls-2"><g id="Слой_2" data-name="Слой 2"><g id="Layer_2" data-name="Layer 2"><path class="cls-3" d="M18.2,132.28c1-1.27,7.3.62,5.5,3.16S15.58,135.52,18.2,132.28Z"/><path class="cls-4" d="M7.14,86c-2.75,1.14-7.27-5-7.14-6.74s5.18-7.71,7.54-5.4S9.7,84.9,7.14,86Z"/><path class="cls-5" d="M7.14,86c2.56-1.07,2.76-9.83.4-12.14-.76-.74-1.8-.62-2.87-.06.13.6.25,1.19.36,1.81,1.7,9.27-1.3,8.49-3.41,7C3.16,84.66,5.47,86.66,7.14,86Z"/><path class="cls-6" d="M184.9,96.56c10.17-14.79,22.49-61.31-20.64-81s-66.55,0-66.55,0c-11.1-17.56-69-10.78-86.58,28S17,107,17,107s-7.39,10.48,1.85,23.42S41.32,143.4,41.32,143.4c12.94,12.94,30.2,21.56,56.39,22.8s51.14-25,51.14-25c22.8,2.16,41-12.32,43.45-27.42S184.9,96.56,184.9,96.56ZM51.18,92.46A27.06,27.06,0,0,1,40.29,72.74C39.06,59.18,62.07,48.29,62.07,48.29s-7.6,23,4.11,38A31.48,31.48,0,0,1,51.18,92.46Zm39.85,38s8.42-4.73,12.53-9a51.9,51.9,0,0,0,7.39,7S102.74,140.32,91,130.46Zm63.26-38c-10.88.2-19.92-11.92-19.92-11.92,11.91-22.8-2.05-37.18-2.05-37.18a40,40,0,0,1,24.44,18.08C166,76.64,154.29,92.46,154.29,92.46Z"/><path class="cls-7" d="M91.6,63.48S97.24,37.19,106,60.71,92.55,75.07,92.55,75.07Z"/><path class="cls-8" d="M132,57.21s-2.52-11.33-12.53-12.9-13.76,2.65-14.4,4-3.64,12.62-2,18.28S132,57.21,132,57.21Z"/><path class="cls-9" d="M65.79,59.27s3.47-13.94,17.13-17.7,13.33.87,12.77,3.13,1.87,14.94-.37,21.49S65.79,59.27,65.79,59.27Z"/><path class="cls-10" d="M102.75,63.88s-.59-15.07,10.33-18.15,19.81,6.27,19.85,18-6.66,18.49-15.09,19.05S102.76,73.91,102.75,63.88Z"/><path class="cls-11" d="M83.33,44.78c7.88-1,15.16,7.15,12,21.41s-12.92,17-21.85,16.06-9.37-16-8.35-20S67,46.81,83.33,44.78Z"/><g class="cls-12"><path class="cls-13" d="M110.7,79.52c-7.5-4.28-11-17.82-4.57-27.52,5.6-8.41,22.23-8.43,26.13,7S122.2,86.09,110.7,79.52Z"/><path class="cls-14" d="M126.91,64.63c-1.36,7.58-8.12,12.51-15,11s-11.27-8.92-9.81-16.41S110.15,47,117,48.43,128.26,57.12,126.91,64.63Z"/><path class="cls-15" d="M104.44,76.66c-1-8.56,9.19-17.61,16.31-13.64,3.78,2.11,7.46,7.16,5.28,14.72C125.28,80.36,106.13,90.57,104.44,76.66Z"/><path class="cls-16" d="M106.18,76.54S99.1,62.49,109,58.05c14.28-6.42,24.79,5.5,20.32,17.22C124,89,151.75,57.6,151.75,57.6S148,45.36,144.14,45.75s-43.22-2.13-43.22-2.13S80.69,67.27,82.15,69.8,106.18,76.54,106.18,76.54Z"/><path class="cls-17" d="M106.6,54.33c2.46-4,7.75,5.64,5.07,6.41S102.92,60.36,106.6,54.33Z"/></g><g class="cls-18"><path class="cls-19" d="M95.5,58.57C93.62,42,76.39,45.22,69.82,52.2s-6.57,19.31,0,25.88S98,80.34,95.5,58.57Z"/><path class="cls-20" d="M95.69,64.63c-1.36,7.58-8.12,12.51-15,11s-11.28-8.92-9.81-16.41S78.93,47,85.73,48.43,97,57.12,95.69,64.63Z"/><path class="cls-21" d="M72.3,76.5c-1-8.55,9.18-17.61,16.3-13.63C92.39,65,96.06,70,93.88,77.59,93.13,80.2,74,90.41,72.3,76.5Z"/><path class="cls-16" d="M66,73.75s1.4-12.44,11.72-15.7,19.81,5.22,15.33,17c-5.25,13.75,27.45-17.4,27.45-17.4s-3.77-12.24-7.61-11.85-43.23-2.13-43.23-2.13S49.47,67.27,50.92,69.8,66,73.75,66,73.75Z"/><path class="cls-17" d="M75,54.33c2.46-4,7.75,5.64,5.07,6.41S71.31,60.36,75,54.33Z"/></g><path class="cls-22" d="M24.05,97.12c5.53-3.51,16.2-5.33,16.2-5.33s3.38.11,10.93.67A27.06,27.06,0,0,1,40.29,72.74C39.06,59.18,62.07,48.29,62.07,48.29l.51-2.87S22.29,62.8,22.33,42.55A31.65,31.65,0,0,1,33.62,18.23,59.24,59.24,0,0,0,11.13,43.57C-6.44,82.39,17,107,17,107S18.51,100.63,24.05,97.12Z"/><path class="cls-23" d="M182.45,44c-9.52,10.08-34.32,4.2-45,1a40.44,40.44,0,0,1,19.36,16.45c9.24,15.2-2.47,31-2.47,31l10.74.87s5.08.92,9.86,1.69,10,1.54,10,1.54c10.17-14.79,22.49-61.31-20.64-81-.21-.1-.42-.18-.63-.27C177.22,23.84,189.36,36.66,182.45,44Z"/><path class="cls-24" d="M45.63,32.63C69.38,19.38,83.49,11.49,79.5,8.28a26.92,26.92,0,0,0-4.4-1.35c-1.18-.15-2.56-.25-4.18-.31-.63,0-1.19-.07-1.79-.1-15,1-32.59,7.26-45.37,19.44l1.53,3.11S14.82,49.84,45.63,32.63Z"/><path class="cls-25" d="M97.71,15.53a19.65,19.65,0,0,0-2.64.47c-7.37,2.68-19,7.39-12.15,11.62s54.83,13.53,36.5-3.54S133.62,16,133.62,16s-7.05-8.25,10.4-4.1,3.62,9.84-6.09,6.34c0,0,30,22.82,38,17.34,4.45-3,1.28-8.63-2.4-13a82,82,0,0,0-9.92-7.32C120.9-4,97.71,15.53,97.71,15.53Z"/><path class="cls-26" d="M51.18,92.46c-7.55-.56-10.93-.67-10.93-.67s-10.67,1.82-16.2,5.33l-.3.31c-.23.41-.43.81-.64,1.21-2.25,5-.59,12,17.59,13.36,19.93,1.51,31.84-15.44,31.84-15.44A21.85,21.85,0,0,1,56.32,101c-8.43-1.29,15.77-10.5,18.05-8.08.23-3.69.34-14.19-6.24-9.11L66.18,86.3A31.48,31.48,0,0,1,51.18,92.46Z"/><path class="cls-27" d="M165,93.33l-3.55-.27c-9.3-.48-20.39,1-29.07,5.36-9,5.16,7.54,13.18,24,11.9S194.14,102,174.89,95c-3.52-1.26-6.54-2.24-9.17-3C165.49,92.45,165.28,92.89,165,93.33Z"/><path class="cls-28" d="M11.13,43.57C-6.44,82.39,17,107,17,107s-7.39,10.48,1.85,23.42S41.32,143.4,41.32,143.4c12.94,12.94,30.2,21.56,56.39,22.8s51.14-25,51.14-25c22.8,2.16,41-12.32,43.45-27.42s-7.4-17.26-7.4-17.26c10.17-14.79,22.49-61.31-20.64-81-1.11-.5-2.19-1-3.27-1.42,26.67,11.69,29.4,37.35,28,53.8C187.57,85,174.89,95,174.89,95c13.09,2.78,26.34,28.35-6.17,35S111,114.13,111,114.13c15.59-13.68,23.42-33.59,23.42-33.59,11.91-22.8-2.05-37.18-2.05-37.18a40,40,0,0,1,24.44,18.08c9.24,15.2-2.47,31-2.47,31,3.3.31,10.74.87,10.74.87,15.4-26.81-12.33-50.69-28.68-51.76s-22.62,3.13-22.62,3.13c6.57-1.34,12,.24,16.94,5.49C144,64.32,129.9,89.94,101,113.05s-74.3,29.11-80.16,10.78,3.22-26.71,3.22-26.71c-25.38-51.65,4.81-75.5,7.8-77.7A58.72,58.72,0,0,0,11.13,43.57ZM91,130.46s8.42-4.73,12.53-9a51.9,51.9,0,0,0,7.39,7c6.94,7.81,21.37,11.15,21.37,11.15S119,152.49,99.64,152.64s-30.23-9.17-30.23-9.17C86.6,140,91,130.46,91,130.46Z"/><path class="cls-29" d="M89.23,16.15c-21.1,6-26.65,29.27-26.65,29.27A40.27,40.27,0,0,0,36.7,62.36c-10.17,15,3.55,29.43,3.55,29.43,8.93-.31,10.93.67,10.93.67A27.06,27.06,0,0,1,40.29,72.74C39.06,59.18,62.07,48.29,62.07,48.29s-7.6,23,4.11,38l1.95-2.52S56,55.89,68.59,36.33s29.12-20.8,29.12-20.8c-3.94-6.24-13.8-9.39-25.65-9.14C85.37,8.06,89.23,16.15,89.23,16.15Z"/><path class="cls-30" d="M105,48.29s6.7-4.47,14.4-4C119.42,44.31,104.56,41.85,105,48.29Z"/><path class="cls-30" d="M82.92,41.57s12.45-2.21,12.77,3.13C95.69,44.7,100.94,36.11,82.92,41.57Z"/><path class="cls-30" d="M95.24,79.79s6.37,6.5,6.78-3.46c0,0,1.13,4.67-1.18,6.83S95.24,79.79,95.24,79.79Z"/><path class="cls-31" d="M91,130.46s8.42-4.73,12.53-9l7.39-7.29a88.88,88.88,0,0,0,17.24-21.4c-10.11,17.06-43.37,42.72-71.46,46.35-21.83,2.83-30-.93-32.57-2.78a29.48,29.48,0,0,0,16.47,7.06l.69,0C71.1,144.63,91,130.46,91,130.46Z"/><path class="cls-31" d="M145.46,137c-29.58-1.59-41.9-15.61-41.9-15.61a51.9,51.9,0,0,0,7.39,7c6.94,7.81,21.37,11.15,21.37,11.15a162.38,162.38,0,0,0,16.53,1.69c16,1.51,29.71-5.18,37.32-14.52C184.79,128.06,173.15,138.52,145.46,137Z"/><path class="cls-32" d="M111,128.4s-8.21,11.92-19.92,2.06c0,0-19.93,14.17-49.71,12.94,12.94,12.94,30.2,21.56,56.39,22.8s51.14-25,51.14-25a162.38,162.38,0,0,1-16.53-1.69S117.89,136.21,111,128.4Z"/><path class="cls-33" d="M154.29,92.46c-10.88.2-19.92-11.92-19.92-11.92a99.3,99.3,0,0,1-7.7,14.69l-.17.25c-.49.78-1,1.56-1.53,2.36l-.37.54c-.49.72-1,1.44-1.51,2.16l-.62.85c-.47.63-.94,1.27-1.44,1.91l-.9,1.12-1.34,1.66c-.39.46-.81.92-1.22,1.38s-.79.92-1.21,1.37-1.1,1.15-1.66,1.72c-.32.32-.62.66-1,1-.9.88-1.83,1.75-2.8,2.6l-7.39,7.29s6.53,7.37,21.39,12a32.4,32.4,0,0,1-6-13.6,16.89,16.89,0,0,1,2.83-12.8c7.84-11,25.79-14.7,39.77-14C159.13,92.87,156.1,92.63,154.29,92.46Z"/><g class="cls-34"><path class="cls-35" d="M24.41,136.49l-.11-.1-.14-.09Z"/><path class="cls-36" d="M24.41,136.49c.75.63,1.51,1.21,2.27,1.73C25.92,137.7,25.16,137.12,24.41,136.49Z"/><path class="cls-37" d="M124.9,89.08c-17.81,15-57.55,43.57-91.31,32.34-14.73-4.9-15.49-14-9.84-24l.09-.17A17.94,17.94,0,0,0,17,107s-7.39,10.48,1.85,23.42a31.92,31.92,0,0,0,5.47,5.93c2.71,1.88,10.94,5.48,32.43,2.69,28-3.63,61.2-29.18,71.39-46.23.34-.58.68-1.15,1-1.71.1-.17.19-.34.29-.5.46-.82.89-1.61,1.28-2.35a.47.47,0,0,0,0-.1c.65-1.21,1.21-2.32,1.68-3.3l.09-.19c.27-.56.51-1.06.72-1.52l.12-.26c.16-.35.3-.66.42-.94l.16-.36.16-.37.18-.43a1.16,1.16,0,0,0,.06-.16l.05-.12S130.86,84.06,124.9,89.08Z"/></g><path class="cls-31" d="M169,22.74c-.59-3.67,4.31-5.13,6.47-4.36s3.39,9.24.3,9.24S169.46,25.92,169,22.74Z"/><path class="cls-38" d="M169,21.43c-.59-3.67,4.62-5.59,6.77-4.82s3.09,9.7,0,9.7S169.46,24.61,169,21.43Z"/><path class="cls-5" d="M169,21.43c.5,3.18,3.69,4.88,6.77,4.88s2.16-8.93,0-9.7a3.64,3.64,0,0,0-1.59-.14c3,.27,2.28,6.52-.28,5.32a7.79,7.79,0,0,1-3.66-3.63A3.55,3.55,0,0,0,169,21.43Z"/><path class="cls-31" d="M92.05,105.48c-.59-3.67,4.31-5.13,6.47-4.36s3.39,9.24.31,9.24S92.55,108.66,92.05,105.48Z"/><path class="cls-39" d="M92.05,104.17c-.59-3.67,4.62-5.59,6.78-4.82s3.08,9.7,0,9.7S92.55,107.35,92.05,104.17Z"/><path class="cls-5" d="M92.05,104.17c.5,3.18,3.69,4.88,6.78,4.88s2.15-8.93,0-9.7a3.7,3.7,0,0,0-1.6-.14c3,.27,2.29,6.52-.27,5.32a7.78,7.78,0,0,1-3.67-3.63A3.57,3.57,0,0,0,92.05,104.17Z"/><path class="cls-31" d="M20.09,57.72c1.72-2.45-6.28-14.2-9.61-14.88S3,50.68,5,54.27,17.93,60.8,20.09,57.72Z"/><path class="cls-31" d="M27.75,51.86c-3.42-1.91,2.66-4.62,3.74-3.08S30.8,53.56,27.75,51.86Z"/><path class="cls-31" d="M70.74,23.74c-2.88-1.45,2.46-4.4,3.7-3.78S74,25.37,70.74,23.74Z"/><path class="cls-31" d="M63,12.67c-3.12-.25-2.07-5.89,0-8.89s3.91-3.82,6.75.85C72.67,9.48,72.92,13.47,63,12.67Z"/><path class="cls-31" d="M130.24,11c-4.24-1.78,2.21-7,4.29-8.63C136.36.89,130.87,7.4,139,7.16,141.3,7.1,140.9,15.42,130.24,11Z"/><path class="cls-31" d="M150.71,41.15c-1.59-4.61-1.3-6.66,3.32-8.67s9.82,10,9.53,12S152.06,45.07,150.71,41.15Z"/><path class="cls-31" d="M150.94,99.93c3.12,2.66,9.85-.24,10.16-3.47s-6.07-8.38-7.81-8S147.24,96.78,150.94,99.93Z"/><path class="cls-31" d="M168,108c1-1.27,7.3.62,5.5,3.16S165.39,111.25,168,108Z"/><path class="cls-31" d="M159.74,70.62c-1.81-2.59,6-5.36,6-1.66S162,73.81,159.74,70.62Z"/><path class="cls-31" d="M134.88,99.18c-2.9-3.23,6-5.5,6.62-2S137.65,102.26,134.88,99.18Z"/><path class="cls-31" d="M169.71,38.47c3,.58,4.54-5.21,1.79-5.79S165.29,37.61,169.71,38.47Z"/><path class="cls-31" d="M56.87,42.38c3.59-3.63,1.77-16.56-1.43-17.62s-7.89,7.69-7.08,12S54.4,44.86,56.87,42.38Z"/><path class="cls-31" d="M26.15,95.74c-1.73-2.66,7-6.54,8.72-3.83S29.69,101.17,26.15,95.74Z"/><path class="cls-31" d="M19.81,73.34C15.5,73.09,18,67.23,21.59,68S24.28,73.59,19.81,73.34Z"/><path class="cls-31" d="M34,109.94c-1.9-1.1-2.31-6.48,1.55-5.78S36.88,111.64,34,109.94Z"/><path class="cls-31" d="M25,110.07c3.26-.77,1.52-5.75-1.23-5.27S21.7,110.84,25,110.07Z"/><path class="cls-40" d="M19.41,57.12c1.71-2.45-6.28-14.2-9.61-14.88S2.31,50.08,4.31,53.67,17.25,60.2,19.41,57.12Z"/><path class="cls-3" d="M27.07,51.26c-3.42-1.91,2.66-4.62,3.74-3.08S30.11,53,27.07,51.26Z"/><path class="cls-3" d="M106.64,97.61c-3.43-1.91,2.65-4.63,3.73-3.09S109.68,99.3,106.64,97.61Z"/><path class="cls-3" d="M70.06,23.14c-2.88-1.45,2.46-4.4,3.69-3.78S73.29,24.77,70.06,23.14Z"/><path class="cls-41" d="M62.29,12.07c-3.12-.25-2.07-5.89,0-8.89s5.46-5.32,7.47,0S72.23,12.87,62.29,12.07Z"/><path class="cls-42" d="M129.56,10.36c-4.24-1.78,2.13-7.09,4.29-8.63s6.42,2,6.6,4.31S140.21,14.82,129.56,10.36Z"/><path class="cls-43" d="M150,40.55c-1.59-4.61-1.31-6.66,3.32-8.67s9.82,10,9.53,12S151.38,44.47,150,40.55Z"/><path class="cls-44" d="M150.25,99.33c3.13,2.66,9.86-.24,10.17-3.47s-6.07-8.38-7.82-8S146.55,96.17,150.25,99.33Z"/><path class="cls-3" d="M167.32,107.41c1-1.27,7.31.62,5.5,3.16S164.7,110.65,167.32,107.41Z"/><path class="cls-31" d="M119.15,14.94c1-1.27,7.31.62,5.5,3.16S116.53,18.18,119.15,14.94Z"/><path class="cls-3" d="M118.47,14.34c1-1.27,7.3.62,5.5,3.16S115.85,17.57,118.47,14.34Z"/><path class="cls-3" d="M159.05,70c-1.8-2.59,6-5.36,6-1.66S161.28,73.21,159.05,70Z"/><path class="cls-3" d="M134.19,98.58c-2.9-3.23,6-5.5,6.63-2S137,101.66,134.19,98.58Z"/><path class="cls-3" d="M169,37.87c3,.58,4.53-5.21,1.78-5.79S164.6,37,169,37.87Z"/><path class="cls-45" d="M56.18,41.78c3.59-3.63,1.78-16.56-1.42-17.62s-7.89,7.69-7.09,12S53.72,44.26,56.18,41.78Z"/><path class="cls-46" d="M25.46,95.14c-1.73-2.66,7-6.54,8.73-3.83S29,100.57,25.46,95.14Z"/><path class="cls-3" d="M19.13,72.74c-4.32-.25-1.84-6.11,1.78-5.34S23.6,73,19.13,72.74Z"/><path class="cls-3" d="M33.27,109.34c-1.91-1.1-2.31-6.48,1.54-5.78S36.2,111,33.27,109.34Z"/><path class="cls-31" d="M110.24,29.4c-1.91-1.11-2.31-6.48,1.54-5.78S113.17,31.09,110.24,29.4Z"/><path class="cls-3" d="M109.56,28.8c-1.91-1.11-2.31-6.48,1.54-5.78S112.49,30.49,109.56,28.8Z"/><path class="cls-31" d="M173.12,85.64c-1.91-1.11-2.31-6.48,1.54-5.78S176.05,87.33,173.12,85.64Z"/><path class="cls-3" d="M172.43,85c-1.9-1.11-2.31-6.48,1.54-5.78S175.36,86.73,172.43,85Z"/><path class="cls-3" d="M24.27,109.47c3.26-.77,1.52-5.75-1.23-5.27S21,110.24,24.27,109.47Z"/><path class="cls-5" d="M4.31,53.67c2,3.6,12.94,6.53,15.1,3.45,1.71-2.45-6.28-14.2-9.61-14.88a2,2,0,0,0-.73,0c1.79-.16,2.8,3,4.84,9.5s-5.44,1.37-7.41,0S4.8,47,4.8,46.93C3.78,49.3,3.38,52,4.31,53.67Z"/><path class="cls-5" d="M62.29,12.07c9.94.8,9.47-3.57,7.47-8.89A5.48,5.48,0,0,0,67.87.41,20.37,20.37,0,0,1,68,4.54c0,4.05-2.77,4.57-4.93,4.06s-1.53-4-1.52-4.06C60,7.63,59.6,11.85,62.29,12.07Z"/><path class="cls-5" d="M129.56,10.36c10.65,4.46,11.07-2,10.89-4.32-.15-1.93-3.16-4.7-5.41-4.65,2.75.59,2.61,2.56,2.51,6.13s-4.11,1.5-6.68.34C129,7,129.08,6.35,129.25,6,128,7.75,127.47,9.48,129.56,10.36Z"/><path class="cls-5" d="M160.42,95.86c.27-2.88-4.73-7.25-7.07-7.92.46.57,1,1.61,1.93,3.09,2.06,3.29,1.13,6.06-2.14,6.37s-4.31-1.8-4.33-1.84a4.57,4.57,0,0,0,1.44,3.77C153.38,102,160.11,99.09,160.42,95.86Z"/><path class="cls-5" d="M47.67,36.11c.81,4.26,6,8.15,8.51,5.67,3.59-3.63,1.78-16.56-1.42-17.62a2.42,2.42,0,0,0-.46-.06c1.16.29,1.39,1.81,1.4,6,0,5.31-2.24,8.93-4.93,6.37a7.69,7.69,0,0,1-2-6.39A11.49,11.49,0,0,0,47.67,36.11Z"/><path class="cls-5" d="M25.46,95.14C29,100.57,35.94,94,34.19,91.31a2.41,2.41,0,0,0-2.07-.9c4.06.31-2.71,4.94-4.66,3.93s-.52-2.24-.49-2.27C25.62,93,24.82,94.15,25.46,95.14Z"/><path class="cls-47" d="M13.81,51.44c-2-6.29-3-9.36-4.74-9.2a3.13,3.13,0,0,0-1.29.57C6.41,44.32,15.15,58.67,13.81,51.44Z"/><path class="cls-48" d="M62.29,3.18a9.86,9.86,0,0,0-.78,1.36,5.5,5.5,0,0,0,.38,3.22,2.49,2.49,0,0,0,1.52.9h.06c3,.42,3.78-8.56,1.36-8.08A9.37,9.37,0,0,0,62.29,3.18Z"/><path class="cls-31" d="M176.08,61.54c-2.88-1.22-.12-6.25,2.79-8.45s5.86-3,7.09,2.35C187.24,61,185.27,65.42,176.08,61.54Z"/><path class="cls-49" d="M175.62,60.75c-2.89-1.22-.12-6.25,2.79-8.44s6.86-3.34,7.09,2.34S184.81,64.63,175.62,60.75Z"/><path class="cls-5" d="M175.62,60.75c9.19,3.88,10.11-.42,9.88-6.1a5.51,5.51,0,0,0-.92-3.22,21.16,21.16,0,0,1-1.21,4c-1.31,3.83-4.07,3.47-6,2.31s-.2-4.29-.17-4.33C174.85,55.82,173.13,59.7,175.62,60.75Z"/><path class="cls-50" d="M178.41,52.31a10.26,10.26,0,0,0-1.17,1,5.45,5.45,0,0,0-.65,3.17,2.49,2.49,0,0,0,1.16,1.33l.06,0c2.73,1.35,6.27-6.94,3.82-7.24A9.35,9.35,0,0,0,178.41,52.31Z"/><path class="cls-51" d="M137.58,6.18c0-2.73-.16-4.28-2.54-4.79a2.07,2.07,0,0,0-1.19.34l-.27.2C131.7,3.77,137.53,12.07,137.58,6.18Z"/><path class="cls-31" d="M50.3,115.76c-4.24-1.78,2.2-7,4.29-8.62,1.83-1.44-3.66,5.06,4.45,4.83C61.36,111.9,61,120.23,50.3,115.76Z"/><path class="cls-52" d="M49.61,115.16c-4.24-1.78,2.14-7.08,4.29-8.62s6.43,2,6.6,4.31S60.27,119.63,49.61,115.16Z"/><path class="cls-5" d="M49.61,115.16c10.66,4.47,11.07-2,10.89-4.31-.15-1.94-3.16-4.7-5.4-4.65,2.75.59,2.6,2.56,2.5,6.13s-4.11,1.5-6.67.33c-1.85-.83-1.8-1.51-1.62-1.82C48,112.55,47.53,114.29,49.61,115.16Z"/><path class="cls-53" d="M57.64,111c0-2.72-.16-4.27-2.54-4.78a2.1,2.1,0,0,0-1.2.34l-.26.19C51.75,108.58,57.58,116.87,57.64,111Z"/><path class="cls-54" d="M149.18,36.72a9.61,9.61,0,0,0,3.71,3.77l.68.31c5.09,1.46,5.24,1,1.55-2.59s-4.62-5-5.8-2.78A4.48,4.48,0,0,0,149.18,36.72Z"/><path class="cls-55" d="M155.91,95.89a2.83,2.83,0,0,0,.45-1.4v-.18A6.21,6.21,0,0,0,155.28,91c-.92-1.48-1.47-2.52-1.93-3.09a1.58,1.58,0,0,0-.75-.07,1.91,1.91,0,0,0-.85.58C150.6,91.21,154.53,96.76,155.91,95.89Z"/><path class="cls-31" d="M23.9,30.46c3.6,2,9.61-2.23,9.26-5.46s-7.65-7-9.28-6.24S19.64,28.12,23.9,30.46Z"/><path class="cls-56" d="M23.11,30c3.6,2,9.61-2.23,9.26-5.46s-7.65-7-9.28-6.24S18.85,27.67,23.11,30Z"/><path class="cls-5" d="M32.37,24.55c-.32-2.87-6.1-6.14-8.53-6.32.57.47,1.31,1.37,2.52,2.64,2.68,2.8,2.33,5.7-.81,6.67s-4.59-.89-4.62-.93A4.58,4.58,0,0,0,23.11,30C26.71,32,32.72,27.78,32.37,24.55Z"/><path class="cls-57" d="M28,25.5A2.88,2.88,0,0,0,28.11,24l0-.17a6.12,6.12,0,0,0-1.72-3c-1.21-1.27-1.95-2.17-2.52-2.64a1.67,1.67,0,0,0-.75.08,2,2,0,0,0-.72.74C21.81,22,26.78,26.62,28,25.5Z"/><path class="cls-58" d="M55.18,34.2a14.75,14.75,0,0,0,.52-4.05c0-4.24-.24-5.76-1.4-6a2.78,2.78,0,0,0-1.7.59C51,26.27,53.26,39,55.18,34.2Z"/><path class="cls-59" d="M27.46,94.34a1.23,1.23,0,0,0,.34.11l.13,0C31.77,93,30.93,91,29.08,91A10.46,10.46,0,0,0,27,92.07S25.54,93.35,27.46,94.34Z"/><path class="cls-5" d="M162.88,43.86c.29-2-4.91-14-9.53-12,3.13-1,5.49,5.32,6.72,9s-4.93.62-7.18-.41a9.61,9.61,0,0,1-3.71-3.77,12.94,12.94,0,0,0,.85,3.83C151.38,44.47,162.59,45.88,162.88,43.86Z"/><path class="cls-60" d="M37.28,23.2c-.36-1.68,8.22-9.7,12.28-9.6S37.9,26,37.28,23.2Z"/><path class="cls-60" d="M37.9,26c0-1.05,5.33-2.78,5.85-1.34S38,27.62,37.9,26Z"/><path class="cls-60" d="M89.76,24.85c.79-1.92,5.16-5.48,7.58-3.78S89.18,26.27,89.76,24.85Z"/><path class="cls-60" d="M86.57,24.72c-1.21-.4,1.08-3.78,1.85-3.7S88.52,25.36,86.57,24.72Z"/><path class="cls-5" d="M62.58,150.48c-1.23-3,12.22-1.9,12.53,1.26S63.81,153.46,62.58,150.48Z"/><path class="cls-5" d="M70.8,157.47c-.58-2.31,8.32-3,8.73-.72S71.21,159.11,70.8,157.47Z"/><path class="cls-5" d="M80.45,153.52c-1.23-1.6,3.18-2.31,3.18-.88A1.72,1.72,0,0,1,80.45,153.52Z"/><path class="cls-5" d="M42.25,137c-2.78-1.34,9.34-7.69,12.73-5.59S45.63,138.67,42.25,137Z"/><path class="cls-5" d="M58.88,135.59c-1.66-.94,3.65-5.85,6.45-5.54S62,137.34,58.88,135.59Z"/><path class="cls-5" d="M24.41,127c-1.63-1.33,1.92-4.31,3.15-2.25S26.29,128.51,24.41,127Z"/><path class="cls-5" d="M28.55,130c-1.65-.69.55-2.75,2-2.14S31,131,28.55,130Z"/><path class="cls-5" d="M134.88,39.76c-4.65,0-8.73-11.9-3.69-9.54S137.35,39.75,134.88,39.76Z"/><path class="cls-5" d="M137.59,40.8c-2.37.18.6-4.63,2.54-3.8S140.19,40.59,137.59,40.8Z"/><path class="cls-5" d="M137.4,33.92c-1.35-1.58,1.51-3.82,2.73-2.27S140.12,37.1,137.4,33.92Z"/><path class="cls-61" d="M94,83.66s2.46,3.47,9.55,2.64S97.24,97.56,94,83.66Z"/></g></g></g></svg>