<svg xmlns="http://www.w3.org/2000/svg" xmlns:xlink="http://www.w3.org/1999/xlink" viewBox="0 0 174.74 181.6"><defs><style>.cls-1{fill:none;}.cls-2{isolation:isolate;}.cls-3{fill:url(#linear-gradient);}.cls-21,.cls-25,.cls-27,.cls-4,.cls-5,.cls-6,.cls-9{opacity:0.39;}.cls-10,.cls-15,.cls-21,.cls-22,.cls-23,.cls-25,.cls-27,.cls-28,.cls-4,.cls-5,.cls-6,.cls-7,.cls-9{mix-blend-mode:multiply;}.cls-4{fill:url(#linear-gradient-2);}.cls-5{fill:url(#linear-gradient-3);}.cls-6{fill:url(#linear-gradient-4);}.cls-8{fill:url(#linear-gradient-5);}.cls-9{fill:url(#linear-gradient-6);}.cls-10{fill:url(#linear-gradient-7);}.cls-11{clip-path:url(#clip-path);}.cls-12{fill:url(#linear-gradient-8);}.cls-13{fill:url(#linear-gradient-9);}.cls-14,.cls-20,.cls-26{opacity:0.36;mix-blend-mode:screen;}.cls-14{fill:url(#linear-gradient-10);}.cls-15{fill:#8486ea;opacity:0.63;}.cls-16{fill:#fff;}.cls-17{clip-path:url(#clip-path-2);}.cls-18{fill:url(#linear-gradient-11);}.cls-19{fill:url(#linear-gradient-12);}.cls-20{fill:url(#linear-gradient-13);}.cls-21{fill:url(#linear-gradient-14);}.cls-22,.cls-28{opacity:0.18;}.cls-22{fill:url(#linear-gradient-15);}.cls-23{opacity:0.65;fill:url(#linear-gradient-16);}.cls-24{fill:#401f15;}.cls-25{fill:url(#linear-gradient-17);}.cls-26{fill:url(#linear-gradient-18);}.cls-27{fill:url(#linear-gradient-19);}.cls-28{fill:#900040;}</style><linearGradient id="linear-gradient" x1="21.75" y1="17.98" x2="163.48" y2="146.87" gradientUnits="userSpaceOnUse"><stop offset="0" stop-color="#d17e60"/><stop offset="1" stop-color="#8b3032"/></linearGradient><linearGradient id="linear-gradient-2" x1="141.79" y1="127" x2="141.79" y2="101.37" gradientTransform="matrix(0.98, -0.17, 0.17, 0.98, -57.3, -39.02)" gradientUnits="userSpaceOnUse"><stop offset="0.13" stop-color="#fff"/><stop offset="0.25" stop-color="#f4e5ec"/><stop offset="0.48" stop-color="#d7a2b9"/><stop offset="0.83" stop-color="#a9386a"/><stop offset="1" stop-color="#900040"/></linearGradient><linearGradient id="linear-gradient-3" x1="82.64" y1="78.62" x2="82.64" y2="23.28" gradientUnits="userSpaceOnUse"><stop offset="0" stop-color="#fff"/><stop offset="0.01" stop-color="#fbf6f8"/><stop offset="0.05" stop-color="#e7c8d6"/><stop offset="0.09" stop-color="#d49db5"/><stop offset="0.14" stop-color="#c47799"/><stop offset="0.2" stop-color="#b65781"/><stop offset="0.25" stop-color="#aa3b6d"/><stop offset="0.32" stop-color="#a0255c"/><stop offset="0.4" stop-color="#99144f"/><stop offset="0.49" stop-color="#940946"/><stop offset="0.63" stop-color="#910241"/><stop offset="1" stop-color="#900040"/></linearGradient><linearGradient id="linear-gradient-4" x1="115.13" y1="70.73" x2="115.13" y2="23.93" gradientUnits="userSpaceOnUse"><stop offset="0" stop-color="#fff"/><stop offset="0.03" stop-color="#f4e5eb"/><stop offset="0.1" stop-color="#dfb5c8"/><stop offset="0.17" stop-color="#cc8aa7"/><stop offset="0.24" stop-color="#bc658b"/><stop offset="0.32" stop-color="#ae4574"/><stop offset="0.41" stop-color="#a32c61"/><stop offset="0.51" stop-color="#9b1852"/><stop offset="0.62" stop-color="#950a48"/><stop offset="0.75" stop-color="#910242"/><stop offset="1" stop-color="#900040"/></linearGradient><linearGradient id="linear-gradient-5" x1="-16.03" y1="-57.11" x2="285.86" y2="288.69" gradientUnits="userSpaceOnUse"><stop offset="0" stop-color="#900040"/><stop offset="0" stop-color="#910141"/><stop offset="0.16" stop-color="#ad4473"/><stop offset="0.31" stop-color="#c67d9d"/><stop offset="0.46" stop-color="#dbabc0"/><stop offset="0.6" stop-color="#ead0dc"/><stop offset="0.73" stop-color="#f6eaef"/><stop offset="0.85" stop-color="#fdf9fb"/><stop offset="0.94" stop-color="#fff"/></linearGradient><linearGradient id="linear-gradient-6" x1="65.85" y1="33.46" x2="204.56" y2="188.37" gradientUnits="userSpaceOnUse"><stop offset="0" stop-color="#900040"/><stop offset="0" stop-color="#910141"/><stop offset="0.17" stop-color="#ad4473"/><stop offset="0.33" stop-color="#c67d9d"/><stop offset="0.49" stop-color="#dbabc0"/><stop offset="0.63" stop-color="#ead0dc"/><stop offset="0.77" stop-color="#f6eaef"/><stop offset="0.89" stop-color="#fdf9fb"/><stop offset="0.99" stop-color="#fff"/></linearGradient><linearGradient id="linear-gradient-7" x1="58.72" y1="-12.65" x2="228" y2="258.32" gradientUnits="userSpaceOnUse"><stop offset="0" stop-color="#900040"/><stop offset="0.28" stop-color="#b55580"/><stop offset="0.54" stop-color="#d59eb6"/><stop offset="0.75" stop-color="#ecd2de"/><stop offset="0.91" stop-color="#faf3f6"/><stop offset="1" stop-color="#fff"/></linearGradient><clipPath id="clip-path"><path class="cls-1" d="M105.62,46c3.45,17,13.41,28.25,19.51,20.53s.41-24-7.32-33.75S100.13,19,105.62,46Z"/></clipPath><linearGradient id="linear-gradient-8" x1="119.24" y1="71.16" x2="110.97" y2="9.67" gradientUnits="userSpaceOnUse"><stop offset="0" stop-color="#fff"/><stop offset="0.14" stop-color="#f8f8fc"/><stop offset="0.36" stop-color="#e3e5f2"/><stop offset="0.61" stop-color="#c2c6e3"/><stop offset="0.9" stop-color="#949bcd"/><stop offset="1" stop-color="#838bc5"/></linearGradient><linearGradient id="linear-gradient-9" x1="238.82" y1="94.52" x2="238.82" y2="53.07" gradientTransform="matrix(1.07, -0.02, -0.17, 0.94, -135.31, -19.3)" gradientUnits="userSpaceOnUse"><stop offset="0" stop-color="#006cff"/><stop offset="0.05" stop-color="#0063eb"/><stop offset="0.2" stop-color="#0049ae"/><stop offset="0.35" stop-color="#003379"/><stop offset="0.5" stop-color="#00214d"/><stop offset="0.64" stop-color="#00122c"/><stop offset="0.77" stop-color="#000814"/><stop offset="0.9" stop-color="#000205"/><stop offset="1"/></linearGradient><linearGradient id="linear-gradient-10" x1="-407.51" y1="-857.84" x2="-422.45" y2="-883.71" gradientTransform="matrix(0.25, 0.97, -0.74, 0.19, -431, 625.72)" gradientUnits="userSpaceOnUse"><stop offset="0"/><stop offset="0.1" stop-color="#222218"/><stop offset="0.36" stop-color="#70704e"/><stop offset="0.58" stop-color="#adad78"/><stop offset="0.77" stop-color="#dada97"/><stop offset="0.91" stop-color="#f5f5aa"/><stop offset="1" stop-color="#ffffb1"/></linearGradient><clipPath id="clip-path-2"><path class="cls-1" d="M100.13,53.71c-3.6-21.57-23.38-35.17-30.09-25S60.49,55.54,78.58,71,102.36,67.13,100.13,53.71Z"/></clipPath><linearGradient id="linear-gradient-11" x1="86.44" y1="79.58" x2="76.71" y2="7.21" xlink:href="#linear-gradient-8"/><linearGradient id="linear-gradient-12" x1="151.5" y1="34.54" x2="151.5" y2="-7.02" gradientTransform="matrix(1.06, 0.17, -0.33, 0.89, -78.9, 6.3)" xlink:href="#linear-gradient-9"/><linearGradient id="linear-gradient-13" x1="-479.82" y1="-767.58" x2="-497.08" y2="-797.48" gradientTransform="matrix(0.07, 1, -0.76, 0.05, -484.77, 589.2)" xlink:href="#linear-gradient-10"/><linearGradient id="linear-gradient-14" x1="50.56" y1="124.69" x2="192.29" y2="253.57" gradientUnits="userSpaceOnUse"><stop offset="0" stop-color="#900040"/><stop offset="0" stop-color="#910141"/><stop offset="0.17" stop-color="#ad4473"/><stop offset="0.33" stop-color="#c67d9d"/><stop offset="0.49" stop-color="#dbabc0"/><stop offset="0.64" stop-color="#ead0dc"/><stop offset="0.78" stop-color="#f6eaef"/><stop offset="0.9" stop-color="#fdf9fb"/><stop offset="1" stop-color="#fff"/></linearGradient><linearGradient id="linear-gradient-15" x1="13.79" y1="35.14" x2="116.87" y2="196.61" xlink:href="#linear-gradient-14"/><linearGradient id="linear-gradient-16" x1="94.32" y1="124.47" x2="236.05" y2="253.35" xlink:href="#linear-gradient-14"/><linearGradient id="linear-gradient-17" x1="-659.6" y1="328.75" x2="-659.6" y2="314.16" gradientTransform="matrix(-0.83, 0.55, 0.55, 0.83, -614.48, 177.32)" gradientUnits="userSpaceOnUse"><stop offset="0" stop-color="#fff"/><stop offset="0.09" stop-color="#fcf7f9"/><stop offset="0.22" stop-color="#f2e1e9"/><stop offset="0.38" stop-color="#e3bece"/><stop offset="0.57" stop-color="#cd8ca9"/><stop offset="0.78" stop-color="#b14d79"/><stop offset="1" stop-color="#900040"/></linearGradient><linearGradient id="linear-gradient-18" x1="47.45" y1="-11.1" x2="55.19" y2="9.02" gradientUnits="userSpaceOnUse"><stop offset="0" stop-color="#ffffb1"/><stop offset="0.08" stop-color="#dbdb98"/><stop offset="0.22" stop-color="#a2a270"/><stop offset="0.36" stop-color="#70704e"/><stop offset="0.5" stop-color="#484832"/><stop offset="0.64" stop-color="#29291c"/><stop offset="0.77" stop-color="#12120d"/><stop offset="0.89" stop-color="#050503"/><stop offset="1"/></linearGradient><linearGradient id="linear-gradient-19" x1="104.7" y1="138.28" x2="119.54" y2="84.79" gradientUnits="userSpaceOnUse"><stop offset="0.01" stop-color="#fff"/><stop offset="0.04" stop-color="#faf3f6"/><stop offset="0.25" stop-color="#daaabf"/><stop offset="0.45" stop-color="#c06d92"/><stop offset="0.63" stop-color="#ab3e6f"/><stop offset="0.78" stop-color="#9c1c55"/><stop offset="0.91" stop-color="#930846"/><stop offset="1" stop-color="#900040"/></linearGradient></defs><g class="cls-2"><g id="Слой_2" data-name="Слой 2"><g id="Layer_2" data-name="Layer 2"><path class="cls-3" d="M6.82,38.87c14.72,23.22,45.53,77.29,65.05,109.8s12.2,34.13,48.38,32.51,54.89-15.28,54.49-26.34S157.66,66.92,139,36,119.44,2.28,78,.65-19.61-2.81,6.82,38.87Z"/><path class="cls-4" d="M94,50s1-26.59,13.54-5.16S96.91,61.14,96.91,61.14Z"/><path class="cls-5" d="M66.07,53.22s-5.89-23.19,6.77-29S99,40.47,100.27,54.69,98.91,77.29,94,78.51,71.81,70.77,66.07,53.22Z"/><path class="cls-6" d="M106.6,50.07S100,26.82,104,24.39s10.76,5.74,10.76,5.74,21.92,33.9,8.2,40-17.08-35.68-17.08-35.68Z"/><g class="cls-7"><path class="cls-8" d="M157.08,146.86C155,131.63,146.38,83.8,114.8,30.13a16.15,16.15,0,0,0-13.26-8C88.25,21.62,62.1,21,39.89,23.47l-.56.1a10.75,10.75,0,0,0,.83,9.22l66.7,113.44a17.23,17.23,0,0,0,15.65,8.49c9.14-.4,22.7-1.75,34.53-5.85A7.1,7.1,0,0,0,157.08,146.86Z"/></g><path class="cls-9" d="M173.51,145.87a2.17,2.17,0,0,0,0-.25c-.08-.42-.16-.86-.24-1.33C168.7,119.38,154.54,61.77,139,36c-7-11.56-11.5-19.19-16.55-24.3-1.06-.91-7.16-4.41-37.33-3.34L37.43,10.05A13.21,13.21,0,0,0,26.48,29.9L100,156a20.11,20.11,0,0,0,20,9.8C140.11,163.16,175.68,157,173.51,145.87Zm-12.37,1.44c-12.66,5.34-28.41,7-38.63,7.41a17.23,17.23,0,0,1-15.65-8.49L40.16,32.79a10.81,10.81,0,0,1,8.06-16.23c22.21-2.44,48.36-1.85,61.65-1.3a16.15,16.15,0,0,1,13.26,8C154.72,76.89,163.35,124.71,165.41,140A7,7,0,0,1,161.14,147.31Z"/><path class="cls-10" d="M165.41,140c-2.06-15.24-10.69-63.06-42.28-116.73a16.15,16.15,0,0,0-13.26-8c-13.29-.55-39.44-1.14-61.65,1.3a10.67,10.67,0,0,0-8.89,7l.56-.1c22.21-2.44,48.36-1.85,61.65-1.3a16.15,16.15,0,0,1,13.26,8C146.38,83.8,155,131.63,157.08,146.86a7.1,7.1,0,0,1,0,2c1.39-.48,2.76-1,4.1-1.56A7,7,0,0,0,165.41,140Z"/><g class="cls-11"><path class="cls-12" d="M105.62,46c3.45,17,13.41,28.25,19.51,20.53s.41-24-7.32-33.75S100.13,19,105.62,46Z"/><path class="cls-13" d="M120.33,45.56C121,56.26,116.4,64.14,110,63.08s-12-10.56-12.63-21.14,4-18.14,10.26-17.2S119.62,35,120.33,45.56Z"/><path class="cls-14" d="M103.79,65.72c-3-11.66,3.59-25.78,10.77-21.41,3.82,2.32,8.28,8.71,8.28,19.52C122.84,67.55,108.74,84.68,103.79,65.72Z"/><path class="cls-15" d="M101.36,67.87S100.14,52,107.62,44.32C118.43,33.21,129,47.21,128,64.11,126.86,84,144.72,37,144.72,37s-6.34-16.32-9.59-15.19S97,25.64,97,25.64,85.34,61.52,87.23,64.78,101.36,67.87,101.36,67.87Z"/><path class="cls-16" d="M105.77,33.7c1.13-6,8.16,6.58,6,8.07S104.08,42.62,105.77,33.7Z"/></g><g class="cls-17"><path class="cls-18" d="M100.13,53.71c-3.6-21.57-23.38-35.17-30.09-25S60.49,55.54,78.58,71,102.36,67.13,100.13,53.71Z"/><path class="cls-19" d="M91.15,47.56C89.63,58.2,82.09,65.13,74.36,63S61.78,50.42,63.42,39.9s9-17.14,16.62-15.1S92.65,37,91.15,47.56Z"/><path class="cls-20" d="M66.08,64.45c-1.16-12,10.25-24.74,18.2-19.16,4.22,3,8.32,10.05,5.89,20.68C89.33,69.64,68,84,66.08,64.45Z"/><path class="cls-15" d="M65.44,69.93s.09-25,11.11-31.26c15.92-9,27.81,15.84,22.81,32.3C93.5,90.3,126.24,47.24,126.24,47.24s-4.21-17.19-8.5-16.65-48.22-3-48.22-3S47,60.82,48.59,64.37,65.44,69.93,65.44,69.93Z"/><path class="cls-16" d="M70,32.94c2.74-5.65,8.65,7.92,5.65,9S65.92,41.41,70,32.94Z"/></g><path class="cls-21" d="M114.7,165.74l0,0A20,20,0,0,1,100,156c5.76,19.52-12.63,19.23-12.63,19.23,4,5,8.56,6.4,19.2,6.39C106.47,181.53,94.9,175.17,114.7,165.74Z"/><path class="cls-22" d="M100,156,26.48,29.9S-3.1,9.42,2.76,31.43a56.76,56.76,0,0,0,4.06,7.44c14.72,23.22,45.53,77.29,65.05,109.8,8.13,13.53,11.6,21.7,15.5,26.53C87.37,175.2,105.76,175.49,100,156Z"/><path class="cls-23" d="M174.74,154.84c0-.88-.18-2.2-.41-3.83l-3.12.49c-8.09,7.62-34.8,12.14-51.25,14.27a20.17,20.17,0,0,1-5.21-.05l0,0c-19.8,9.43-8.23,15.79-8.13,15.85,3.73,0,8.2-.17,13.68-.41C156.44,179.55,175.14,165.9,174.74,154.84Z"/><path class="cls-24" d="M114.24,71.19s-.29,7.93-8.32-3.55c0,0,3.2,8,6.33,8S114.24,71.19,114.24,71.19Z"/><path class="cls-25" d="M116.4,75.34s-.14,4.21-6.43,7.41S121.34,88.58,116.4,75.34Z"/><path class="cls-24" d="M68.72,17.32s2.74-8.44,8.64-5.49C77.36,11.83,70.65-.47,68.72,17.32Z"/><path class="cls-24" d="M92.1,10.92s2.28-4.58,9,2.44C101.12,13.36,91.08-.57,92.1,10.92Z"/><path class="cls-26" d="M19.83,9.87c25.2-6.58,74-9.56,95.42-3.5C107.66,2.43,97.18,1.4,78,.65,39.74-.85-10.86-2.49,2.13,29.89.85,25.89-.46,15.16,19.83,9.87Z"/><path class="cls-27" d="M118.17,98.83s-.89-12,5.41-11.77c6,.17,11.64,15.12,5,31.2a3.1,3.1,0,0,1-3.61,1.86c-5.36-1.35-18-5.3-24.83-13.87C91.26,95.17,105.25,82.16,118.17,98.83Z"/><path class="cls-28" d="M123.58,87.06c-6.3-.19-5.41,11.77-5.41,11.77-11.22-14.47-23.23-6.58-20.42,3,2.07-6.38,11.5-9,20.42,2.49,0,0-.89-12,5.41-11.77,5.78.16,7.28,12.32,1.44,27.57a3.08,3.08,0,0,0,3.52-1.86C135.22,102.17,129.58,87.23,123.58,87.06Z"/></g></g></g></svg>