<svg xmlns="http://www.w3.org/2000/svg" xmlns:xlink="http://www.w3.org/1999/xlink" viewBox="0 0 170.45 170.23"><defs><style>.cls-1{fill:none;}.cls-2{isolation:isolate;}.cls-3{fill:url(#linear-gradient);}.cls-10,.cls-11,.cls-12,.cls-13,.cls-32,.cls-36,.cls-4,.cls-5,.cls-6,.cls-8,.cls-9{opacity:0.39;}.cls-10,.cls-11,.cls-12,.cls-13,.cls-25,.cls-32,.cls-36,.cls-4,.cls-5,.cls-6,.cls-8,.cls-9{mix-blend-mode:multiply;}.cls-4{fill:url(#linear-gradient-2);}.cls-5{fill:url(#linear-gradient-3);}.cls-6{fill:url(#linear-gradient-4);}.cls-14,.cls-15,.cls-16,.cls-17,.cls-18,.cls-19,.cls-20,.cls-24,.cls-30,.cls-33,.cls-34,.cls-37,.cls-7{opacity:0.36;}.cls-14,.cls-15,.cls-16,.cls-17,.cls-18,.cls-19,.cls-20,.cls-33,.cls-34,.cls-7{mix-blend-mode:color-dodge;}.cls-7{fill:url(#linear-gradient-5);}.cls-8{fill:url(#linear-gradient-6);}.cls-9{fill:url(#linear-gradient-7);}.cls-10{fill:url(#linear-gradient-8);}.cls-11{fill:url(#linear-gradient-9);}.cls-12{fill:url(#linear-gradient-10);}.cls-13{fill:url(#linear-gradient-11);}.cls-14{fill:url(#linear-gradient-12);}.cls-15{fill:url(#linear-gradient-13);}.cls-16{fill:url(#linear-gradient-14);}.cls-17{fill:url(#linear-gradient-15);}.cls-18{fill:url(#linear-gradient-16);}.cls-19{fill:url(#linear-gradient-17);}.cls-20{fill:url(#linear-gradient-18);}.cls-21{clip-path:url(#clip-path);}.cls-22{fill:url(#linear-gradient-19);}.cls-23{fill:url(#linear-gradient-20);}.cls-24,.cls-30,.cls-37{mix-blend-mode:screen;}.cls-24{fill:url(#linear-gradient-21);}.cls-25{fill:#8486ea;opacity:0.63;}.cls-26{fill:#fff;}.cls-27{clip-path:url(#clip-path-2);}.cls-28{fill:url(#linear-gradient-22);}.cls-29{fill:url(#linear-gradient-23);}.cls-30{fill:url(#linear-gradient-24);}.cls-31{fill:url(#linear-gradient-25);}.cls-32{fill:url(#linear-gradient-26);}.cls-33{fill:url(#linear-gradient-27);}.cls-34{fill:url(#linear-gradient-28);}.cls-35{fill:#401f15;}.cls-36{fill:url(#linear-gradient-29);}.cls-37{fill:url(#linear-gradient-30);}</style><linearGradient id="linear-gradient" x1="49.76" y1="26.36" x2="129.87" y2="148.93" gradientUnits="userSpaceOnUse"><stop offset="0" stop-color="#e59540"/><stop offset="0.26" stop-color="#df763a"/><stop offset="0.55" stop-color="#da5b35"/><stop offset="0.8" stop-color="#d74b32"/><stop offset="1" stop-color="#d64531"/></linearGradient><linearGradient id="linear-gradient-2" x1="39.7" y1="279.93" x2="39.7" y2="255.65" gradientTransform="translate(-15.06 -212.33) rotate(-12.83)" gradientUnits="userSpaceOnUse"><stop offset="0.13" stop-color="#fff"/><stop offset="0.25" stop-color="#f4e5ec"/><stop offset="0.48" stop-color="#d7a2b9"/><stop offset="0.83" stop-color="#a9386a"/><stop offset="1" stop-color="#900040"/></linearGradient><linearGradient id="linear-gradient-3" x1="12.34" y1="54.63" x2="12.87" y2="55.16" gradientUnits="userSpaceOnUse"><stop offset="0" stop-color="#fff"/><stop offset="0" stop-color="#fffefe"/><stop offset="0.12" stop-color="#e5c3d2"/><stop offset="0.25" stop-color="#ce8fab"/><stop offset="0.37" stop-color="#bb638a"/><stop offset="0.5" stop-color="#ac4070"/><stop offset="0.62" stop-color="#a0245b"/><stop offset="0.75" stop-color="#97104c"/><stop offset="0.87" stop-color="#920443"/><stop offset="1" stop-color="#900040"/></linearGradient><linearGradient id="linear-gradient-4" x1="9.21" y1="20.36" x2="152.16" y2="163.31" gradientUnits="userSpaceOnUse"><stop offset="0" stop-color="#900040"/><stop offset="0.13" stop-color="#920443"/><stop offset="0.25" stop-color="#97104c"/><stop offset="0.38" stop-color="#a0245b"/><stop offset="0.5" stop-color="#ac4070"/><stop offset="0.63" stop-color="#bb638a"/><stop offset="0.75" stop-color="#ce8fab"/><stop offset="0.88" stop-color="#e5c3d2"/><stop offset="1" stop-color="#fffefe"/><stop offset="1" stop-color="#fff"/></linearGradient><linearGradient id="linear-gradient-5" x1="66.87" y1="15.18" x2="93.37" y2="55.73" gradientUnits="userSpaceOnUse"><stop offset="0" stop-color="#ffc768"/><stop offset="0.13" stop-color="#e5b35d"/><stop offset="0.4" stop-color="#a27e42"/><stop offset="0.8" stop-color="#382c17"/><stop offset="1"/></linearGradient><linearGradient id="linear-gradient-6" x1="75.13" y1="66.69" x2="75.13" y2="8.16" gradientUnits="userSpaceOnUse"><stop offset="0.49" stop-color="#fff"/><stop offset="0.56" stop-color="#fdfbfc"/><stop offset="0.62" stop-color="#f8eff3"/><stop offset="0.68" stop-color="#efdbe4"/><stop offset="0.75" stop-color="#e3bfcf"/><stop offset="0.81" stop-color="#d39bb4"/><stop offset="0.87" stop-color="#c06f93"/><stop offset="0.94" stop-color="#aa3b6c"/><stop offset="1" stop-color="#900040"/></linearGradient><linearGradient id="linear-gradient-7" x1="115.93" y1="57.68" x2="156.85" y2="-7.42" gradientUnits="userSpaceOnUse"><stop offset="0.31" stop-color="#fff"/><stop offset="0.31" stop-color="#fffefe"/><stop offset="0.4" stop-color="#e5c3d2"/><stop offset="0.48" stop-color="#ce8fab"/><stop offset="0.57" stop-color="#bb638a"/><stop offset="0.65" stop-color="#ac4070"/><stop offset="0.74" stop-color="#a0245b"/><stop offset="0.83" stop-color="#97104c"/><stop offset="0.91" stop-color="#920443"/><stop offset="1" stop-color="#900040"/></linearGradient><linearGradient id="linear-gradient-8" x1="57.49" y1="51.58" x2="57.49" y2="21.33" gradientUnits="userSpaceOnUse"><stop offset="0" stop-color="#fff"/><stop offset="0.13" stop-color="#f4e5ec"/><stop offset="0.4" stop-color="#d7a2b9"/><stop offset="0.8" stop-color="#a9386a"/><stop offset="1" stop-color="#900040"/></linearGradient><linearGradient id="linear-gradient-9" x1="104.65" y1="51.53" x2="104.65" y2="17.8" xlink:href="#linear-gradient-8"/><linearGradient id="linear-gradient-10" x1="52.1" y1="73.4" x2="52.1" y2="-12.5" gradientUnits="userSpaceOnUse"><stop offset="0" stop-color="#fff"/><stop offset="0.01" stop-color="#fdfbfc"/><stop offset="0.23" stop-color="#ddb0c4"/><stop offset="0.43" stop-color="#c17195"/><stop offset="0.62" stop-color="#ac4070"/><stop offset="0.78" stop-color="#9d1d56"/><stop offset="0.91" stop-color="#930846"/><stop offset="1" stop-color="#900040"/></linearGradient><linearGradient id="linear-gradient-11" x1="117.27" y1="72.74" x2="117.27" y2="-17.74" xlink:href="#linear-gradient-10"/><linearGradient id="linear-gradient-12" x1="26.37" y1="41.65" x2="106.48" y2="164.22" xlink:href="#linear-gradient-5"/><linearGradient id="linear-gradient-13" x1="6.73" y1="54.49" x2="86.84" y2="177.05" xlink:href="#linear-gradient-5"/><linearGradient id="linear-gradient-14" x1="10.58" y1="51.97" x2="90.69" y2="174.54" xlink:href="#linear-gradient-5"/><linearGradient id="linear-gradient-15" x1="32.14" y1="37.88" x2="112.25" y2="160.45" xlink:href="#linear-gradient-5"/><linearGradient id="linear-gradient-16" x1="62.98" y1="17.72" x2="143.09" y2="140.29" xlink:href="#linear-gradient-5"/><linearGradient id="linear-gradient-17" x1="82.33" y1="5.08" x2="162.44" y2="127.65" xlink:href="#linear-gradient-5"/><linearGradient id="linear-gradient-18" x1="165.72" y1="-5.42" x2="81.22" y2="114.17" gradientUnits="userSpaceOnUse"><stop offset="0" stop-color="#ffc768"/><stop offset="0.04" stop-color="#fac366"/><stop offset="0.09" stop-color="#ebb760"/><stop offset="0.14" stop-color="#d1a355"/><stop offset="0.2" stop-color="#ae8847"/><stop offset="0.26" stop-color="#816535"/><stop offset="0.32" stop-color="#4a3a1e"/><stop offset="0.38" stop-color="#0a0804"/><stop offset="0.39"/><stop offset="0.52"/><stop offset="0.54" stop-color="#0c0905"/><stop offset="0.57" stop-color="#2b2212"/><stop offset="0.62" stop-color="#5e4926"/><stop offset="0.67" stop-color="#a48043"/><stop offset="0.73" stop-color="#fcc567"/><stop offset="0.73" stop-color="#ffc768"/></linearGradient><clipPath id="clip-path"><path class="cls-1" d="M76.47,50.44s-3.41-11.65-39.22,4c0,0,1.7-19.75,23-24.3S76.47,50.44,76.47,50.44Z"/></clipPath><linearGradient id="linear-gradient-19" x1="57.13" y1="52.87" x2="57.13" y2="24.91" gradientUnits="userSpaceOnUse"><stop offset="0" stop-color="#fff"/><stop offset="0.14" stop-color="#f8f8fc"/><stop offset="0.36" stop-color="#e3e5f2"/><stop offset="0.61" stop-color="#c2c6e3"/><stop offset="0.9" stop-color="#949bcd"/><stop offset="1" stop-color="#838bc5"/></linearGradient><linearGradient id="linear-gradient-20" x1="259.7" y1="44.26" x2="247.41" y2="13.25" gradientTransform="matrix(1.06, 0.17, -0.33, 0.89, -193.68, -23.92)" gradientUnits="userSpaceOnUse"><stop offset="0" stop-color="#006cff"/><stop offset="0.1" stop-color="#0060e2"/><stop offset="0.55" stop-color="#002d6a"/><stop offset="0.86" stop-color="#000d1e"/><stop offset="1"/></linearGradient><linearGradient id="linear-gradient-21" x1="-176.49" y1="-1146.7" x2="-192.74" y2="-1174.85" gradientTransform="matrix(0.07, 1, -0.76, 0.05, -807.31, 303)" gradientUnits="userSpaceOnUse"><stop offset="0"/><stop offset="0.1" stop-color="#222218"/><stop offset="0.36" stop-color="#70704e"/><stop offset="0.58" stop-color="#adad78"/><stop offset="0.77" stop-color="#dada97"/><stop offset="0.91" stop-color="#f5f5aa"/><stop offset="1" stop-color="#ffffb1"/></linearGradient><clipPath id="clip-path-2"><path class="cls-1" d="M95.51,54.42s7.67-16.62,38.93-11.93c0,0-13.92-16.49-32.4-14.78S95.51,54.42,95.51,54.42Z"/></clipPath><linearGradient id="linear-gradient-22" x1="113.08" y1="52.75" x2="113.08" y2="23.21" xlink:href="#linear-gradient-19"/><linearGradient id="linear-gradient-23" x1="286.38" y1="37.67" x2="286.38" y2="4.32" xlink:href="#linear-gradient-20"/><linearGradient id="linear-gradient-24" x1="-175.36" y1="-1196.7" x2="-191.84" y2="-1225.25" xlink:href="#linear-gradient-21"/><linearGradient id="linear-gradient-25" x1="67.01" y1="57.53" x2="99.75" y2="107.62" gradientUnits="userSpaceOnUse"><stop offset="0" stop-color="#e7e7e5"/><stop offset="0.06" stop-color="#e9d4d5"/><stop offset="0.18" stop-color="#ecb1b7"/><stop offset="0.31" stop-color="#ef939f"/><stop offset="0.45" stop-color="#f17d8c"/><stop offset="0.6" stop-color="#f36c7e"/><stop offset="0.77" stop-color="#f46376"/><stop offset="1" stop-color="#f46074"/></linearGradient><linearGradient id="linear-gradient-26" x1="64.5" y1="53.69" x2="101.91" y2="110.93" gradientUnits="userSpaceOnUse"><stop offset="0.35" stop-color="#ba001a"/><stop offset="0.48" stop-color="#c9384d"/><stop offset="0.74" stop-color="#e6a2ac"/><stop offset="0.92" stop-color="#f8e5e8"/><stop offset="1" stop-color="#fff"/></linearGradient><linearGradient id="linear-gradient-27" x1="64.4" y1="53.75" x2="101.81" y2="110.99" gradientUnits="userSpaceOnUse"><stop offset="0.13" stop-color="#ff6ab0"/><stop offset="0.2" stop-color="#db5b97"/><stop offset="0.32" stop-color="#a24370"/><stop offset="0.44" stop-color="#702f4e"/><stop offset="0.56" stop-color="#481e32"/><stop offset="0.68" stop-color="#29111c"/><stop offset="0.8" stop-color="#12080d"/><stop offset="0.9" stop-color="#050203"/><stop offset="1"/></linearGradient><linearGradient id="linear-gradient-28" x1="62.18" y1="55.2" x2="99.59" y2="112.45" xlink:href="#linear-gradient-27"/><linearGradient id="linear-gradient-29" x1="59.75" y1="47.18" x2="139.86" y2="169.75" gradientUnits="userSpaceOnUse"><stop offset="0.18" stop-color="#900040"/><stop offset="0.35" stop-color="#a9386a"/><stop offset="0.67" stop-color="#d7a2b9"/><stop offset="0.9" stop-color="#f4e5ec"/><stop offset="1" stop-color="#fff"/></linearGradient><linearGradient id="linear-gradient-30" x1="31.55" y1="25.07" x2="53.75" y2="53.4" gradientUnits="userSpaceOnUse"><stop offset="0" stop-color="#ffffb1"/><stop offset="0.08" stop-color="#dbdb98"/><stop offset="0.21" stop-color="#a2a270"/><stop offset="0.35" stop-color="#70704e"/><stop offset="0.48" stop-color="#484832"/><stop offset="0.61" stop-color="#29291c"/><stop offset="0.73" stop-color="#12120d"/><stop offset="0.85" stop-color="#050503"/><stop offset="0.96"/></linearGradient></defs><g class="cls-2"><g id="Слой_2" data-name="Слой 2"><g id="Layer_2" data-name="Layer 2"><path class="cls-3" d="M169.47,108.57c.19,3.53-1.46,6.09-3.36,8.9-5.62,8.3-10.88,17.05-13.75,26.76a4.15,4.15,0,0,1-3.53,2.92c-4,.48-8.68,1.95-11.59,4.24a31.07,31.07,0,0,1-16,6.72c-5.88.57-11.93-.5-17.41,2.69-3.25,1.89-5.56,4.91-7.92,7.85a4.14,4.14,0,0,1-5.66.81,17.17,17.17,0,0,0-5.55-2.6c-5.72-1.53-11.78-.49-17.63-1.3a22.75,22.75,0,0,1-8.4-2.85c-2.7-1.56-4.83-3.79-7.25-5.74a18.24,18.24,0,0,0-13.64-4.11,4.18,4.18,0,0,1-4.26-3,14.47,14.47,0,0,0-2.64-4.82c-1.78-2.15-4.26-3.51-6.42-5.24a33.58,33.58,0,0,1-6.1-6.22C15,129,14,123.1,10.3,118.64a22.42,22.42,0,0,0-7.9-6,4.32,4.32,0,0,1-2.3-4.9,58.81,58.81,0,0,0,.79-13.5C.71,86.93,1.13,80,5,73.5c1.73-2.92,4.47-5.25,5.86-8.33s1.45-7,1.73-10.4a54,54,0,0,0,.11-9.2,4.42,4.42,0,0,1,3.15-4.66c.42-.14.84-.28,1.26-.45A26.08,26.08,0,0,0,26,33.91c5.65-5.9,10.89-12.3,18.2-16.11s15.55-4.74,22.93-8A58.47,58.47,0,0,0,81.24,1,4,4,0,0,1,86.55,1a33.33,33.33,0,0,0,14,7c7.12,1.85,14.79,2.11,21.44,5.45,3.3,1.67,6.22,4,9.43,5.82a30.53,30.53,0,0,0,9.32,3.42,30.25,30.25,0,0,0,8.79.34A4.15,4.15,0,0,1,154,27.6a24,24,0,0,0,2.13,12.6c1.47,2.91,3.67,5.32,5.15,8.2,1.58,3.07,1.91,6.52,1.95,10,.08,6.53-.81,13.3,1.45,19.56a23.41,23.41,0,0,0,3.9,6.89,8.34,8.34,0,0,1,1.4,7.94,24.62,24.62,0,0,0-1.3,6.59C168.51,102.47,169.3,105.47,169.47,108.57Z"/><path class="cls-4" d="M75,41.36s6-26.6,14.93-6c9.23,21.33-11.59,15.88-11.59,15.88Z"/><path class="cls-5" d="M12.56,55c0-.06,0-.13,0-.19S12.57,54.9,12.56,55Z"/><path class="cls-6" d="M168.6,84.8a23.41,23.41,0,0,1-3.9-6.89c0-.12-.07-.25-.11-.37-4.32-4.49-10.42-8.76-18.4-9.52C131,66.56,133,78,117.92,78.59c2.5-2.51,4.35-6,2.5-10.39-3.47-8.27-18.7-2.1-22.5-.4,3.36-1.58,7.83-4.56,8.67-9.54.6-3.57.36-6.41.85-9.22-.52,2.17-2.93,9.69-11.72,16-2-3.83-6.45-8.9-14-1.8,0,0-14.46-6.47-12.51,9.4a17.14,17.14,0,0,0-14.06-6.39c-10.23.57-39.77,11.93-41.91-7.68A22.33,22.33,0,0,0,12.56,55c-.12,1.53-.2,3.16-.38,4.78C12.06,66.29,13.49,77.08,24,77.87c10.8.81,22-7.84,34.51-6.44A14.57,14.57,0,0,0,48.43,79c-7.2,12.5,13.46,10.78,13.46,10.78-2.66.14-10.47,1.83-17,16.21-8,17.62-25,18.56-37.11,10.13L7.63,116a22,22,0,0,1,2.67,2.62,20,20,0,0,1,2.1,3.14c5.07,4,15.38,9.91,26.55,3.27,11.76-7,11.29-22.58,17.52-29.18-1.28,3.11-1.7,7.57.66,13.83,4.6,12.23,11.36,2.66,13.8-1.49-1,2.31-1.27,5.74-.35,10.87,3.61,20.18-12.39,37-23.51,35.22a18.3,18.3,0,0,1,3.71,2.19c10.08,1.61,25.46,1.46,27.31-14,2.07-17.26-5.65-26.29-4.7-31.55,1.88,4.66,5.55,11.53,11.2,13.13,6.87,1.93,8.69-7.84,9.15-12.12a17.82,17.82,0,0,0,6,14.2c8.64,7.81,17.73,20.43,4.82,33.84,0,.17-.11.33-.16.49a21.31,21.31,0,0,1,9.37-2.1c6.62-6,12-15.29,3.47-26.92-7.38-10-12.9-12.18-16-14.29a13.71,13.71,0,0,0,8.35,1c6.76-1.19,4.09-8.45,1.13-13.74,2.47,2.35,6.28,4.56,12.18,6,20.64,5.15,28.66,13.27,25.93,36.63a4.15,4.15,0,0,0,3.53-2.92c.39-1.33.84-2.65,1.32-3.95,1.27-8.39,1-20.5-8.06-29.84-13.08-13.55-28.73-.75-34.08-10.21,2.74.21,6.62-.46,11.35-3.92,9.66-7.07-11.65-13.26-11.65-13.26,12.87,4,19.76-8.3,35.14-6C163.71,79.57,170,92.74,170,92.74A8.34,8.34,0,0,0,168.6,84.8Z"/><path class="cls-7" d="M80.33,39.79C93,58.49,83.88,68.13,79.8,71.2l5.42-3.56A22.8,22.8,0,0,0,88.4,45.19C83.29,32.4,66.4,20.66,81.24,1A58.88,58.88,0,0,1,70.6,8.12S64.57,16.48,80.33,39.79Z"/><path class="cls-8" d="M80.45,46.61C87,53.39,86.7,58.82,84.81,62.52a9.92,9.92,0,0,1,1,.69c1.89-5.23,1.67-12.88-5.45-23.42C64.57,16.48,70.58,8.14,70.58,8.14c-.92.48-1.88.93-2.85,1.37C57.12,26,68.17,34,80.45,46.61Z"/><path class="cls-9" d="M111,36.45a44.63,44.63,0,0,0-1.45,7.29,29.36,29.36,0,0,1,6.81-6.84C127.89,28,154,27.6,154,27.6a4.15,4.15,0,0,0-4.46-4.55,30.25,30.25,0,0,1-8.79-.34,29.58,29.58,0,0,1-6.45-2C124.56,22.1,113.74,26.06,111,36.45Z"/><path class="cls-10" d="M37.77,51.58S39,40.17,56.57,24.92c0,0,10.12-7.66,14-.62S78.17,37.08,77,43.91s-19.87-8.46-19.87-8.46Z"/><path class="cls-11" d="M121.33,32.12s-10.12-8.6-18.72-11.8S88.05,16.3,88,21.9s1.24,21.93,5.91,28.47,12.56-16.76,12.56-16.76Z"/><path class="cls-12" d="M27.11,55.61s6.73-5.5,10.14-1.19L57.52,43l17.53,3.13,1.42,4.31s5-24.48-13.64-22.3S38.19,46,37.25,51.82C37.25,51.82,35.54,47,27.11,55.61Z"/><path class="cls-13" d="M95.31,54S85,36.67,94.09,28s30.55,2.66,39.62,13c0,0,.83-7.09,10.49,2.48,0,0-8.34-5.87-9.76-1l-30.69-8.2L98.63,45.38Z"/><path class="cls-14" d="M55.15,66.22c10.23-.57,15.43,8.24,15.43,8.24s15.55,19.89,1.91-2.14-28.42-3.83-44-8.94S13.24,43,13.24,43a4.39,4.39,0,0,0-.55,2.57,54,54,0,0,1-.11,9.2c0,.06,0,.13,0,.19a22.33,22.33,0,0,1,.68,3.58C15.38,78.15,44.92,66.79,55.15,66.22Z"/><path class="cls-15" d="M44.92,106c8-17.62,17.91-16.19,17.91-16.19s21.88,3.12,2.55-2S43.22,110,25.6,113.39s-24.75-2-24.75-2a3.87,3.87,0,0,0,1.55,1.27A22.65,22.65,0,0,1,7.63,116l.18.11C19.87,124.56,37,123.62,44.92,106Z"/><path class="cls-16" d="M70.58,119.08C67,98.9,82.15,104.58,82.15,104.58s5.12-2-8.18-2-2.33,17.34-9.72,31.27-26.46,19-26.46,19a19,19,0,0,1,9.28,1.44C58.19,156,74.19,139.26,70.58,119.08Z"/><path class="cls-17" d="M99.77,126.18a18.32,18.32,0,0,1-5.4-18.47s-.57-12.5-2.66,2.81,7.78,11.12,12,28.17c3.31,13.23-3.22,23.94-6.32,28.08a24.58,24.58,0,0,1,6.41-6C117.86,147.1,108.58,134.14,99.77,126.18Z"/><path class="cls-18" d="M122.9,110.52c-19.57-4.89-16.31-17.8-16.31-17.8s-2.56-10.59-2,6.18,27.28,9.29,35.81,26.71c7.11,14.52-3.17,25.78-3.17,25.78,2.91-2.29,7.56-3.76,11.59-4.24C151.56,123.79,143.54,115.67,122.9,110.52Z"/><path class="cls-19" d="M170,92.74S163.71,79.57,146.38,77,122.51,90.37,106,80.71s2,4.4,2,4.4,2,3.27,22.17-1.27,34.38,8,38.65,19.06l0,.06a20.89,20.89,0,0,1-.15-3.63A24.62,24.62,0,0,1,170,92.74Z"/><path class="cls-20" d="M106.59,58.26c-1.38,8.15-12.5,11-12.5,11H97.5s13.15-.76,13.54-14.83S150.68,31,155.63,39.08a.13.13,0,0,1,0,.06A24.91,24.91,0,0,1,154,27.6s-26.13.44-37.62,9.3S108,50.11,106.59,58.26Z"/><g class="cls-21"><path class="cls-22" d="M76.47,50.44s-3.41-11.65-39.22,4c0,0,1.7-19.75,23-24.3S76.47,50.44,76.47,50.44Z"/><path class="cls-23" d="M79.87,48.07c-1.53,8.51-9.12,14-16.9,12.3S50.31,50.36,52,42s9.09-13.71,16.72-12.07S81.38,39.64,79.87,48.07Z"/><path class="cls-24" d="M53,60c-1.17-9.6,10.31-19.77,18.31-15.31,4.25,2.37,8.38,8,5.93,16.53C76.42,64.11,54.93,75.58,53,60Z"/><path class="cls-25" d="M36.3,56S40.87,43.42,52,38.44c16-7.21,28.58,2.33,23.55,15.5-5.9,15.45,27.05-19,27.05-19S98.32,21.22,94,21.65s-48.53-2.39-48.53-2.39S22.76,45.82,24.39,48.66,36.3,56,36.3,56Z"/><path class="cls-26" d="M57.08,35c2.75-4.52,8.7,6.34,5.68,7.2S52.94,41.8,57.08,35Z"/></g><g class="cls-27"><path class="cls-28" d="M95.51,54.42s7.67-16.62,38.93-11.93c0,0-13.92-16.49-32.4-14.78S95.51,54.42,95.51,54.42Z"/><path class="cls-29" d="M117.15,45.6c-1.53,8.51-9.12,14-16.91,12.31s-12.65-10-11-18.43,9.1-13.7,16.73-12.07S118.66,37.17,117.15,45.6Z"/><path class="cls-30" d="M91.35,58.6c-1.17-9.6,7-18.34,18.31-15.31,4.7,1.26,8.38,8,5.93,16.54C114.74,62.76,93.25,74.23,91.35,58.6Z"/><path class="cls-25" d="M95.51,54.42s-7.16-11.52,3.93-16.5c16-7.21,42-.12,37,13-5.9,15.44,8.9-12.69,8.9-12.69S141.09,24.53,136.77,25s-48.53-2.39-48.53-2.39S65.53,49.14,67.17,52,95.51,54.42,95.51,54.42Z"/><path class="cls-26" d="M94.54,33.56c2.76-4.52,8.71,6.33,5.69,7.2S90.41,40.33,94.54,33.56Z"/></g><path class="cls-31" d="M87.46,67.26s14.07-1.45,21.4,8.71-2.72,33.35-18.79,34.87-27.24-9.71-28-18.12.57-13.15,5.87-11.44c0,0-3-8,3.82-10.08s8.65-8.11,8-10.57C79.76,60.63,88.59,62.33,87.46,67.26Z"/><path class="cls-32" d="M62.07,92.72c.76,8.41,11.93,19.63,28,18.12S116.2,86.14,108.86,76s-21.4-8.71-21.4-8.71c.66-2.87-2.06-4.64-4.45-5.63,2.13,1.8,3.16,6.05-.75,7.33-5.19,1.7-2.5,5.5-2.5,5.5,9.55-14.21,27,3.6,27,3.6-12.48-6.82-19.16,8.9-30.26,7-8.42-1.4-8.63-8.23-8.24-11.47-2,3.13-.36,7.64-.36,7.64,8.53,12.5,19.72,8.14,19.72,8.14,16.49-18.21,31.44,8,3.77,13.54-27.49,5.53-29.24-17.53-29.26-17.83A28.67,28.67,0,0,0,62.07,92.72Z"/><path class="cls-33" d="M71.76,71.2a5.73,5.73,0,0,0-4,3.55,5.42,5.42,0,0,1,.54-1.11c-.39,3.24-.18,10.07,8.24,11.47A13.37,13.37,0,0,0,85,83.42l.18-.1s-9.72,1.37-11.86-4c-2-5,6.83-.82,8.29-.11-1.23-.62-7.48-4.07-3.56-8.7,4.34-5.12,6.82-8.9,1.67-9.85C80.41,63.09,78.55,69.15,71.76,71.2Z"/><path class="cls-34" d="M94.8,99c-18.29,6.25-29.22-7.46-32.41-12.31,1,5.2,5.83,20.9,29,16.23,12.64-2.55,16.37-9.39,15.13-14.34C106.81,91.93,104.34,95.78,94.8,99Z"/><path class="cls-35" d="M56.57,24.92s10.13-6.32,14-.62C70.58,24.3,68,11.69,56.57,24.92Z"/><path class="cls-35" d="M88,21.9s2.41-6.13,14.63-1.58C102.61,20.32,85.24,9.65,88,21.9Z"/><path class="cls-35" d="M81.72,51.58s3.78,9,8.18,4.76C89.9,56.34,86.2,64.8,81.72,51.58Z"/><path class="cls-36" d="M.89,94.29a58.81,58.81,0,0,1-.79,13.5,4.32,4.32,0,0,0,2.3,4.9,22.42,22.42,0,0,1,7.9,6C14,123.1,15,129,18.37,133.61a33.58,33.58,0,0,0,6.1,6.22c2.16,1.73,4.64,3.09,6.42,5.24a14.47,14.47,0,0,1,2.64,4.82,4.18,4.18,0,0,0,4.26,3A18.24,18.24,0,0,1,51.43,157c2.42,1.95,4.55,4.18,7.25,5.74a22.75,22.75,0,0,0,8.4,2.85c5.85.81,11.91-.23,17.63,1.3a17.17,17.17,0,0,1,5.55,2.6,4.14,4.14,0,0,0,5.66-.81c2.36-2.94,4.67-6,7.92-7.85,5.48-3.19,11.53-2.12,17.41-2.69a31.07,31.07,0,0,0,16-6.72c2.91-2.29,7.56-3.76,11.59-4.24a4.15,4.15,0,0,0,3.53-2.92c2.87-9.71,8.13-18.46,13.75-26.76,1.9-2.81,3.55-5.37,3.36-8.9-.17-3.1-1-6.1-.77-9.24a24.62,24.62,0,0,1,1.3-6.59,8.34,8.34,0,0,0-1.4-7.94,23.41,23.41,0,0,1-3.9-6.89c-2.26-6.26-1.37-13-1.45-19.56,0-3.43-.37-6.88-1.95-10C160.08,46,158.39,44,157,41.67c8.6,18.19-5.33,36.54-5.33,36.54,13.44,21.75-12.35,38.7-12.35,38.7,3.37,26.73-29.73,22.17-29.73,22.17-8.94,21.24-41.83.25-41.83.25-20.45,14.29-28.05-24.1-28.05-24.1C6.44,116.49,3.37,78.24,3.28,77,1,82.46.74,88.23.89,94.29Z"/><path class="cls-37" d="M26,33.91a26.08,26.08,0,0,1-8.89,6.55c-.42.17-.84.31-1.26.45a4.42,4.42,0,0,0-3.15,4.66,54,54,0,0,1-.11,9.2c0,.06,0,.13,0,.19a22.33,22.33,0,0,1,.68,3.58C14.41,69.28,23.8,70.72,33.73,69.75l2.41-.5s-13.79-6.42-9-12c0,0-8.57-5.91.69-14.51S35.18,24.5,66.93,9.89c-7.34,3.18-15.59,4.18-22.74,7.91C36.88,21.61,31.64,28,26,33.91Z"/></g></g></g></svg>