<svg xmlns="http://www.w3.org/2000/svg" xmlns:xlink="http://www.w3.org/1999/xlink" viewBox="0 0 171.34 159.03"><defs><style>.cls-1{fill:none;}.cls-2{isolation:isolate;}.cls-3{fill:url(#linear-gradient);}.cls-29,.cls-36,.cls-4{fill:#900040;}.cls-4{opacity:0.18;}.cls-10,.cls-11,.cls-12,.cls-13,.cls-18,.cls-26,.cls-27,.cls-28,.cls-29,.cls-34,.cls-36,.cls-4,.cls-8,.cls-9{mix-blend-mode:multiply;}.cls-5{fill:url(#linear-gradient-2);}.cls-6{fill:url(#linear-gradient-3);}.cls-7{fill:url(#linear-gradient-4);}.cls-10,.cls-11,.cls-12,.cls-13,.cls-26,.cls-27,.cls-28,.cls-34,.cls-8,.cls-9{opacity:0.39;}.cls-8{fill:url(#linear-gradient-5);}.cls-9{fill:url(#linear-gradient-6);}.cls-10{fill:url(#linear-gradient-7);}.cls-11{fill:url(#linear-gradient-8);}.cls-12{fill:url(#linear-gradient-9);}.cls-13{fill:url(#linear-gradient-10);}.cls-14{clip-path:url(#clip-path);}.cls-15{fill:url(#linear-gradient-11);}.cls-16{fill:url(#linear-gradient-12);}.cls-17,.cls-23,.cls-30,.cls-31,.cls-32,.cls-33,.cls-35,.cls-36{opacity:0.36;}.cls-17,.cls-23,.cls-30,.cls-31,.cls-32,.cls-33,.cls-35,.cls-45,.cls-46,.cls-47,.cls-48,.cls-49,.cls-50,.cls-51{mix-blend-mode:screen;}.cls-17{fill:url(#linear-gradient-13);}.cls-18{fill:#8486ea;opacity:0.63;}.cls-19{fill:#fff;}.cls-20{clip-path:url(#clip-path-2);}.cls-21{fill:url(#linear-gradient-14);}.cls-22{fill:url(#linear-gradient-15);}.cls-23{fill:url(#linear-gradient-16);}.cls-24{fill:#401f15;}.cls-25{fill:#771d1d;}.cls-26{fill:url(#linear-gradient-17);}.cls-27{fill:url(#linear-gradient-18);}.cls-28{fill:url(#linear-gradient-19);}.cls-29{opacity:0.08;}.cls-30{fill:url(#linear-gradient-20);}.cls-31{fill:url(#linear-gradient-21);}.cls-32{fill:url(#linear-gradient-22);}.cls-33{fill:url(#linear-gradient-23);}.cls-34{fill:url(#linear-gradient-24);}.cls-35{fill:url(#linear-gradient-25);}.cls-37{fill:url(#linear-gradient-26);}.cls-38{fill:#4b2119;}.cls-39{fill:url(#linear-gradient-27);}.cls-40{fill:url(#linear-gradient-28);}.cls-41{fill:url(#linear-gradient-29);}.cls-42{fill:url(#linear-gradient-30);}.cls-43{fill:url(#linear-gradient-31);}.cls-44{fill:url(#linear-gradient-32);}.cls-45,.cls-46,.cls-47,.cls-48,.cls-49,.cls-50,.cls-51{opacity:0.17;}.cls-45{fill:url(#linear-gradient-33);}.cls-46{fill:url(#linear-gradient-34);}.cls-47{fill:url(#linear-gradient-35);}.cls-48{fill:url(#linear-gradient-36);}.cls-49{fill:url(#linear-gradient-37);}.cls-50{fill:url(#linear-gradient-38);}.cls-51{fill:url(#linear-gradient-39);}</style><linearGradient id="linear-gradient" x1="139.03" y1="25.89" x2="146.97" y2="25.89" gradientUnits="userSpaceOnUse"><stop offset="0" stop-color="#8b3032"/><stop offset="0.01" stop-color="#8a3032"/><stop offset="0.44" stop-color="#622722"/><stop offset="0.79" stop-color="#492119"/><stop offset="1" stop-color="#401f15"/></linearGradient><linearGradient id="linear-gradient-2" x1="162.23" y1="70.73" x2="171.34" y2="70.73" xlink:href="#linear-gradient"/><linearGradient id="linear-gradient-3" x1="0" y1="75.53" x2="8.55" y2="75.53" xlink:href="#linear-gradient"/><linearGradient id="linear-gradient-4" x1="65.16" y1="20.89" x2="105.99" y2="152.15" gradientUnits="userSpaceOnUse"><stop offset="0" stop-color="#e59540"/><stop offset="1" stop-color="#d64531"/></linearGradient><linearGradient id="linear-gradient-5" x1="76.7" y1="14.47" x2="93.15" y2="147.29" gradientUnits="userSpaceOnUse"><stop offset="0" stop-color="#900040"/><stop offset="0.2" stop-color="#a9386a"/><stop offset="0.6" stop-color="#d7a2b9"/><stop offset="0.87" stop-color="#f4e5ec"/><stop offset="1" stop-color="#fff"/></linearGradient><linearGradient id="linear-gradient-6" x1="88.71" y1="46.82" x2="88.71" y2="24.49" gradientUnits="userSpaceOnUse"><stop offset="0.13" stop-color="#fff"/><stop offset="0.25" stop-color="#f4e5ec"/><stop offset="0.48" stop-color="#d7a2b9"/><stop offset="0.83" stop-color="#a9386a"/><stop offset="1" stop-color="#900040"/></linearGradient><linearGradient id="linear-gradient-7" x1="113.19" y1="44.43" x2="113.19" y2="12.28" gradientUnits="userSpaceOnUse"><stop offset="0" stop-color="#fff"/><stop offset="0.13" stop-color="#f4e5ec"/><stop offset="0.4" stop-color="#d7a2b9"/><stop offset="0.8" stop-color="#a9386a"/><stop offset="1" stop-color="#900040"/></linearGradient><linearGradient id="linear-gradient-8" x1="62.6" y1="43.53" x2="62.6" y2="10.09" xlink:href="#linear-gradient-7"/><linearGradient id="linear-gradient-9" x1="114.55" y1="62.15" x2="114.55" y2="22.15" xlink:href="#linear-gradient-7"/><linearGradient id="linear-gradient-10" x1="61.16" y1="57.87" x2="61.16" y2="20.28" xlink:href="#linear-gradient-7"/><clipPath id="clip-path"><path class="cls-1" d="M96.7,49.1c7.91,17.74,26,15.56,33.76,9s5.19-23.29-2.73-30.66S109.62,18.54,102.4,22,91,36.32,96.7,49.1Z"/></clipPath><linearGradient id="linear-gradient-11" x1="117.7" y1="64.8" x2="109.72" y2="5.44" gradientUnits="userSpaceOnUse"><stop offset="0" stop-color="#fff"/><stop offset="0.14" stop-color="#f8f8fc"/><stop offset="0.36" stop-color="#e3e5f2"/><stop offset="0.61" stop-color="#c2c6e3"/><stop offset="0.9" stop-color="#949bcd"/><stop offset="1" stop-color="#838bc5"/></linearGradient><linearGradient id="linear-gradient-12" x1="474.1" y1="221.63" x2="474.1" y2="186.14" gradientTransform="matrix(1.06, 0.17, -0.33, 0.89, -327.91, -223.17)" gradientUnits="userSpaceOnUse"><stop offset="0" stop-color="#006cff"/><stop offset="0.05" stop-color="#0063eb"/><stop offset="0.2" stop-color="#0049ae"/><stop offset="0.35" stop-color="#003379"/><stop offset="0.5" stop-color="#00214d"/><stop offset="0.64" stop-color="#00122c"/><stop offset="0.77" stop-color="#000814"/><stop offset="0.9" stop-color="#000205"/><stop offset="1"/></linearGradient><linearGradient id="linear-gradient-13" x1="1013.63" y1="-20.17" x2="996.52" y2="-49.81" gradientTransform="matrix(0.07, 1, -0.76, 0.05, 8.58, -948.98)" gradientUnits="userSpaceOnUse"><stop offset="0"/><stop offset="0.1" stop-color="#222218"/><stop offset="0.36" stop-color="#70704e"/><stop offset="0.58" stop-color="#adad78"/><stop offset="0.77" stop-color="#dada97"/><stop offset="0.91" stop-color="#f5f5aa"/><stop offset="1" stop-color="#ffffb1"/></linearGradient><clipPath id="clip-path-2"><path class="cls-1" d="M74.48,51.6c-10.89,8.55-34.2,10.3-36.54-7.5C35.31,24,61.42,14.79,75.59,20.62S86.15,42.43,74.48,51.6Z"/></clipPath><linearGradient id="linear-gradient-14" x1="64.11" y1="58.58" x2="57.17" y2="6.98" xlink:href="#linear-gradient-11"/><linearGradient id="linear-gradient-15" x1="440.87" y1="226.62" x2="440.87" y2="191.13" xlink:href="#linear-gradient-12"/><linearGradient id="linear-gradient-16" x1="1010.23" y1="23.72" x2="992.93" y2="-6.24" xlink:href="#linear-gradient-13"/><linearGradient id="linear-gradient-17" x1="89.79" y1="62.93" x2="92.24" y2="74.37" gradientUnits="userSpaceOnUse"><stop offset="0" stop-color="#900040"/><stop offset="0.12" stop-color="#a53064"/><stop offset="0.3" stop-color="#c06e92"/><stop offset="0.48" stop-color="#d6a2b9"/><stop offset="0.64" stop-color="#e8cad7"/><stop offset="0.78" stop-color="#f5e7ed"/><stop offset="0.91" stop-color="#fcf9fa"/><stop offset="1" stop-color="#fff"/></linearGradient><linearGradient id="linear-gradient-18" x1="39.85" y1="31.19" x2="118.35" y2="151.3" gradientUnits="userSpaceOnUse"><stop offset="0" stop-color="#900040"/><stop offset="0.12" stop-color="#920443"/><stop offset="0.24" stop-color="#97114d"/><stop offset="0.37" stop-color="#a0265c"/><stop offset="0.5" stop-color="#ad4372"/><stop offset="0.63" stop-color="#be698f"/><stop offset="0.76" stop-color="#d297b1"/><stop offset="0.89" stop-color="#e9cdda"/><stop offset="1" stop-color="#fff"/></linearGradient><linearGradient id="linear-gradient-19" x1="43.55" y1="28.76" x2="122.06" y2="148.87" xlink:href="#linear-gradient-18"/><linearGradient id="linear-gradient-20" x1="32.9" y1="14.31" x2="53.7" y2="46.12" gradientUnits="userSpaceOnUse"><stop offset="0" stop-color="#ffffb1"/><stop offset="0.08" stop-color="#dbdb98"/><stop offset="0.22" stop-color="#a2a270"/><stop offset="0.36" stop-color="#70704e"/><stop offset="0.5" stop-color="#484832"/><stop offset="0.64" stop-color="#29291c"/><stop offset="0.77" stop-color="#12120d"/><stop offset="0.89" stop-color="#050503"/><stop offset="1"/></linearGradient><linearGradient id="linear-gradient-21" x1="62.97" y1="6.14" x2="92.67" y2="51.58" gradientUnits="userSpaceOnUse"><stop offset="0" stop-color="#ffffb1"/><stop offset="0.11" stop-color="#d4d493"/><stop offset="0.28" stop-color="#959567"/><stop offset="0.45" stop-color="#606042"/><stop offset="0.61" stop-color="#363626"/><stop offset="0.75" stop-color="#181811"/><stop offset="0.87" stop-color="#060604"/><stop offset="0.95"/></linearGradient><linearGradient id="linear-gradient-22" x1="50.61" y1="51.88" x2="36.27" y2="68.87" xlink:href="#linear-gradient-20"/><linearGradient id="linear-gradient-23" x1="18.93" y1="-476.61" x2="4.59" y2="-459.62" gradientTransform="translate(458.68 400.88) rotate(-45)" xlink:href="#linear-gradient-20"/><linearGradient id="linear-gradient-24" x1="67.18" y1="27.43" x2="108" y2="158.66" gradientUnits="userSpaceOnUse"><stop offset="0.59" stop-color="#fff"/><stop offset="0.64" stop-color="#fdfafb"/><stop offset="0.69" stop-color="#f6ebf0"/><stop offset="0.74" stop-color="#ecd3de"/><stop offset="0.8" stop-color="#ddb2c5"/><stop offset="0.86" stop-color="#ca86a5"/><stop offset="0.92" stop-color="#b3517d"/><stop offset="0.98" stop-color="#99144f"/><stop offset="1" stop-color="#900040"/></linearGradient><linearGradient id="linear-gradient-25" x1="81.71" y1="11.79" x2="90.85" y2="85.55" gradientUnits="userSpaceOnUse"><stop offset="0.47" stop-color="#ffffb1"/><stop offset="0.51" stop-color="#dbdb98"/><stop offset="0.59" stop-color="#a2a270"/><stop offset="0.66" stop-color="#70704e"/><stop offset="0.74" stop-color="#484832"/><stop offset="0.81" stop-color="#29291c"/><stop offset="0.88" stop-color="#12120d"/><stop offset="0.94" stop-color="#050503"/><stop offset="1"/></linearGradient><linearGradient id="linear-gradient-26" x1="9.36" y1="47.39" x2="21.12" y2="59.15" xlink:href="#linear-gradient"/><linearGradient id="linear-gradient-27" x1="38.61" y1="16.79" x2="45.57" y2="23.74" xlink:href="#linear-gradient"/><linearGradient id="linear-gradient-28" x1="94" y1="2.32" x2="100.64" y2="8.96" xlink:href="#linear-gradient"/><linearGradient id="linear-gradient-29" x1="145.82" y1="52.59" x2="156.5" y2="58.86" xlink:href="#linear-gradient"/><linearGradient id="linear-gradient-30" x1="130.62" y1="70.52" x2="138.22" y2="78.12" xlink:href="#linear-gradient"/><linearGradient id="linear-gradient-31" x1="29.9" y1="73.17" x2="39.28" y2="82.55" xlink:href="#linear-gradient"/><linearGradient id="linear-gradient-32" x1="47.19" y1="67.5" x2="51.43" y2="71.75" xlink:href="#linear-gradient"/><linearGradient id="linear-gradient-33" x1="11.26" y1="45.48" x2="23.03" y2="57.25" gradientUnits="userSpaceOnUse"><stop offset="0" stop-color="#ffffb1"/><stop offset="0.01" stop-color="#f8f8ac"/><stop offset="0.13" stop-color="#bebe84"/><stop offset="0.25" stop-color="#8c8c61"/><stop offset="0.37" stop-color="#616143"/><stop offset="0.49" stop-color="#3e3e2b"/><stop offset="0.62" stop-color="#232318"/><stop offset="0.74" stop-color="#0f0f0b"/><stop offset="0.87" stop-color="#040403"/><stop offset="1"/></linearGradient><linearGradient id="linear-gradient-34" x1="39.01" y1="16.38" x2="45.97" y2="23.34" xlink:href="#linear-gradient-33"/><linearGradient id="linear-gradient-35" x1="95.78" y1="0.54" x2="102.42" y2="7.18" xlink:href="#linear-gradient-33"/><linearGradient id="linear-gradient-36" x1="145.29" y1="53.48" x2="155.97" y2="59.75" xlink:href="#linear-gradient-33"/><linearGradient id="linear-gradient-37" x1="132.13" y1="69.01" x2="139.73" y2="76.6" xlink:href="#linear-gradient-33"/><linearGradient id="linear-gradient-38" x1="31.87" y1="71.2" x2="41.25" y2="80.58" xlink:href="#linear-gradient-33"/><linearGradient id="linear-gradient-39" x1="46.91" y1="67.79" x2="51.15" y2="72.03" xlink:href="#linear-gradient-33"/></defs><g class="cls-2"><g id="Слой_2" data-name="Слой 2"><g id="Layer_2" data-name="Layer 2"><path class="cls-3" d="M139.07,25.94c-.52-3.3,4.17-5,6.11-4.35s2.78,8.75,0,8.75S139.53,28.8,139.07,25.94Z"/><path class="cls-4" d="M139.07,25.94c.46,2.86,3.34,4.4,6.11,4.4s1.95-8,0-8.75a3.56,3.56,0,0,0-1.43-.13c2.69.25,2.06,5.89-.25,4.81A7.11,7.11,0,0,1,140.19,23,3.23,3.23,0,0,0,139.07,25.94Z"/><path class="cls-5" d="M163.19,64.56c2.87-1.26,8.67,6,8.11,8.24s-3.61,4.12-5.83,4.24S160.85,65.58,163.19,64.56Z"/><path class="cls-6" d="M3.77,81.05C1.09,81.05-.53,74.33.16,73s7-4.63,8.14-1.89S6.27,81.05,3.77,81.05Z"/><path class="cls-4" d="M3.77,81.05c2.5,0,5.7-7.23,4.53-10C7.93,70.2,7,69.94,5.94,70c-.11.54-.21,1.07-.33,1.63-1.8,8.3-4,6.62-5.26,4.66C.91,78.58,2.14,81.05,3.77,81.05Z"/><path class="cls-7" d="M165.14,62.29c-8.52-25.56-31-55.19-75.89-56.67s-71,28.15-79.6,50C1.47,76.39-15.63,146,79.2,157.86S173.66,87.85,165.14,62.29ZM57.72,89.15c28.13-21.51,56.67,0,56.67,0C88.74,118.52,57.72,89.15,57.72,89.15Z"/><path class="cls-8" d="M165.14,62.29a90.68,90.68,0,0,0-9.52-20s14.89,27.24-3.07,40-46.68-4.08-66-6.3S35.12,92.67,21.41,77s-3.58-36.36-3.48-36.58A74.23,74.23,0,0,0,9.65,55.63C1.47,76.39-15.63,146,79.2,157.86S173.66,87.85,165.14,62.29ZM114.39,89.15c-25.65,29.37-56.67,0-56.67,0C85.85,67.64,114.39,89.15,114.39,89.15ZM56,105.72s30.32,27.92,65.8-2.75C121.79,103,94.54,158.45,56,105.72Z"/><path class="cls-9" d="M82.81,35.8s5.09-23.7,13-2.5S80,44.43,80,44.43Z"/><path class="cls-10" d="M94.73,43.24s-4.14-20.47,1.49-28.38C102.49,6,129.9,21.66,133,35.31s-37.37,7.93-37.37,7.93Z"/><path class="cls-11" d="M82,43s7.57-17.54,2.3-28.55c-5.76-12-35.83,3.22-44.38,18S82,43,82,43Z"/><path class="cls-12" d="M104.67,20.25c16-3.23,26.12,6,29.22,17.64s2.17,23.84-11.81,26.67-24.7-8.78-27.35-21.32S94.57,22.28,104.67,20.25Z"/><path class="cls-13" d="M81.05,44.52c5.09-6.71,6.39-22.3-6.11-25.63S47.78,20.83,41.5,30s-4.34,20.82,1.4,26.75S66.52,63.69,81.05,44.52Z"/><g class="cls-14"><path class="cls-15" d="M96.7,49.1c7.91,17.74,26,15.56,33.76,9s5.19-23.29-2.73-30.66S109.62,18.54,102.4,22,91,36.32,96.7,49.1Z"/><path class="cls-16" d="M122.68,40.86c-1.63,9-9.7,15-18,13.09S91.23,43.29,93,34.34s9.68-14.58,17.8-12.84S124.29,31.88,122.68,40.86Z"/><path class="cls-17" d="M92.5,54.85c-1.24-10.22,11.26-19.34,19.76-14.6,4.52,2.53,8.64,6.86,6,15.9C117.39,59.27,94.52,71.47,92.5,54.85Z"/><path class="cls-18" d="M93.08,50.5s2.2-13.46,14-18.76c17-7.66,31.5,8.89,26.15,22.9-6.27,16.44,25-23.43,25-23.43S153.69,16.58,149.1,17,97.46,14.5,97.46,14.5,73.29,42.76,75,45.78,93.08,50.5,93.08,50.5Z"/><path class="cls-19" d="M98.4,28.55c2.94-4.81,9.26,6.74,6,7.66S94,35.75,98.4,28.55Z"/></g><g class="cls-20"><path class="cls-21" d="M74.48,51.6c-10.89,8.55-34.2,10.3-36.54-7.5C35.31,24,61.42,14.79,75.59,20.62S86.15,42.43,74.48,51.6Z"/><path class="cls-22" d="M85.79,39.74c-1.62,9.06-9.7,14.95-18,13.1S54.34,42.18,56.09,33.23s9.68-14.58,17.8-12.84S87.4,30.77,85.79,39.74Z"/><path class="cls-23" d="M59,54.11c-1.25-10.22,11-21,19.48-16.29,4.52,2.52,8.91,8.55,6.31,17.59C83.84,58.53,61,70.73,59,54.11Z"/><path class="cls-18" d="M40.24,50.73S37.48,32.86,59,27.2c18.09-4.76,28,9.42,22.61,23.43-6.27,16.44,28.79-20.19,28.79-20.19s-4.5-14.62-9.1-14.16-51.64-2.55-51.64-2.55S25.51,42,27.25,45,40.24,50.73,40.24,50.73Z"/><path class="cls-19" d="M61.65,26.05c2.94-4.81,9.26,6.74,6.06,7.66S57.26,33.25,61.65,26.05Z"/></g><path class="cls-24" d="M95,17.47s2.21-7.12,14.86-3.47C109.81,14,94.77,4.28,95,17.47Z"/><path class="cls-24" d="M85.28,16.66s-3.07-8.74-16.15-5.49C69.13,11.17,88.85,4.45,85.28,16.66Z"/><path class="cls-24" d="M94.06,52.23s-7.78,1.36-10.52-.29c0,0,.95,11.51,4.76,12.53S94.22,57.3,94.06,52.23Z"/><path class="cls-25" d="M88.3,64.47A3.36,3.36,0,0,1,86.53,63c.57-6,4.93-7.28,7.36-7.53C93.32,60.18,91.37,65.29,88.3,64.47Z"/><path class="cls-26" d="M84,64.56S87.33,69.1,95.52,69,85.66,83.84,84,64.56Z"/><path class="cls-27" d="M79.2,157.86c68.85,8.61,87.51-32.18,89.31-65-1.58,11.88-5,24.92-12.35,31.07-15.28,12.78-25.84,10.88-25.84,10.88s3.33,10.23-6.94,11.62-16.12-8.61-16.12-8.61-8.06,11.95-26.39,11.95-23.15-15-23.15-15-6.86,9.12-9.91,1.77,6.39-16.78,6.39-16.78S28.64,126.75,12,102.21c-8.47-12.47-7.19-26.35-5.5-37C-1,92.57-4,147.46,79.2,157.86Z"/><path class="cls-28" d="M84.8,77.85A47.34,47.34,0,0,0,47.9,95.08c5.37-4.63,8-5.37,8-5.37s5,21.3,30.19,21.3,30-20.11,30-20.11l10.56,5.29S109.21,77.85,84.8,77.85ZM57.72,89.15c28.13-21.51,56.67,0,56.67,0C88.74,118.52,57.72,89.15,57.72,89.15Z"/><path class="cls-4" d="M57.72,131.33c3.41,1.06,4.26-7.22,1.34-7.64S54.57,130.36,57.72,131.33Z"/><path class="cls-29" d="M125.6,132.86c-4.63.2-16.53-11.67-9-13.75S135.46,132.44,125.6,132.86Z"/><path class="cls-29" d="M114.39,132c2.65,2.19-3.38,6.66-6.85,2.91S113.05,130.92,114.39,132Z"/><path class="cls-29" d="M155.46,92c-11.07,9.23-3.33,22,.56,22.5S166.3,83,155.46,92Z"/><path class="cls-29" d="M163.1,91.74c-3.06-3.07-5.35-12.19,0-11.53S166.72,95.35,163.1,91.74Z"/><path class="cls-4" d="M11,92.2c-4.51-1.29,2.5-15.56,5.7-14.72S16.62,93.82,11,92.2Z"/><path class="cls-30" d="M23.36,58.25c12.49.71.71-40,47.08-51.34A81,81,0,0,0,17.93,40.42S10.86,57.54,23.36,58.25Z"/><path class="cls-31" d="M86.53,7.56c35,2.23,57.9,21,59.34,22.23C133.27,16.54,114.93,6.47,89.25,5.62c-35-1.16-58.54,16.58-71.32,34.8C17.93,40.42,46.56,5,86.53,7.56Z"/><path class="cls-32" d="M31.42,55.51C33.37,52.29,50.86,59.79,53,66.88S26.41,63.74,31.42,55.51Z"/><path class="cls-33" d="M124.06,66.62c-.9-3.66,16.77-10.72,23.26-7.19S126.33,76,124.06,66.62Z"/><path class="cls-34" d="M79.2,157.86c92.2,11.53,94.41-65.52,86.63-93.3,0,0,7,60.53-66.35,68.3s-97.35-24.17-95.63-55C-.24,106.75,7.35,148.88,79.2,157.86Z"/><path class="cls-4" d="M57.72,89.15s11.11,18.71,29.54,18.34,27.13-18.34,27.13-18.34C88.74,118.52,57.72,89.15,57.72,89.15Z"/><path class="cls-35" d="M21.41,77c13.71,15.67,45.78-3.22,65.12-1s48.05,19.08,66,6.3c7.11-5.07,9.06-12.4,8.83-19.4-.2,6.35-2.41,12.77-8.83,17.34-18,12.78-46.68-4.07-66-6.3s-51.41,16.67-65.12,1a29,29,0,0,1-7.12-18.65A29.4,29.4,0,0,0,21.41,77Z"/><path class="cls-36" d="M23,58.39c1.55-2.21-5.66-12.8-8.66-13.42S7.58,52,9.39,55.29,21.06,61.17,23,58.39Z"/><path class="cls-36" d="M29.91,53.11c-3.08-1.72,2.4-4.17,3.37-2.78S32.66,54.64,29.91,53.11Z"/><path class="cls-36" d="M25.09,41c-2.6-1.31,2.22-4,3.33-3.42S28,42.43,25.09,41Z"/><path class="cls-36" d="M39.61,25.22c-2.82-.23-1.87-5.32,0-8s4.17-4.21,6.73,0C49,21.58,48.57,25.94,39.61,25.22Z"/><path class="cls-36" d="M93.17,8.66c-3.82-1.6,2-6.3,3.87-7.78,1.65-1.29-3.3,4.57,4,4.36C103.15,5.18,102.78,12.69,93.17,8.66Z"/><path class="cls-36" d="M148.92,59.56c-1.43-4.16-1.17-6,3-7.83s8.86,9,8.6,10.81S150.14,63.09,148.92,59.56Z"/><path class="cls-36" d="M133.16,80.13c2.82,2.41,8.89-.21,9.17-3.13s-5.48-7.55-7.05-7.2S129.83,77.29,133.16,80.13Z"/><path class="cls-36" d="M142.88,82.84c.93-1.15,6.59.56,5,2.85S140.52,85.76,142.88,82.84Z"/><path class="cls-36" d="M148.92,70c-1.63-2.33,5.46-4.82,5.41-1.49S150.93,72.9,148.92,70Z"/><path class="cls-36" d="M113.16,76.73c-2.62-2.91,5.41-5,6-1.79S115.66,79.5,113.16,76.73Z"/><path class="cls-36" d="M143.62,45c2.69.53,4.09-4.69,1.61-5.22S139.63,44.2,143.62,45Z"/><path class="cls-36" d="M39.12,87.58c3.23-3.26,1.6-14.93-1.29-15.88s-7.11,6.93-6.39,10.77S36.89,89.82,39.12,87.58Z"/><path class="cls-36" d="M45.78,71.62c-1.56-2.39,6.3-5.89,7.87-3.45S49,76.52,45.78,71.62Z"/><path class="cls-36" d="M22.75,72.47c-3.89-.22-1.65-5.5,1.61-4.81S26.78,72.7,22.75,72.47Z"/><path class="cls-36" d="M35.51,105.48c-1.73-1-2.09-5.84,1.38-5.21S38.14,107,35.51,105.48Z"/><path class="cls-36" d="M145.23,117.43c2.93-.7,1.36-5.19-1.12-4.75S142.29,118.12,145.23,117.43Z"/><path class="cls-37" d="M22.39,57.85c1.54-2.21-5.66-12.81-8.67-13.42S7,51.5,8.77,54.74,20.44,60.63,22.39,57.85Z"/><path class="cls-38" d="M29.3,52.57c-3.09-1.72,2.39-4.17,3.37-2.78S32,54.1,29.3,52.57Z"/><path class="cls-38" d="M24.47,40.42c-2.6-1.3,2.22-4,3.33-3.41S27.39,41.89,24.47,40.42Z"/><path class="cls-39" d="M39,24.68c-2.81-.23-1.87-5.32,0-8s4.93-4.8,6.73,0S48,25.4,39,24.68Z"/><path class="cls-40" d="M92.56,8.12C88.73,6.51,94.48,1.73,96.43.34s5.79,1.8,5.95,3.89S102.16,12.15,92.56,8.12Z"/><path class="cls-41" d="M148.3,59c-1.43-4.16-1.17-6,3-7.83s8.85,9,8.59,10.81S149.52,62.55,148.3,59Z"/><path class="cls-42" d="M132.54,79.59c2.82,2.4,8.89-.21,9.17-3.13s-5.47-7.55-7.05-7.21S129.21,76.75,132.54,79.59Z"/><path class="cls-38" d="M142.27,82.3c.93-1.15,6.58.56,5,2.85S139.91,85.21,142.27,82.3Z"/><path class="cls-38" d="M148.3,69.48c-1.62-2.33,5.46-4.82,5.41-1.49S150.31,72.36,148.3,69.48Z"/><path class="cls-38" d="M112.54,76.18c-2.62-2.9,5.42-5,6-1.78S115,79,112.54,76.18Z"/><path class="cls-38" d="M143,44.43c2.7.53,4.09-4.69,1.61-5.22S139,43.66,143,44.43Z"/><path class="cls-43" d="M38.5,87c3.24-3.27,1.6-14.93-1.28-15.88s-7.12,6.93-6.39,10.77S36.28,89.28,38.5,87Z"/><path class="cls-44" d="M45.17,71.08c-1.56-2.39,6.29-5.89,7.87-3.45S48.36,76,45.17,71.08Z"/><path class="cls-38" d="M22.14,71.93c-3.9-.22-1.66-5.5,1.6-4.81S26.16,72.16,22.14,71.93Z"/><path class="cls-38" d="M34.89,104.94c-1.72-1-2.09-5.84,1.39-5.21S37.53,106.47,34.89,104.94Z"/><path class="cls-38" d="M144.61,116.89c2.94-.7,1.37-5.19-1.11-4.75S141.67,117.58,144.61,116.89Z"/><path class="cls-4" d="M8.77,54.74c1.81,3.25,11.67,5.89,13.62,3.11,1.54-2.21-5.66-12.81-8.67-13.42a2.09,2.09,0,0,0-.66,0c1.62-.14,2.53,2.7,4.37,8.57s-4.91,1.24-6.68,0-1.54-4.29-1.53-4.34C8.3,50.8,7.94,53.24,8.77,54.74Z"/><path class="cls-4" d="M39,24.68c9,.72,8.54-3.23,6.73-8a4.93,4.93,0,0,0-1.7-2.5,18.36,18.36,0,0,1,.08,3.72c0,3.65-2.5,4.13-4.44,3.67s-1.38-3.62-1.38-3.66C36.93,20.67,36.56,24.48,39,24.68Z"/><path class="cls-4" d="M92.56,8.12c9.6,4,10-1.81,9.82-3.89C102.24,2.48,99.53,0,97.5,0c2.48.53,2.35,2.3,2.26,5.52s-3.7,1.35-6,.31c-1.66-.76-1.62-1.37-1.46-1.65C91.12,5.77,90.67,7.33,92.56,8.12Z"/><path class="cls-4" d="M159.89,62c.26-1.82-4.43-12.63-8.59-10.81,2.82-.91,4.95,4.81,6.06,8.14s-4.44.56-6.47-.37a8.63,8.63,0,0,1-3.35-3.4A12,12,0,0,0,148.3,59C149.52,62.55,159.63,63.82,159.89,62Z"/><path class="cls-4" d="M141.71,76.46c.25-2.59-4.26-6.53-6.38-7.14.42.52.91,1.45,1.75,2.79,1.85,3,1,5.46-1.93,5.74s-3.89-1.62-3.91-1.66a4.15,4.15,0,0,0,1.3,3.4C135.36,82,141.43,79.38,141.71,76.46Z"/><path class="cls-4" d="M30.83,81.93c.72,3.84,5.45,7.35,7.67,5.11,3.24-3.27,1.6-14.93-1.28-15.88a2,2,0,0,0-.42-.06c1.05.26,1.25,1.63,1.26,5.46,0,4.78-2,8-4.44,5.74a6.91,6.91,0,0,1-1.83-5.76A10.28,10.28,0,0,0,30.83,81.93Z"/><path class="cls-4" d="M45.17,71.08c3.19,4.9,9.44-1,7.87-3.45a2.18,2.18,0,0,0-1.87-.81c3.66.28-2.44,4.45-4.2,3.55s-.47-2-.44-2.05C45.31,69.15,44.59,70.19,45.17,71.08Z"/><path class="cls-45" d="M17.34,52.73c-1.78-5.67-2.69-8.44-4.28-8.3A3,3,0,0,0,11.9,45C10.67,46.31,18.55,59.25,17.34,52.73Z"/><path class="cls-46" d="M39,16.66a9.66,9.66,0,0,0-.71,1.23,5,5,0,0,0,.35,2.9A2.23,2.23,0,0,0,40,21.6h0c2.72.38,3.41-7.72,1.23-7.28A8.21,8.21,0,0,0,39,16.66Z"/><path class="cls-47" d="M99.79,4.35C99.84,1.89,99.65.5,97.5,0a1.74,1.74,0,0,0-1.07.3l-.25.18C94.49,2.18,99.74,9.66,99.79,4.35Z"/><path class="cls-48" d="M147.54,55.56a8.63,8.63,0,0,0,3.35,3.4l.61.28c4.59,1.32,4.73.89,1.39-2.33s-4.16-4.54-5.22-2.51A4,4,0,0,0,147.54,55.56Z"/><path class="cls-49" d="M137.65,76.49a2.64,2.64,0,0,0,.4-1.26.86.86,0,0,0,0-.16,5.62,5.62,0,0,0-1-3c-.84-1.34-1.33-2.27-1.75-2.79a1.66,1.66,0,0,0-.67-.07,1.83,1.83,0,0,0-.77.53C132.85,72.27,136.41,77.27,137.65,76.49Z"/><path class="cls-50" d="M37.6,80.21a13.67,13.67,0,0,0,.46-3.65c0-3.83-.21-5.2-1.26-5.46a2.56,2.56,0,0,0-1.53.53C33.84,73.06,35.87,84.53,37.6,80.21Z"/><path class="cls-51" d="M47,70.37a1.4,1.4,0,0,0,.31.09l.11,0c3.47-1.24,2.71-3.06,1-3.08a8.49,8.49,0,0,0-1.9,1S45.23,69.47,47,70.37Z"/></g></g></g></svg>