<svg xmlns="http://www.w3.org/2000/svg" xmlns:xlink="http://www.w3.org/1999/xlink" viewBox="0 0 254.24 156.31"><defs><style>.cls-1{fill:none;}.cls-2{isolation:isolate;}.cls-3{fill:url(#linear-gradient);}.cls-23,.cls-24,.cls-27,.cls-35,.cls-37,.cls-4,.cls-5,.cls-6,.cls-7,.cls-8{opacity:0.39;}.cls-13,.cls-19,.cls-23,.cls-24,.cls-27,.cls-35,.cls-37,.cls-4,.cls-5,.cls-6,.cls-7,.cls-8{mix-blend-mode:multiply;}.cls-4{fill:url(#linear-gradient-2);}.cls-5{fill:url(#linear-gradient-3);}.cls-6{fill:url(#linear-gradient-4);}.cls-7{fill:url(#linear-gradient-5);}.cls-8{fill:url(#linear-gradient-6);}.cls-9{clip-path:url(#clip-path);}.cls-10{fill:url(#linear-gradient-7);}.cls-11{fill:url(#linear-gradient-8);}.cls-12,.cls-18,.cls-21,.cls-22,.cls-25,.cls-26,.cls-28,.cls-29,.cls-32,.cls-33{opacity:0.36;mix-blend-mode:screen;}.cls-12{fill:url(#linear-gradient-9);}.cls-13{fill:#8486ea;opacity:0.63;}.cls-14{fill:#fff;}.cls-15{clip-path:url(#clip-path-2);}.cls-16{fill:url(#linear-gradient-10);}.cls-17{fill:url(#linear-gradient-11);}.cls-18{fill:url(#linear-gradient-12);}.cls-19{fill:#900040;opacity:0.18;}.cls-20{fill:#401f15;}.cls-21{fill:url(#linear-gradient-13);}.cls-22{fill:url(#linear-gradient-14);}.cls-23{fill:url(#linear-gradient-15);}.cls-24{fill:url(#linear-gradient-16);}.cls-25{fill:url(#linear-gradient-17);}.cls-26{fill:#ffffb1;}.cls-27{fill:url(#linear-gradient-18);}.cls-28{fill:url(#linear-gradient-19);}.cls-29{fill:url(#linear-gradient-20);}.cls-30{fill:url(#linear-gradient-21);}.cls-31{fill:url(#linear-gradient-22);}.cls-32{fill:url(#linear-gradient-23);}.cls-33{fill:url(#linear-gradient-24);}.cls-34{fill:url(#linear-gradient-25);}.cls-35{fill:url(#linear-gradient-26);}.cls-36{fill:url(#linear-gradient-27);}.cls-37{fill:url(#linear-gradient-28);}</style><linearGradient id="linear-gradient" x1="75.37" y1="17.25" x2="160.15" y2="146.96" gradientUnits="userSpaceOnUse"><stop offset="0" stop-color="#e59540"/><stop offset="0.4" stop-color="#e0783b"/><stop offset="1" stop-color="#d64531"/></linearGradient><linearGradient id="linear-gradient-2" x1="151.44" y1="60.31" x2="151.44" y2="29.1" gradientUnits="userSpaceOnUse"><stop offset="0.13" stop-color="#fff"/><stop offset="0.25" stop-color="#f4e5ec"/><stop offset="0.48" stop-color="#d7a2b9"/><stop offset="0.83" stop-color="#a9386a"/><stop offset="1" stop-color="#900040"/></linearGradient><linearGradient id="linear-gradient-3" x1="119.8" y1="61.79" x2="119.8" y2="5.74" gradientUnits="userSpaceOnUse"><stop offset="0" stop-color="#fff"/><stop offset="0.13" stop-color="#f4e5ec"/><stop offset="0.4" stop-color="#d7a2b9"/><stop offset="0.8" stop-color="#a9386a"/><stop offset="1" stop-color="#900040"/></linearGradient><linearGradient id="linear-gradient-4" x1="173.18" y1="56.25" x2="173.18" y2="4.11" xlink:href="#linear-gradient-3"/><linearGradient id="linear-gradient-5" x1="115.06" y1="65.5" x2="115.06" y2="15.44" xlink:href="#linear-gradient-3"/><linearGradient id="linear-gradient-6" x1="181.21" y1="65.5" x2="181.21" y2="15.01" xlink:href="#linear-gradient-3"/><clipPath id="clip-path"><path class="cls-1" d="M164.81,65.5s15.83-31.06,34.24-28c0,0-4-16.52-21.58-19.48C155.57,14.33,153.14,41.57,164.81,65.5Z"/></clipPath><linearGradient id="linear-gradient-7" x1="181.94" y1="65.18" x2="173.42" y2="1.84" gradientUnits="userSpaceOnUse"><stop offset="0" stop-color="#fff"/><stop offset="0.14" stop-color="#f8f8fc"/><stop offset="0.36" stop-color="#e3e5f2"/><stop offset="0.61" stop-color="#c2c6e3"/><stop offset="0.9" stop-color="#949bcd"/><stop offset="1" stop-color="#838bc5"/></linearGradient><linearGradient id="linear-gradient-8" x1="478.45" y1="133.88" x2="478.45" y2="90.56" gradientTransform="matrix(1.06, 0.17, -0.33, 0.89, -301.46, -142.67)" gradientUnits="userSpaceOnUse"><stop offset="0" stop-color="#006cff"/><stop offset="0.3" stop-color="#0048aa"/><stop offset="0.64" stop-color="#00214f"/><stop offset="0.88" stop-color="#000916"/><stop offset="1"/></linearGradient><linearGradient id="linear-gradient-9" x1="578.1" y1="-746.66" x2="558.09" y2="-781.32" gradientTransform="matrix(0.07, 1, -0.76, 0.05, -452.35, -471.51)" gradientUnits="userSpaceOnUse"><stop offset="0"/><stop offset="0.1" stop-color="#222218"/><stop offset="0.36" stop-color="#70704e"/><stop offset="0.58" stop-color="#adad78"/><stop offset="0.77" stop-color="#dada97"/><stop offset="0.91" stop-color="#f5f5aa"/><stop offset="1" stop-color="#ffffb1"/></linearGradient><clipPath id="clip-path-2"><path class="cls-1" d="M142.66,65.5S146.42,36,130.59,23,94,24.75,95.58,40.18C95.58,40.18,124.26,41.17,142.66,65.5Z"/></clipPath><linearGradient id="linear-gradient-10" x1="122.54" y1="70.38" x2="113.22" y2="1.15" xlink:href="#linear-gradient-7"/><linearGradient id="linear-gradient-11" x1="429.29" y1="146.47" x2="429.29" y2="103.08" xlink:href="#linear-gradient-8"/><linearGradient id="linear-gradient-12" x1="577.82" y1="-672.19" x2="556.68" y2="-708.81" xlink:href="#linear-gradient-9"/><linearGradient id="linear-gradient-13" x1="190.56" y1="28.95" x2="195.45" y2="53.6" gradientUnits="userSpaceOnUse"><stop offset="0" stop-color="#ffffb1"/><stop offset="1"/></linearGradient><linearGradient id="linear-gradient-14" x1="-236.36" y1="33.09" x2="-231.47" y2="57.73" gradientTransform="matrix(-1, 0, 0, 1, -127.02, 0)" xlink:href="#linear-gradient-13"/><linearGradient id="linear-gradient-15" x1="109.63" y1="57.31" x2="144.17" y2="151.84" gradientUnits="userSpaceOnUse"><stop offset="0" stop-color="#900040"/><stop offset="0.2" stop-color="#a9386a"/><stop offset="0.6" stop-color="#d7a2b9"/><stop offset="0.87" stop-color="#f4e5ec"/><stop offset="1" stop-color="#fff"/></linearGradient><linearGradient id="linear-gradient-16" x1="115.26" y1="73.69" x2="149.64" y2="151.65" gradientUnits="userSpaceOnUse"><stop offset="0" stop-color="#fff"/><stop offset="0.14" stop-color="#f2e2e9"/><stop offset="0.44" stop-color="#d297b1"/><stop offset="0.88" stop-color="#9e2158"/><stop offset="1" stop-color="#900040"/></linearGradient><linearGradient id="linear-gradient-17" x1="94.02" y1="-24.03" x2="126.59" y2="25.8" xlink:href="#linear-gradient-13"/><linearGradient id="linear-gradient-18" x1="132.31" y1="69.2" x2="143.23" y2="153.7" xlink:href="#linear-gradient-16"/><linearGradient id="linear-gradient-19" x1="91.99" y1="145.17" x2="91.99" y2="-0.4" gradientUnits="userSpaceOnUse"><stop offset="0"/><stop offset="0.17" stop-color="#030302"/><stop offset="0.3" stop-color="#0d0d09"/><stop offset="0.42" stop-color="#1d1d14"/><stop offset="0.53" stop-color="#343424"/><stop offset="0.64" stop-color="#525239"/><stop offset="0.74" stop-color="#777753"/><stop offset="0.84" stop-color="#a3a371"/><stop offset="0.93" stop-color="#d4d493"/><stop offset="1" stop-color="#ffffb1"/></linearGradient><linearGradient id="linear-gradient-20" x1="42.12" y1="146.21" x2="42.12" y2="2.79" xlink:href="#linear-gradient-19"/><linearGradient id="linear-gradient-21" x1="84.76" y1="140.9" x2="84.76" y2="38.81" gradientUnits="userSpaceOnUse"><stop offset="0" stop-color="#91211a"/><stop offset="0.02" stop-color="#92221a"/><stop offset="0.62" stop-color="#a83722"/><stop offset="1" stop-color="#b03f25"/></linearGradient><linearGradient id="linear-gradient-22" x1="35.31" y1="127.02" x2="35.31" y2="80.78" xlink:href="#linear-gradient-21"/><linearGradient id="linear-gradient-23" x1="32.41" y1="36.92" x2="62.98" y2="83.68" xlink:href="#linear-gradient-13"/><linearGradient id="linear-gradient-24" x1="-6.9" y1="56.15" x2="23.43" y2="102.56" xlink:href="#linear-gradient-13"/><linearGradient id="linear-gradient-25" x1="191.68" y1="129.5" x2="227.37" y2="161.96" xlink:href="#linear-gradient"/><linearGradient id="linear-gradient-26" x1="205.44" y1="142.02" x2="223.76" y2="158.68" xlink:href="#linear-gradient-15"/><linearGradient id="linear-gradient-27" x1="217.58" y1="125.71" x2="238.77" y2="144.98" xlink:href="#linear-gradient"/><linearGradient id="linear-gradient-28" x1="230.56" y1="137.51" x2="237.14" y2="143.5" xlink:href="#linear-gradient-15"/></defs><g class="cls-2"><g id="Слой_2" data-name="Слой 2"><g id="Layer_2" data-name="Layer 2"><path class="cls-3" d="M58.59,39S56.83,8.53,129.41,1.21s76.74,20.57,79.32,28.29c0,0,8.11,3,25.71,26.7s11.28,31.26,11.28,31.26,7.71,11.47,8.5,18.39-20,13.65-20,13.65,1.78,3.56-19.38,12.07-30.66,6.92-30.66,6.92-11.87,7.72-32.84,9.1-45.89-.79-47.27-6.73c0,0-58.56,1.78-60.53-13.84,0,0-40.75-4.75-35.61-13.26,0,0-12.26-4.15-6.33-15s20-17.8,20-17.8S17.25,66.29,33.27,52.25,58.59,39,58.59,39Z"/><path class="cls-4" d="M140.88,44.22s7.27-31.67,18.51-3.33S142.11,58.2,142.11,58.2Z"/><path class="cls-5" d="M96.25,33.48s-1.61-13.18,23.66-25c0,0,20.23-6.72,21.56,1.09s2.49,40,1.54,50.69-21.42-36-21.42-36Z"/><path class="cls-6" d="M193.82,27.5A54.27,54.27,0,0,0,171.54,8.43c-14.94-6.82-17.95-4.6-18.89,0s4.5,38.33,7.81,46.59S193.82,27.5,193.82,27.5Z"/><path class="cls-7" d="M95.58,40.18s-3-.64-8.7.83a14.18,14.18,0,0,1,7.22-2.12s.39-20,19.78-23.14,32.34,18.4,28.78,49.75l-18.3-23.91Z"/><path class="cls-8" d="M164.81,65.5s-12.22-24.13-6.9-40.65,31.87-12,41.14,11.71c0,0,3.25-.48,6.81,3.7a19,19,0,0,0-6.81-2.16l-9.41-8.9L169.76,37Z"/><g class="cls-9"><path class="cls-10" d="M164.81,65.5s15.83-31.06,34.24-28c0,0-4-16.52-21.58-19.48C155.57,14.33,153.14,41.57,164.81,65.5Z"/><path class="cls-11" d="M185.94,41.11c-1.84,11.07-11,18.28-20.41,16s-15.28-13-13.29-24,11-17.83,20.2-15.7S187.77,30.14,185.94,41.11Z"/><path class="cls-12" d="M155.48,58.67C154.07,46.18,167.94,33,177.59,38.76c5.13,3.08,10.12,10.45,7.16,21.5C183.73,64.07,157.77,79,155.48,58.67Z"/><path class="cls-13" d="M156.75,56.05s0-19.93,13.35-26.4C189.46,20.28,205,37.16,201,48.88c-6.89,20.18,18.61-18,18.61-18S214.51,13,209.3,13.53s-58.6-3.11-58.6-3.11S123.28,45,125.25,48.65,156.75,56.05,156.75,56.05Z"/><path class="cls-14" d="M161.93,25.88c3.33-5.88,10.51,8.24,6.87,9.37S156.94,34.69,161.93,25.88Z"/></g><g class="cls-15"><path class="cls-16" d="M142.66,65.5S146.42,36,130.59,23,94,24.75,95.58,40.18C95.58,40.18,124.26,41.17,142.66,65.5Z"/><path class="cls-17" d="M131,44.08c-2,11.07-11.86,18.27-22,16s-16.46-13-14.32-24,11.84-17.83,21.76-15.7S132.94,33.11,131,44.08Z"/><path class="cls-18" d="M98.15,61.64C96.64,49.15,111.57,35.92,122,41.72c5.53,3.09,10.9,10.45,7.71,21.51C128.58,67,100.62,82,98.15,61.64Z"/><path class="cls-13" d="M87.65,57.4s2.7-16.46,17.11-22.94c20.86-9.37,43.4,18.42,36.86,35.54C134,90.09,167.25,33.81,167.25,33.81s-5.5-17.88-11.12-17.31S93,13.39,93,13.39,63.47,47.93,65.59,51.62,87.65,57.4,87.65,57.4Z"/><path class="cls-14" d="M104.31,26c3.59-5.88,11.32,8.24,7.4,9.37S98.94,34.79,104.31,26Z"/></g><path class="cls-19" d="M58.59,39s20-5.34,38,40.91c25.15,64.69,7.52,61,7.52,61s10,12.72,9.69-16.61S81.79,21.78,58.59,39Z"/><path class="cls-19" d="M21.6,80.93s13.65-3.36,22.85,21.56S43.56,127,43.56,127s5.34,11.49,9.79-4.93S39.7,74,21.6,80.93Z"/><path class="cls-20" d="M152.65,8.43s1.88-7.22,18.89,0C171.54,8.43,150.47-5.51,152.65,8.43Z"/><path class="cls-20" d="M141.47,9.52s2.57-13-21.56-1.09C119.91,8.43,139.49,3.78,141.47,9.52Z"/><path class="cls-20" d="M161.38,69.9s-4.1,14.5-12.6.34c0,0,2.06,7.69,7.13,9S161.38,69.9,161.38,69.9Z"/><path class="cls-21" d="M180.18,52c1.32-4.22,15.76-16.33,27.09-9.18S176.83,62.64,180.18,52Z"/><path class="cls-22" d="M119.72,56.1c-1.33-4.22-15.76-16.33-27.09-9.18S123.07,66.78,119.72,56.1Z"/><path class="cls-19" d="M208.73,29.5s26.21,69.63-24.53,109C184.2,138.49,239.49,111.39,208.73,29.5Z"/><path class="cls-19" d="M234.24,119.5s13.36-13,11.48-32C245.72,87.46,250.91,106.4,234.24,119.5Z"/><path class="cls-23" d="M8,113.76C2.81,122.27,43.56,127,43.56,127c2,15.62,60.53,13.84,60.53,13.84,1.38,5.94,26.3,8.11,47.27,6.73s32.84-9.1,32.84-9.1,9.49,1.58,30.66-6.92,19.38-12.07,19.38-12.07,20.77-6.72,20-13.65-8.5-18.39-8.5-18.39-7.22,22.45-17,20.07-13.25-40.37-13.25-40.37-10.59,52.38-50.83,52.69S95.94,78.31,95.94,78.31s19.12,45.54-9.06,45.34S43.27,99.53,43.27,99.53C53.08,129.81,18,119.4,13.89,114.09S21.6,101.6,21.6,101.6s-12.46,6.23-18.12,3.84C-1.11,103.5,1.75,98.37,3,96.5c-.5.73-1,1.47-1.38,2.23C-4.31,109.61,8,113.76,8,113.76Z"/><path class="cls-24" d="M8,113.76C2.81,122.27,43.56,127,43.56,127c2,15.62,60.53,13.84,60.53,13.84,1.38,5.94,26.3,8.11,47.27,6.73s32.84-9.1,32.84-9.1,9.49,1.58,30.66-6.92,19.38-12.07,19.38-12.07,20.77-6.72,20-13.65-8.5-18.39-8.5-18.39,6.33-7.52-11.28-31.26c-1.85-2.49-3.59-4.75-5.23-6.81.21.33,17.57,26.13-13.92,14.13,0,0-10.92,25.19-40.88,18.43,0,0-21.48,16.26-31.36,0,0,0-13.16,13.1-48.91-8,0,0-9.33,26.82-56.81,15C37.33,89-8.79,118.1,3,96.5c-.5.73-1,1.47-1.38,2.23C-4.31,109.61,8,113.76,8,113.76Z"/><path class="cls-25" d="M129.41,1.21C56.83,8.53,58.59,39,58.59,39c9.12-6.76,19.55.44,28.88,13.45-.1-.15-9.53-15.8-17-18.67s25.91-21.28,17.41-10.6c0,0,39-37.53,103.19-15.94C179.92,1.57,161.25-2,129.41,1.21Z"/><path class="cls-26" d="M48.74,44.37c.36-1.62,11.1-5.16,14.61-3.44S48.14,47.09,48.74,44.37Z"/><path class="cls-26" d="M48.14,47.09c.39-.93,5.78-.27,5.65,1.19S47.54,48.5,48.14,47.09Z"/><path class="cls-26" d="M3.8,99.8c-.25-1.44,5.62-9.92,9-8.53S4.24,102.46,3.8,99.8Z"/><path class="cls-26" d="M97.64,51.27c.76-1.85,5-5.28,7.31-3.64S97.08,52.63,97.64,51.27Z"/><path class="cls-26" d="M94.57,51.14c-1.16-.38,1-3.63,1.78-3.56S96.45,51.76,94.57,51.14Z"/><path class="cls-27" d="M202.85,118s-14.16,20.51-46.28,23.65-47-18-47-18c-28.91,28.09-64.39,6.59-64.88,6.29,8.46,12.47,59.38,10.92,59.38,10.92,1.38,5.94,26.3,8.11,47.27,6.73s32.84-9.1,32.84-9.1,9.49,1.58,30.66-6.92,19.38-12.07,19.38-12.07C209.12,136.91,202.85,118,202.85,118Z"/><path class="cls-28" d="M113.78,124.25c.13,13.11-1.79,17.81-4,19,2.92,1.3,6.92-.29,6.73-19-.27-26.84-26.84-90.36-49.13-87.75C89.08,39.05,113.52,98.51,113.78,124.25Z"/><path class="cls-29" d="M53.35,122.09c-1.47,5.43-3,7.8-4.49,8.55,1.92,1,4.43-.13,6.71-8.55C59.68,106.93,44.57,78.79,28,80,43.66,81.28,57.27,107.61,53.35,122.09Z"/><path class="cls-30" d="M96.57,79.9C83.09,45.24,68.48,39.55,62,38.88c-.42.06-.65.11-.65.11l.21-.14a12.52,12.52,0,0,0-2.16,0c6.33.55,21.16,5.89,34.82,41,22,56.6,11.27,60.83,8.23,61l1.63,0S121.72,144.59,96.57,79.9Z"/><path class="cls-31" d="M44.45,102.49c-6.62-17.93-15.54-21.22-20-21.66-.38,0-.59.1-.59.1a3.58,3.58,0,0,1,.35-.11,10.41,10.41,0,0,0-1.87,0c4.43.38,13.47,3.55,20.16,21.67,7.45,20.18,2.25,23.76,0,24.39l1.09.14S53.64,127.41,44.45,102.49Z"/><path class="cls-32" d="M43.88,90s-6.2-13-14.5-13-.66-21.76,13-25.91S43,63.92,43,63.92,67.7,35.67,92.8,71C75.9,34.39,58.59,39,58.59,39s-9.3-.79-25.32,13.26S21.6,80.93,21.6,80.93C29.7,77.83,37.8,82.47,43.88,90Z"/><path class="cls-33" d="M14.87,88.25S23.51,77.51,36.5,88C29,79.13,21.6,80.93,21.6,80.93s-14,6.92-20,17.8C2,98,2.5,97.23,3,96.5c-6,11.07,3.12,8.83,13.49,4C23.66,96.93,27.33,83.11,14.87,88.25Z"/><path class="cls-34" d="M219,145.5s8.11-2.83,11.59,4-6.18,9.4-12.36,3.6c0,0-10.05,6.19-18,.26s2.84-12.5,8.25-8.44c0,0-1.81-6.5,4.12-7.27S220.81,143.19,219,145.5Z"/><path class="cls-35" d="M200.2,153.36c8,5.93,18-.26,18-.26,6.18,5.8,15.84,3.22,12.36-3.6a7.86,7.86,0,0,0-4.76-4.13c4.93,2.15,5.07,9.24-.26,9-6.18-.26-8.5-8.11-8.5-8.11-4,2.06-7.47-.9-7.47-.9,2.19,1.93.77,9.4-6.45,6.18-5.44-2.43-3.84-5.52-2.73-6.88C197.23,146.38,195.63,150,200.2,153.36Z"/><path class="cls-36" d="M226.18,142c-3.16-1.22,3.12-8.31,7.42-6.67s9.5,3,7.57,5S230.78,143.73,226.18,142Z"/><path class="cls-37" d="M236.37,136.28c6,2.79-1.88,4.49-6,3.89-2.15-.3-2.35-2-2.05-3.64-2.47,1.8-4,4.68-2.11,5.42,4.6,1.78,13.06.45,15-1.63C242.69,138.68,239.78,137.51,236.37,136.28Z"/><path class="cls-19" d="M60.32,130.92c-2.19-3,22.17-6.62,24.44-2.91S63.29,135,60.32,130.92Z"/><path class="cls-19" d="M74.71,136.28c-1.93-2.34,10.77-5.76,14-3.47S76.64,138.62,74.71,136.28Z"/><path class="cls-19" d="M56.26,123.26c-.77-1.12,2.73-4.9,4.8-2.82S57.68,125.34,56.26,123.26Z"/><path class="cls-19" d="M119.27,124c3.16-4.3,33.33,12.67,28,14.5S113.84,131.39,119.27,124Z"/><path class="cls-19" d="M143.05,129.62c-1.42-2.17,17.71-1.83,17.41,1.39S145.07,132.72,143.05,129.62Z"/><path class="cls-19" d="M184.2,128.24c-2.87-2.11,12.62-17.44,16.92-15.66S188.35,131.29,184.2,128.24Z"/><path class="cls-19" d="M210.31,120.52c-.66-2.45,15.74-5.66,15.87-1S211.64,125.5,210.31,120.52Z"/><path class="cls-19" d="M228.85,119.5c-2.93-1,7.57-9.73,8.16-7.07S232,120.63,228.85,119.5Z"/><path class="cls-19" d="M218.24,111.24c-2.22-.45.23-6.14,2.6-3.66S221.12,111.84,218.24,111.24Z"/><path class="cls-19" d="M216.54,103.48c-.63-.4.3-3.89,2.22-2.81S219.06,105.06,216.54,103.48Z"/></g></g></g></svg>