<svg xmlns="http://www.w3.org/2000/svg" viewBox="0 0 168.59 177.89"><defs><style>.cls-1{isolation:isolate;}.cls-2{fill:#003967;}.cls-3{fill:#fff;}.cls-4,.cls-6{fill:#ff682a;}.cls-4,.cls-5{mix-blend-mode:multiply;}</style></defs><g class="cls-1"><g id="Слой_2" data-name="Слой 2"><g id="Layer_1" data-name="Layer 1"><path class="cls-2" d="M122.87,177.89,98.78,152.67c-5,.4-10.47.54-16.69.45-24.33-.38-47.31-11.2-61.42-29-9-11.28-13.53-24.39-13.21-37.89,1.32-54.71,58-69.72,75.3-73,45.94-8.74,77.53,7.9,84.5,44.51,6.78,35.65-13,76.51-42.58,89.19Zm-21.51-34.6,15,15.74,1.11-18.93,2.49-.91c30.3-11.15,45.34-50.8,39.9-79.4-2.67-14-10-25-21.14-31.77-13.5-8.18-31.94-10.12-54.82-5.77C68.06,25.27,16.17,38.84,15,86.51c-.26,11,3.58,21.83,11.1,31.31C38.87,133.87,59.83,143.65,82.19,144h0a164.57,164.57,0,0,0,17.6-.56Z"/><path class="cls-3" d="M84.66,145.92a171.25,171.25,0,0,0,17.93-.57l19.56,20.48,1.46-24.91c57.23-21.07,71-146.5-37.75-125.81-24.44,4.65-71,21.18-72.1,68.63C13,117.35,46.08,145.33,84.66,145.92Z"/><path class="cls-2" d="M96.57,160.57a28.69,28.69,0,0,1-3.5,1.59c-1.13.47-2.52.94-4.13,1.46s-3.43,1-5.45,1.4a55,55,0,0,1-6.56,1,62.46,62.46,0,0,1-7.4.45,36.93,36.93,0,0,1-3.92-.13c-1.33-.09-2.67-.12-4-.31l-4.07-.64-2-.35-2-.52a53.45,53.45,0,0,1-8-2.59l-3.83-1.58-3.6-2c-1.17-.69-2.35-1.29-3.45-2l-3.11-2.34c-1-.76-2-1.51-2.92-2.22s-1.71-1.66-2.52-2.43c-1.6-1.59-3.05-3-4.25-4.42s-2.09-2.82-2.88-3.9c-1.56-2.18-2.38-3.46-2.38-3.46s1.18.86,3.15,2.42c1,.79,2.16,1.72,3.47,2.85l4.72,3.19c.87.56,1.71,1.24,2.68,1.77l3,1.64,3.11,1.73L40,152.72l3.46,1.56,3.65,1.24a63.89,63.89,0,0,0,7.49,2.23l1.89.52,1.93.36,3.81.76c2.54.34,5.05.75,7.49,1s4.82.5,7.08.52,4.4.15,6.39.17S87,161,88.64,161s3-.09,4.22-.19C95.21,160.7,96.57,160.57,96.57,160.57Z"/><path class="cls-2" d="M0,62.13s.37-1.79,1.34-4.8A90.65,90.65,0,0,1,6.21,45.27c1.15-2.42,2.51-5,4.07-7.56a88.67,88.67,0,0,1,5.24-7.86,81.24,81.24,0,0,1,6.39-7.61A83.83,83.83,0,0,1,29.3,15.4c1.3-1,2.66-2,4-2.94S36,10.65,37.42,9.88a54.56,54.56,0,0,1,8.4-4A47.8,47.8,0,0,1,54,3.55c1.32-.22,2.59-.55,3.84-.66l3.62-.32a50.13,50.13,0,0,1,6.3.05,45.47,45.47,0,0,1,4.81.54c2.65.5,4.14.84,4.14.84s-1.53.16-4.17.34c-1.32,0-2.91.38-4.73.54a27.27,27.27,0,0,0-2.87.48c-1,.21-2.07.34-3.17.59-2.19.54-4.54,1.12-7,1.92-1.23.34-2.46.88-3.72,1.36s-2.54,1-3.82,1.62A71.88,71.88,0,0,0,39.52,15c-1.3.75-2.54,1.67-3.82,2.5S33.22,19.36,32,20.34a75.82,75.82,0,0,0-7,6.27c-1.13,1.08-2.18,2.27-3.27,3.37s-2.08,2.3-3.06,3.48c-2,2.36-3.82,4.69-5.51,7S9.9,45,8.53,47.17c-2.75,4.27-4.88,8-6.32,10.69S0,62.13,0,62.13Z"/><path class="cls-2" d="M6,31a21.06,21.06,0,0,1,.85-2.37C7.17,27.9,7.56,27,8,26s1-2.1,1.74-3.21,1.43-2.39,2.3-3.62,1.84-2.47,2.85-3.75S17.09,13,18.3,11.8a46.21,46.21,0,0,1,3.76-3.36L24,6.9c.67-.49,1.37-.91,2-1.36A30.44,30.44,0,0,1,30.2,3.22a25,25,0,0,1,4-1.65L36.12.94c.62-.15,1.23-.25,1.81-.37A30.1,30.1,0,0,1,41.1.05c1-.06,1.79,0,2.47,0,1.37,0,2.14.08,2.14.08s-.72.44-2,1.08c-.62.31-1.36.71-2.21,1.09s-1.76,1-2.78,1.57a36.93,36.93,0,0,0-3.21,1.91c-1.13.68-2.31,1.39-3.49,2.25L30.25,9.19c-.6.43-1.19.91-1.81,1.35L26.59,11.9l-1.81,1.47c-1.24.91-2.39,2-3.58,3l-3.41,3c-1.06,1.05-2.16,2-3.13,3s-1.95,1.86-2.81,2.73L7.64,29.36Z"/><path class="cls-4" d="M53.16,44.88c31.44-43,93-13.38,56.74,31.27-15.84,19.51,11.59,17.24-21,25.54-4.72-11.82-6.91-15.1-5.22-20.1,3.07-9.08,11.61-13.07,14.44-22.86,3.19-11-7.15-19.82-20.61-11.63C63.26,55.8,70.05,60.48,53.16,44.88Z"/><path class="cls-4" d="M89.54,123.27c-3.77-15.25,20-21.17,23.75-6S93.32,138.57,89.54,123.27Z"/><g class="cls-5"><path class="cls-6" d="M88.54,102.43l-.2-.51c-.85-2.14-1.62-4-2.3-5.64-3.1-7.48-4.38-10.57-2.92-14.89,1.51-4.47,4.34-7.76,7.07-11,2.91-3.4,5.92-6.91,7.36-11.87,1.38-4.8.11-9.39-3.32-12-4.09-3.09-10.21-2.7-16.37,1.05a50.69,50.69,0,0,0-7.54,5.61C65.61,57.32,65.24,57,55.91,48.3c-.95-.9-2-1.88-3.18-3l-.4-.37.33-.45c10.93-15,26.91-22.81,42.75-21,11.57,1.34,20.71,7.67,24.43,16.92,4.24,10.53.88,23.33-9.45,36.06C103.58,84.92,105,89.1,106,91.87c.46,1.36.86,2.53.2,3.73-1.13,2.06-5.28,3.69-17.07,6.69ZM84.62,43.57a12.76,12.76,0,0,1,10.38,2c3.85,2.91,5.29,8,3.75,13.32s-4.61,8.84-7.61,12.34c-2.78,3.24-5.4,6.3-6.83,10.54-1.31,3.87-.17,6.63,2.89,14,.63,1.52,1.33,3.22,2.11,5.15,10.58-2.71,14.86-4.33,15.74-5.93.37-.68.16-1.41-.29-2.73-1-3-2.59-7.6,4.65-16.53C119.45,63.4,122.74,51,118.68,41c-3.56-8.83-12.31-14.87-23.43-16.16C80,23,64.65,30.5,54,44.8l2.78,2.58c8.87,8.26,8.87,8.26,12.72,4.92a52,52,0,0,1,7.71-5.73A22.85,22.85,0,0,1,84.62,43.57Z"/></g><g class="cls-5"><path class="cls-6" d="M103.53,132.47a13.79,13.79,0,0,1-6.36-.2,11.58,11.58,0,0,1-8.24-8.84h0a11.72,11.72,0,0,1,3.15-11.7,14.55,14.55,0,0,1,13.58-3.45,11.53,11.53,0,0,1,8.23,8.79,11.73,11.73,0,0,1-3.18,11.73A14.37,14.37,0,0,1,103.53,132.47ZM99.46,109.3A13,13,0,0,0,93,112.62a10.52,10.52,0,0,0-2.8,10.5h0a10.4,10.4,0,0,0,7.37,7.95,13.2,13.2,0,0,0,12.32-3.16,10.56,10.56,0,0,0,2.84-10.53,10.35,10.35,0,0,0-7.37-7.89A12.69,12.69,0,0,0,99.46,109.3Z"/></g><g class="cls-5"><path class="cls-6" d="M86.33,106.71,85,103.29c-.85-2.13-1.61-4-2.29-5.6-3.26-7.87-4.89-11.82-3-17.42,1.74-5.14,4.8-8.71,7.76-12.16l1.69-2,1,.78c-.56.68-1.13,1.34-1.71,2-2.88,3.36-5.86,6.84-7.52,11.75-1.74,5.15-.17,9,3,16.54.68,1.63,1.44,3.48,2.29,5.61l1,2.42,2.54-.65c13-3.31,17-5,18.59-7.87,1.16-2.11.5-4,0-5.62-.86-2.5-1.91-5.62,3.74-12.73l1,.77c-5.23,6.58-4.29,9.33-3.54,11.55.55,1.6,1.38,4,0,6.62-1.77,3.24-5.94,5.07-19.39,8.49Z"/><path class="cls-6" d="M95.66,53.63l-1.24.17c0-.16,0-.31-.08-.47a6.27,6.27,0,0,0-1.65-3.27,6.14,6.14,0,0,0-1.84-1.28l.52-1.14a7.24,7.24,0,0,1,2.22,1.54,7.63,7.63,0,0,1,2,3.91C95.61,53.27,95.64,53.45,95.66,53.63Z"/><path class="cls-6" d="M67.12,59.27c-3.94.77-6.54-1.65-13.7-8.32-1-.89-2-1.87-3.17-2.94L47.5,45.46l2.23-3.05c8-11,18.43-18.33,30.14-21.31,1.19-.3,2.39-.56,3.59-.77l.2,1.23c-1.16.2-2.34.45-3.49.75-11.42,2.91-21.6,10.11-29.43,20.83l-1.57,2.15,1.94,1.79,3.17,3c7.09,6.6,9.5,8.83,13,7.91,1.66-.42,2.94-1.53,4.55-2.93a49.55,49.55,0,0,1,7.22-5.36A20.14,20.14,0,0,1,84,47.44l.34,1.2a18.91,18.91,0,0,0-4.57,2.07,48.24,48.24,0,0,0-7,5.24c-1.75,1.51-3.13,2.71-5.08,3.2C67.45,59.2,67.28,59.23,67.12,59.27Z"/><path class="cls-6" d="M123.86,59.41l-1.2-.33a31.24,31.24,0,0,0,.89-14.42,26.41,26.41,0,0,0-2.3-6.88l1.13-.56a27.63,27.63,0,0,1,2.41,7.2A32.47,32.47,0,0,1,123.86,59.41Z"/></g><g class="cls-5"><path class="cls-6" d="M104.22,136c-7.32,1.43-16.32-1.62-18.81-11.69-.09-.36-.17-.71-.23-1.06-1.81-9.63,4.85-16.6,12.37-18.51s17.27.9,19.87,11.41c.09.36.17.71.23,1.06a15.15,15.15,0,0,1-2.76,12.29l-1-.75a14,14,0,0,0,2.52-11.3c-.06-.32-.14-.65-.22-1-2.39-9.69-11.36-12.3-18.35-10.51-6.73,1.71-13.18,7.78-11.44,17q.09.49.21,1c2.3,9.3,10.61,12.1,17.37,10.78l.93-.21.29,1.21C104.88,135.88,104.55,136,104.22,136Z"/></g></g></g></g></svg>